<svg xmlns="http://www.w3.org/2000/svg" viewBox="0 0 94.05 27.33"><defs><style>.cls-2{fill:#006bff}</style></defs><g id="Layer_2" data-name="Layer 2"><g id="MouseOff"><path d="M68 20.91l-1.46-10.82a1.84 1.84 0 011.84-1.84h4.23l.8 1.92h1V6.31a.34.34 0 01.34-.3h5.58V4.72c0-.37.23-.47.52-.23l.72.61 1 .81.72.62a.56.56 0 010 .87l-.76.6-1 .81-.72.61c-.29.24-.52.14-.52-.23V8.12h-3.76v2.05h6.53a.48.48 0 01.12-.22l.61-.72.81-1 .62-.72a.56.56 0 01.87 0l.61.72.81 1 .62.72a.81.81 0 01.12.22h.49A1.85 1.85 0 0190.58 12l-1.86 8.9a1.84 1.84 0 01-1.84 1.84h-17A1.84 1.84 0 0168 20.91zm22 .23l4-4v-1l-5 5.05zm-5.19 0l9.22-9.22v-1L83.81 21.14zm-5.2 0L94.05 6.72v-1L78.61 21.14zm-2.37-2.82l14-14-.9.17-.43.13L77.61 17z" fill-rule="evenodd" fill="#006bff"/><path class="cls-2" d="M13.11 7.76a2.19 2.19 0 01-1.59-.58A2.57 2.57 0 0111 5.32a2.59 2.59 0 01.57-1.88 2.15 2.15 0 011.59-.59 2.13 2.13 0 011.58.59 2.59 2.59 0 01.57 1.88 3.61 3.61 0 01-.15 1.1 1.94 1.94 0 01-.43.76 1.56 1.56 0 01-.68.43 2.48 2.48 0 01-.94.15zm0-4a1.05 1.05 0 00-.93.42 2.07 2.07 0 00-.28 1.17 2 2 0 00.28 1.18 1.11 1.11 0 00.93.38A1.09 1.09 0 0014 6.5a2 2 0 00.29-1.18A2.06 2.06 0 0014 4.15a1 1 0 00-.89-.42zm.3-1.79c-.07 0-.11 0-.11-.12V1a.1.1 0 01.11-.11h.77c.08 0 .11 0 .11.11v.82c0 .08 0 .12-.11.12zM12 1.94c-.07 0-.11 0-.11-.12V1A.1.1 0 0112 .89h.77c.08 0 .11 0 .11.11v.82c0 .08 0 .12-.11.12zm4 7.99a.11.11 0 01-.12-.12v-.65c0-.08 0-.11.12-.11h.26c.61 0 .91-.32.91-1V3.17c0-.07 0-.11.12-.11H18a.1.1 0 01.11.11v4.89a1.9 1.9 0 01-.46 1.39 1.8 1.8 0 01-1.36.48zm4.6-2.36a.1.1 0 01-.11.11h-.73a.1.1 0 01-.11-.11V.11a.1.1 0 01.11-.11h.73a.1.1 0 01.11.11zm5.68-1.82a4 4 0 01-.09.93 1.54 1.54 0 01-.3.6 1.12 1.12 0 01-.5.31 2.6 2.6 0 01-.73.09h-2.51c-.08 0-.12 0-.12-.11v-.66c0-.07 0-.11.12-.11h2.15a2.17 2.17 0 00.51 0 .62.62 0 00.3-.17.73.73 0 00.13-.31 2.25 2.25 0 000-.49v-.9c0-.77-.43-1.15-1.29-1.15h-1.27c-.08 0-.12 0-.12-.11V3a.11.11 0 01.12-.12h1.66a2 2 0 011.4.49 1.94 1.94 0 01.54 1.52zm2.36 1.82a.1.1 0 01-.11.11h-.72c-.08 0-.12 0-.12-.11V.11c0-.08 0-.11.12-.11h.72a.1.1 0 01.11.11zm-1.21 2.72a1.09 1.09 0 01-.14-.31 1.23 1.23 0 01-.06-.39 1.31 1.31 0 01.06-.38.9.9 0 01.19-.36 1.06 1.06 0 01.35-.27 1.44 1.44 0 011.08 0 .88.88 0 01.36.3v.11l-.27.18c-.06.05-.1.05-.13 0a1.08 1.08 0 00-.2-.17.61.61 0 00-.3-.08.56.56 0 00-.47.2.68.68 0 00-.15.45.71.71 0 00.13.43 1 1 0 00.25.28h1.17s.06 0 .06.08v.31c0 .06 0 .08-.06.08H27s-.07 0-.07-.08v-.31c0-.06 0-.08.07-.08zm8.64-2.53a2.61 2.61 0 01-1-.2A1.65 1.65 0 0134.3 7a.65.65 0 01-.26.26l-.29.17a.82.82 0 00-.25.24.9.9 0 00-.1.46v1.8h-.95V7.85a1.55 1.55 0 01.1-.58 1.26 1.26 0 01.26-.39 1.4 1.4 0 01.35-.25l.35-.21a1 1 0 00.28-.23.53.53 0 00.14-.34 2.26 2.26 0 010-.26 2.35 2.35 0 010-.27 2.55 2.55 0 01.58-1.88 2.41 2.41 0 013.16 0 2.59 2.59 0 01.58 1.88 3.31 3.31 0 01-.16 1.1 1.94 1.94 0 01-.43.76 1.58 1.58 0 01-.67.43 2.57 2.57 0 01-.92.15zm0-4a1 1 0 00-.92.42 2 2 0 00-.29 1.17 1.88 1.88 0 00.29 1.18A1.3 1.3 0 0037 6.5a2 2 0 00.29-1.18A2.06 2.06 0 0037 4.15a1 1 0 00-.93-.42zM39.64.11c0-.08 0-.11.11-.11h.72c.08 0 .11 0 .11.11V6.2a.69.69 0 00.13.47.62.62 0 00.42.13h.49a.4.4 0 01.46.45c0 .19 0 .31-.11.35a.62.62 0 01-.35.08H41a1.29 1.29 0 01-1-.35 1.62 1.62 0 01-.3-1.08z"/><path class="cls-2" d="M41.7 7.68a.57.57 0 01-.33-.08.36.36 0 01-.12-.32.54.54 0 01.11-.38.48.48 0 01.34-.1h.72a.61.61 0 00.41-.13.64.64 0 00.17-.47V.11a.1.1 0 01.07-.11h.72c.08 0 .12 0 .12.11v3.44a6.86 6.86 0 011.23-.49 4.64 4.64 0 011.39-.21 3.51 3.51 0 011.31.22 2.13 2.13 0 01.83.58 2.08 2.08 0 01.43.85 3.88 3.88 0 01.13 1 2.53 2.53 0 010 .28V6a.67.67 0 00.27.58 1.37 1.37 0 00.74.19h.13a.55.55 0 01.34.09.45.45 0 01.11.33c0 .19 0 .32-.11.37a.51.51 0 01-.34.09h-.24a1.35 1.35 0 01-.7-.18A1 1 0 0149 7a1.15 1.15 0 01-.55.54 2.18 2.18 0 01-.91.16h-3.81a.47.47 0 01-.39-.15 1.61 1.61 0 01-.75.15zm4.76-3.95a3.23 3.23 0 00-.69.07 5.17 5.17 0 00-.68.16 5.85 5.85 0 00-.63.23c-.2.08-.39.16-.55.24v1.83a2.48 2.48 0 01-.06.54h3.34a1.81 1.81 0 00.52-.06.59.59 0 00.32-.2.7.7 0 00.15-.39 4 4 0 000-.65 3.38 3.38 0 00-.08-.75 1.25 1.25 0 00-.83-.9 2.6 2.6 0 00-.81-.12zm-.33-1.79c-.07 0-.11 0-.11-.12V1a.1.1 0 01.11-.11h.77A.1.1 0 0147 1v.82c0 .08 0 .12-.11.12z"/><path class="cls-2" d="M50.36 7.68A.63.63 0 0150 7.6a.38.38 0 01-.11-.32.49.49 0 01.11-.38.46.46 0 01.34-.1h.71a.62.62 0 00.42-.13.7.7 0 00.12-.47v-3c0-.07 0-.11.12-.11h.72a.1.1 0 01.11.11v3.05a1.62 1.62 0 01-.3 1.08 1.29 1.29 0 01-1 .35zm1.34-5.74c-.07 0-.11 0-.11-.12V1a.1.1 0 01.11-.11h.77c.08 0 .11 0 .11.11v.82c0 .08 0 .12-.11.12zM4.14 16.84a4.1 4.1 0 012.64.7 2.35 2.35 0 01.86 1.91 3.06 3.06 0 01-.17 1 3.92 3.92 0 01-.43.87 4.19 4.19 0 01-.59.73 4.32 4.32 0 01-.65.54l.36.06a2.28 2.28 0 00.36 0H9a1 1 0 01.51.11.55.55 0 01.16.47.76.76 0 01-.16.57.71.71 0 01-.51.2H6.47a4.89 4.89 0 01-1-.12 2.72 2.72 0 01-1-.4c-.33.13-.67.23-1 .33a9.47 9.47 0 00-1 .31 2.28 2.28 0 00-.72.42.85.85 0 00-.28.67.68.68 0 00.31.61 2.16 2.16 0 001.1.18h1.61a.15.15 0 01.17.17v1a.15.15 0 01-.17.17H2.76a3.66 3.66 0 01-2.06-.5A1.84 1.84 0 010 25.2 2.09 2.09 0 01.31 24a2.57 2.57 0 01.78-.76 4.25 4.25 0 011-.44c.37-.11.72-.19 1.06-.26a4.4 4.4 0 00-.36-1.16 3.88 3.88 0 00-.53-.84 4.43 4.43 0 00-.66-.64l-.73-.54a.74.74 0 01-.2-.18.42.42 0 010-.16V18a.37.37 0 01.17-.34 5.06 5.06 0 01.53-.27 7 7 0 01.75-.28 7.41 7.41 0 01.95-.22 6.35 6.35 0 011.07-.05zm0 1.3a4.8 4.8 0 00-1.33.16 3.22 3.22 0 00-.75.28 4.78 4.78 0 011.5 1.35A5.73 5.73 0 014.49 22a4.58 4.58 0 00.57-.42A4.81 4.81 0 005.6 21a3 3 0 00.4-.67 2.09 2.09 0 00.16-.78 1.41 1.41 0 00-.16-.69 1.26 1.26 0 00-.43-.43 1.91 1.91 0 00-.65-.22 4 4 0 00-.78-.07z"/><path class="cls-2" d="M9 24a1 1 0 01-.5-.11.56.56 0 01-.17-.47.81.81 0 01.16-.57.74.74 0 01.51-.16h1.16a.83.83 0 00.61-.2 1 1 0 00.19-.69v-4.49a.15.15 0 01.17-.17h1.07c.12 0 .17.05.17.17v4.57a2.37 2.37 0 01-.45 1.6 1.92 1.92 0 01-1.51.51zm2.77 3.12a.15.15 0 01-.17-.17v-1.23a.15.15 0 01.17-.17h1.14a.15.15 0 01.17.17v1.22a.15.15 0 01-.17.17zm-2.05 0c-.11 0-.16-.06-.16-.17v-1.23c0-.11.05-.17.16-.17h1.14a.15.15 0 01.17.17v1.22a.15.15 0 01-.17.17zm4.06.21a.15.15 0 01-.17-.17v-1a.15.15 0 01.17-.17h.38c.91 0 1.36-.47 1.36-1.42v-7.26c0-.12.05-.17.17-.17h1.07a.15.15 0 01.17.17v7.25a2.82 2.82 0 01-.69 2.06 2.69 2.69 0 01-2 .71zm5.41-14.57c0-.11.06-.16.17-.16h1.07c.12 0 .17.05.17.16v9a1 1 0 00.19.69.85.85 0 00.62.2h.73a.59.59 0 01.67.67c0 .28 0 .45-.16.52a.84.84 0 01-.51.11h-1a1.91 1.91 0 01-1.5-.51 2.32 2.32 0 01-.46-1.6z"/><path class="cls-2" d="M27.38 24a1.89 1.89 0 01-.94-.22 1.4 1.4 0 01-.62-.65 1.74 1.74 0 01-1.75.87h-1.81a1 1 0 01-.5-.11.56.56 0 01-.17-.47.81.81 0 01.16-.57.74.74 0 01.51-.15h1.56a.85.85 0 00.62-.2 1 1 0 00.19-.69v-3.06a.15.15 0 01.17-.17h1.07a.15.15 0 01.17.17v2.8a1 1 0 00.4.85 1.81 1.81 0 001.07.29h.42a.83.83 0 00.61-.2 1 1 0 00.2-.69v-3.05c0-.11.05-.17.16-.17H30c.11 0 .16.06.16.17v2.86a.9.9 0 00.42.81 2 2 0 001.09.27H32a.83.83 0 00.61-.2 1 1 0 00.19-.69v-4.49a.15.15 0 01.17-.17h1.07c.12 0 .17.05.17.17v4.24a1 1 0 00.41.85 1.91 1.91 0 001.1.29h.18a.74.74 0 01.51.14.59.59 0 01.16.48.75.75 0 01-.15.56.89.89 0 01-.52.12h-.35a1.89 1.89 0 01-.94-.22 1.5 1.5 0 01-.62-.65 1.74 1.74 0 01-1.74.87h-.8a1.87 1.87 0 01-.94-.22 1.4 1.4 0 01-.62-.65 1.74 1.74 0 01-1.75.87zm2.48-8.51a.15.15 0 01-.17-.17v-1.23a.15.15 0 01.17-.17H31c.11 0 .16.05.16.17v1.22c0 .11-.05.17-.16.17zm-2.05 0a.15.15 0 01-.17-.17v-1.23a.15.15 0 01.17-.17H29a.15.15 0 01.17.17v1.22a.15.15 0 01-.17.17zm1-2a.15.15 0 01-.17-.17v-1.19a.15.15 0 01.17-.17H30a.15.15 0 01.17.17v1.22a.15.15 0 01-.17.17z"/><path class="cls-2" d="M40.88 24.11a3.75 3.75 0 01-1.39-.23 2.42 2.42 0 01-1-.71 1.52 1.52 0 01-.91.68 4.37 4.37 0 01-1 .14h-.72a.59.59 0 01-.67-.67c0-.28.05-.45.16-.52a.88.88 0 01.51-.11h.84a1 1 0 00.37-.08.85.85 0 00.33-.25 1.48 1.48 0 00.25-.47 2.55 2.55 0 00.09-.73v-.67a3.85 3.85 0 01.86-2.79 3.11 3.11 0 012.34-.86 3.15 3.15 0 012.35.86 3.85 3.85 0 01.85 2.79v.72a1.65 1.65 0 00.34 1.17 1 1 0 00.7.31h.48a.76.76 0 01.51.14.59.59 0 01.16.48c0 .29-.05.47-.16.56a.83.83 0 01-.51.12h-.96a3.33 3.33 0 01-.53-.11 2.47 2.47 0 01-.49-.24 1.38 1.38 0 01-.4-.43 2.37 2.37 0 01-1 .7 3.9 3.9 0 01-1.4.2zm0-6a1.54 1.54 0 00-1.36.62 3 3 0 00-.43 1.73 2.85 2.85 0 00.43 1.76 1.61 1.61 0 001.36.56 1.63 1.63 0 001.37-.56 2.92 2.92 0 00.42-1.76 3.07 3.07 0 00-.42-1.73 1.56 1.56 0 00-1.37-.59z"/><path class="cls-2" d="M45.56 24a1 1 0 01-.5-.11.53.53 0 01-.17-.47.76.76 0 01.16-.57.71.71 0 01.51-.15h1a.85.85 0 00.62-.2 1 1 0 00.19-.69v-9c0-.11 0-.16.17-.16h1.07c.11 0 .17.05.17.16v9.12a2.32 2.32 0 01-.46 1.6 1.91 1.91 0 01-1.5.51zm7.02-.18c0 .12 0 .17-.16.17h-1.08c-.11 0-.16 0-.16-.17V12.76a.14.14 0 01.16-.16h1.08a.14.14 0 01.16.16z"/></g></g></svg>