<svg xmlns="http://www.w3.org/2000/svg" viewBox="0 0 68.63 27.7"><g fill="#006bff" data-name="Layer 2"><path d="M43.18 3.43h2v2.92a4.76 4.76 0 01-1.4.65 5.91 5.91 0 01-1.59.22 4.2 4.2 0 01-2-.46 3.35 3.35 0 01-1.38-1.28 3.59 3.59 0 01-.5-1.88 3.58 3.58 0 01.5-1.87A3.34 3.34 0 0140.22.46a4.29 4.29 0 012-.46 4.58 4.58 0 011.82.34 3.34 3.34 0 011.34 1l-1.47 1.31a2 2 0 00-1.55-.77 1.63 1.63 0 00-1.23.47 1.74 1.74 0 00-.45 1.26 1.79 1.79 0 00.44 1.26 1.58 1.58 0 001.21.47 2.25 2.25 0 00.85-.16zM49.53.15a4.16 4.16 0 011.68.32 2.4 2.4 0 011.09.91 2.48 2.48 0 01.39 1.38 2.49 2.49 0 01-.39 1.39 2.46 2.46 0 01-1.09.91 4.16 4.16 0 01-1.68.31h-1v1.71H46.2V.15zm-.14 3.42a1.06 1.06 0 00.71-.21.75.75 0 00.24-.6.75.75 0 00-.24-.59 1 1 0 00-.71-.17h-.85v1.57zm10.24 3.51l-.02-3.16-1.5 2.53h-1.03l-1.5-2.42v3.05h-2.13V.15h1.92l2.26 3.69L59.82.15h1.92l.02 6.93h-2.13zM64.41.57a1.85 1.85 0 01.94.24 1.74 1.74 0 01.66.66 1.86 1.86 0 01.25.94 1.91 1.91 0 01-.25.94 1.87 1.87 0 01-.67.67 1.81 1.81 0 01-.94.25 1.79 1.79 0 01-.94-.27 1.77 1.77 0 01-.66-.67 1.85 1.85 0 01-.25-.93 1.91 1.91 0 01.25-.94 1.8 1.8 0 01.67-.67 1.85 1.85 0 01.94-.22zM64.4 4a1.53 1.53 0 00.79-.21 1.61 1.61 0 00.56-.57 1.63 1.63 0 00.2-.79 1.6 1.6 0 00-.2-.79 1.41 1.41 0 00-.55-.56 1.51 1.51 0 00-.79-.21 1.57 1.57 0 00-.8.21 1.61 1.61 0 00-.56.57 1.6 1.6 0 00-.2.79 1.63 1.63 0 00.2.79 1.5 1.5 0 00.56.56 1.53 1.53 0 00.79.21zm1-1.88a.72.72 0 01-.11.4.64.64 0 01-.31.24l.47.71H65l-.4-.63h-.47v.63h-.45V1.38h.86a1 1 0 01.64.2.65.65 0 01.18.52zm-.9.37a.49.49 0 00.34-.1.32.32 0 00.12-.27.31.31 0 00-.12-.26.49.49 0 00-.34-.1h-.39v.73zm-18.66 14v1.4h-6.76V8.88h6.58v1.4h-4.91v2.35h4.35V14h-4.35v2.49h5.09zm5.57-7.61a5 5 0 012 .39 2.91 2.91 0 011.33 1.1 3.14 3.14 0 01.47 1.72 3.07 3.07 0 01-.47 1.7 2.94 2.94 0 01-1.33 1.12 5.12 5.12 0 01-2 .38h-2v2.6H47.7v-9zm-.08 5a2.55 2.55 0 001.67-.47 1.61 1.61 0 00.57-1.32 1.61 1.61 0 00-.57-1.33 2.55 2.55 0 00-1.66-.46h-1.96v3.58zm13.87 4.01l-.01-5.97-2.97 4.94h-.74L58.52 12v5.89h-1.6V8.88h1.38l3.58 5.97 3.51-5.97h1.38l.01 9.01H65.2zm-24.6 8.23a4.24 4.24 0 01-1.29-.19 2.7 2.7 0 01-1-.5l.37-.84a3 3 0 00.87.46 3.16 3.16 0 001 .18 1.75 1.75 0 001-.21.62.62 0 00.32-.54.52.52 0 00-.18-.41 1.22 1.22 0 00-.45-.25l-.74-.21a8.65 8.65 0 01-1.07-.31 1.71 1.71 0 01-.7-.49 1.3 1.3 0 01-.29-.9 1.55 1.55 0 01.26-.91 1.8 1.8 0 01.79-.63 3.25 3.25 0 011.28-.23 4.56 4.56 0 011 .13 3 3 0 01.88.38l-.33.84a3.11 3.11 0 00-.8-.34 2.82 2.82 0 00-.8-.12 1.59 1.59 0 00-.94.22.65.65 0 00-.31.57.5.5 0 00.18.4 1.2 1.2 0 00.45.25c.18.06.43.13.74.2a8.73 8.73 0 011 .31 1.85 1.85 0 01.71.49 1.28 1.28 0 01.29.9 1.48 1.48 0 01-.26.86 1.7 1.7 0 01-.78.62 3.34 3.34 0 01-1.2.27zm7.34-4.49l-2.06 4.76a2.27 2.27 0 01-.7 1 1.67 1.67 0 01-1 .3 2.06 2.06 0 01-.65-.11 1.36 1.36 0 01-.53-.3l.41-.76a1.18 1.18 0 00.35.23 1.19 1.19 0 00.41.08.73.73 0 00.45-.14 1.21 1.21 0 00.33-.47l.07-.17-1.92-4.42h1.07l1.39 3.26L47 21.63zm1.95 4.47a4.09 4.09 0 01-1-.14 3 3 0 01-.89-.36l.4-.78a2.73 2.73 0 00.71.32 3.44 3.44 0 00.83.11c.61 0 .92-.16.92-.48a.32.32 0 00-.24-.32 4.11 4.11 0 00-.75-.18 5.86 5.86 0 01-.89-.19 1.32 1.32 0 01-.59-.37 1 1 0 01-.25-.75 1.16 1.16 0 01.52-1 2.39 2.39 0 011.42-.38 4 4 0 01.9.11 2.82 2.82 0 01.75.27l-.4.79a2.44 2.44 0 00-1.26-.33 1.41 1.41 0 00-.69.13.4.4 0 00-.24.36.36.36 0 00.25.35 3.88 3.88 0 00.78.2 4.42 4.42 0 01.87.19 1.3 1.3 0 01.58.36 1 1 0 01.25.73 1.15 1.15 0 01-.54 1 2.58 2.58 0 01-1.44.36zm5.54-.3a1.18 1.18 0 01-.43.2 1.91 1.91 0 01-.54.08 1.59 1.59 0 01-1.13-.38 1.49 1.49 0 01-.39-1.11v-2.1h-.73v-.82h.73v-1h1v1h1.18v.82H54v2.1a.69.69 0 00.16.49.58.58 0 00.45.17.93.93 0 00.58-.18zm4.84-1.94v.31H56.8a1.18 1.18 0 00.47.77 1.55 1.55 0 00.95.28 1.6 1.6 0 001.2-.48l.55.64a1.83 1.83 0 01-.75.53 2.54 2.54 0 01-1 .19 2.75 2.75 0 01-1.28-.29 2 2 0 01-.85-.81 2.17 2.17 0 01-.31-1.16 2.25 2.25 0 01.3-1.16 2 2 0 01.81-.81 2.42 2.42 0 011.11-.29 2.31 2.31 0 011.15.29 2 2 0 01.79.8 2.41 2.41 0 01.33 1.19zM58 22.41a1.28 1.28 0 00-.84.29 1.29 1.29 0 00-.41.78h2.5A1.22 1.22 0 0058 22.41zm8.82-.83a1.78 1.78 0 011.32.49 2 2 0 01.49 1.44V26h-1v-2.35a1.27 1.27 0 00-.25-.87.92.92 0 00-.74-.3 1.08 1.08 0 00-.83.35 1.36 1.36 0 00-.31 1V26h-1v-2.35a1.27 1.27 0 00-.26-.87.9.9 0 00-.73-.3 1.1 1.1 0 00-.84.34 1.39 1.39 0 00-.31 1V26h-1v-4.37h1v.56a1.65 1.65 0 01.62-.45 2.18 2.18 0 01.82-.16 2 2 0 01.88.19 1.41 1.41 0 01.61.55 1.81 1.81 0 01.7-.54 2.28 2.28 0 01.83-.2z"/><path d="M1.48 21.2L0 10.39a1.84 1.84 0 011.84-1.84h4.23l.8 1.91h1V6.61a.35.35 0 01.34-.31h5.59V5c0-.37.23-.48.52-.24l.72.61 1 .81.72.62a.56.56 0 010 .87L16 8.3l-1 .81-.72.62c-.29.24-.52.13-.52-.24V8.41H10v2.05h6.53a.48.48 0 01.12-.22l.61-.72.81-.95.62-.73a.56.56 0 01.87 0l.61.73.81.95.62.72a.81.81 0 01.12.22h.49A1.85 1.85 0 0124 12.3l-1.86 8.9a1.84 1.84 0 01-1.8 1.8h-17a1.84 1.84 0 01-1.86-1.8zm22 .23l4-4v-1l-5.05 5.05zm-5.19 0l9.22-9.22v-1L17.27 21.43zm-5.2 0L27.51 7V6L12.07 21.43zm-2.37-2.82l14-14-.9.17-.47.22-12.28 12.24z" fill-rule="evenodd"/></g></svg>