<svg stroke-width=".501" stroke-linejoin="bevel" fill-rule="evenodd" xmlns="http://www.w3.org/2000/svg" overflow="visible" width="76.867" height="76.02" viewBox="0 0 57.65 57.015"><g fill="none" stroke="#000" font-family="Times New Roman" font-size="16"><path d="M28.982.619c15.384 0 27.872 12.485 27.872 27.87 0 15.384-12.488 27.868-27.872 27.868S1.11 43.873 1.11 28.489C1.11 13.104 13.598.619 28.982.619z" stroke="#e5e5e5" stroke-linejoin="miter" fill="#fff"/><path d="M36.191 26.945H22.755a.513.513 0 000 1.027h13.436a.513.513 0 000-1.027zm-11.667-.81h2.026c.172 0 .31-.138.31-.307v-3.783a.308.308 0 00-.31-.308h-2.026a.305.305 0 00-.307.308v3.783c0 .169.135.307.307.307zm3.897-2.671a.306.306 0 00-.307.307v2.057c0 .169.138.307.307.307h2.029a.308.308 0 00.309-.307v-2.057a.306.306 0 00-.309-.307h-2.029zm3.9-3.847a.308.308 0 00-.308.306v5.905c0 .169.138.307.308.307h2.028a.31.31 0 00.309-.307v-5.905a.31.31 0 00-.309-.306h-2.028zm-7.012-1.372l3.504 2.834a.407.407 0 00.26.088.4.4 0 00.307-.14l4.476-5.149.69.577a.308.308 0 00.198.073c.042 0 .083-.01.12-.026a.305.305 0 00.186-.263l.14-2.103a.3.3 0 00-.109-.257.3.3 0 00-.272-.063l-2.042.517a.307.307 0 00-.124.535l.581.485-4.203 4.837-3.195-2.584a.41.41 0 00-.517.639z" fill-rule="nonzero" fill="#666" stroke="none"/><g fill-rule="nonzero" stroke-linejoin="round" stroke-linecap="round" stroke="none" stroke-width=".423" fill="#D46934" stroke-miterlimit="79.84"><path d="M15.156 43.768c-.09 0-.135-.043-.135-.135v-.782c0-.091.045-.135.135-.135h.312c.73 0 1.096-.384 1.096-1.15v-5.887c0-.091.045-.136.135-.136h.866c.091 0 .134.045.134.136v5.858c0 .729-.183 1.285-.552 1.665-.372.377-.913.566-1.624.566h-.367zm1.531-9.565c-.092 0-.135-.047-.135-.135v-.99c0-.088.043-.135.135-.135h.919c.089 0 .136.047.136.135v.99c0 .088-.047.135-.136.135h-.919zm2.844-2.19c0-.09.044-.137.136-.137h.864c.091 0 .135.047.135.137v7.292c0 .271.052.46.156.562.105.103.271.156.493.156h.599c.361 0 .54.181.54.54 0 .226-.045.369-.13.426-.086.06-.223.088-.41.088h-.801c-.566 0-.974-.137-1.216-.413-.244-.276-.366-.707-.366-1.291v-7.36z"/><path d="M25.077 36.352c-.306 0-.587.065-.844.19a2.306 2.306 0 00-.683.513c-.054.066-.119.068-.189.016l-.599-.488c-.08-.063-.093-.127-.038-.19.251-.314.567-.577.94-.784.374-.206.832-.31 1.374-.31.621 0 1.13.096 1.528.291.397.195.712.45.94.764.232.317.393.683.483 1.097.088.415.135.844.135 1.285 0 .084-.002.159-.008.232-.004.072-.004.142-.004.215a.753.753 0 00.359.631c.22.139.505.209.856.209h.151c.179 0 .315.039.405.117.092.074.135.201.135.384 0 .234-.043.384-.127.451-.088.068-.223.102-.413.102h-.285c-.307 0-.582-.065-.824-.195a1.094 1.094 0 01-.517-.59 1.287 1.287 0 01-.641.609c-.277.117-.622.176-1.037.176H21.91c-.361 0-.54-.18-.54-.541 0-.226.042-.365.128-.425.086-.057.223-.088.412-.088h3.846c.252 0 .454-.019.607-.06a.657.657 0 00.351-.211.824.824 0 00.164-.4c.025-.166.041-.372.041-.616a4.7 4.7 0 00-.096-.969 2.191 2.191 0 00-.304-.758 1.39 1.39 0 00-.56-.486c-.238-.114-.528-.171-.882-.171zm-.257 7.217c-.09 0-.135-.047-.135-.136v-.99c0-.088.045-.134.135-.134h.92c.088 0 .135.046.135.134v.99c0 .089-.047.136-.135.136h-.92z"/><path d="M29.575 41.077c-.18 0-.314-.032-.406-.094-.091-.065-.135-.189-.135-.379 0-.226.042-.38.127-.46.086-.08.223-.121.414-.121h.852c.225 0 .392-.053.496-.156.103-.102.153-.291.153-.562v-3.626c0-.091.047-.136.137-.136h.866c.09 0 .135.045.135.136v3.694c0 .584-.123 1.015-.367 1.291-.242.276-.649.413-1.215.413h-1.057zm1.607-6.874c-.09 0-.135-.047-.135-.135v-.99c0-.088.045-.135.135-.135h.92c.088 0 .135.047.135.135v.99c0 .088-.047.135-.135.135h-.92zm6.183 5.82h1.585c.226 0 .39-.053.494-.156.103-.102.156-.291.156-.562v-7.292c0-.09.043-.137.134-.137h.866c.09 0 .135.047.135.137v7.36c0 .584-.119 1.015-.364 1.291-.244.276-.65.413-1.218.413h-5.588c-.091 0-.136-.044-.136-.135v-.784c0-.088.045-.135.136-.135h2.665V33.92c0-.088.044-.134.135-.134h.865c.091 0 .135.046.135.134v6.103zm-1.447 4.179a1.52 1.52 0 01-.244-.838c0-.144.023-.294.068-.453.047-.158.121-.302.23-.434.107-.129.25-.239.424-.324.177-.086.395-.127.657-.127.234 0 .444.041.629.121.184.08.332.197.442.351.026.065.026.109 0 .135l-.286.232c-.062.054-.112.062-.148.025a1.101 1.101 0 00-.286-.223.746.746 0 00-.363-.085c-.252 0-.439.074-.562.228a.84.84 0 00-.185.54c0 .197.053.371.156.519.105.152.206.26.304.333h1.396c.054 0 .08.032.08.094v.379c0 .064-.026.096-.08.096h-2.746c-.054 0-.081-.032-.081-.096v-.379c0-.062.027-.094.081-.094h.514zm7.846-3.26c0 .091-.045.135-.135.135h-.866c-.091 0-.134-.044-.134-.135v-8.929c0-.09.043-.137.134-.137h.866c.09 0 .135.047.135.137v8.929z"/></g></g></svg>