<svg stroke-width=".501" stroke-linejoin="bevel" fill-rule="evenodd" xmlns="http://www.w3.org/2000/svg" overflow="visible" width="76.867" height="76.02" viewBox="0 0 57.65 57.015"><g fill="none" stroke="#000" font-family="Times New Roman" font-size="16"><path d="M28.793.733c15.383 0 27.871 12.484 27.871 27.867 0 15.383-12.488 27.867-27.871 27.867S.922 43.983.922 28.6C.922 13.217 13.41.733 28.793.733z" stroke="#e5e5e5" stroke-linejoin="miter" fill="#fff"/><path d="M25.107 43.744v-.782c0-.091.044-.135.135-.135h.312c.73 0 1.096-.384 1.096-1.151V35.79c0-.091.044-.135.135-.135h.865c.091 0 .135.044.135.135v3.424c0 .306.112.537.333.691.22.153.517.228.885.228h1.003c.224 0 .39-.052.494-.156.104-.103.156-.29.156-.561v-3.628c0-.091.044-.136.135-.136h.865c.091 0 .135.045.135.136v.459a8.265 8.265 0 011.475-.595 5.803 5.803 0 011.663-.241c.631 0 1.156.086 1.569.257.415.171.748.403.995.696.249.294.423.634.522 1.024.098.387.148.797.148 1.231 0 .117-.003.226-.008.33a9.623 9.623 0 00-.005.265c0 .306.109.537.332.691.221.153.515.228.886.228h.148l.002.001.855-.001c.224 0 .39-.052.494-.156.104-.101.156-.29.156-.561v-7.291c0-.091.044-.138.135-.138h.865c.091 0 .135.047.135.138v7.359c0 .584-.122 1.016-.366 1.291-.242.275-.65.413-1.216.413h-1.343a1.67 1.67 0 01-.847-.216 1.187 1.187 0 01-.522-.62 1.326 1.326 0 01-.655.646c-.285.128-.646.19-1.088.19h-4.546c-.218 0-.371-.06-.46-.177-.226.117-.527.177-.906.177h-1.341c-.47 0-.828-.146-1.083-.434v.894c0 .73-.184 1.286-.553 1.665-.372.376-.912.566-1.624.566h-.366c-.091 0-.135-.044-.135-.135zm-11.742-2.969c-.244-.275-.366-.707-.366-1.294v-2.828c0-.091.047-.136.135-.136h.868c.091 0 .135.045.135.136v2.763c0 .271.052.458.156.561.104.104.267.156.493.156h4.775c-.263-.441-.392-1.031-.392-1.771 0-.515.065-.959.194-1.333.13-.376.315-.683.549-.922.233-.239.506-.416.818-.527a3.003 3.003 0 011.023-.169c.803 0 1.434.231 1.894.696.46.465.691 1.216.691 2.252 0 .514-.062.953-.184 1.315-.12.358-.291.649-.515.872a2 2 0 01-.81.486c-.32.104-.678.156-1.076.156h-7.169c-.569 0-.974-.138-1.219-.413zm30.689.278v-8.928c0-.091.045-.138.135-.138h.865c.091 0 .136.047.136.138v8.928c0 .091-.045.135-.136.135h-.865c-.09 0-.135-.044-.135-.135zm-21.199-1.317c.231-.268.345-.725.345-1.377 0-.595-.114-1.06-.345-1.395-.229-.332-.598-.501-1.102-.501-.48 0-.841.164-1.083.488-.244.325-.366.769-.366 1.328 0 .667.114 1.145.345 1.428.229.286.598.426 1.104.426.504 0 .873-.132 1.102-.397zm13.495.33a.7.7 0 00.376-.237.97.97 0 00.185-.472c.031-.206.047-.465.047-.78 0-.335-.034-.633-.102-.893a1.549 1.549 0 00-.345-.665 1.56 1.56 0 00-.65-.413c-.27-.094-.608-.143-1.013-.143-.27 0-.545.026-.826.075a7.02 7.02 0 00-.818.198c-.265.08-.517.171-.756.27a8.62 8.62 0 00-.657.299v2.179c0 .226-.021.442-.065.649h4c.252 0 .46-.02.624-.067zM21.252 34.18v-.99c0-.088.044-.135.135-.135h.92c.088 0 .135.047.135.135v.99c0 .088-.047.135-.135.135h-.92c-.091 0-.135-.047-.135-.135z" fill="#D46934" fill-rule="nonzero" stroke="none"/><path d="M34.856 20.462c-.023-.016-.239-.13-.314-.177 0 0 2.028-1.943 2.047-1.917 0 0 .358.356.465.501l-2.198 1.593zm-.717 4.158c-.161.11-.364.221-.61.325a6.555 6.555 0 01-.845.291c-.709.195-1.608.348-2.688.387-.19.008-.387.011-.593.011h-.08a14.617 14.617 0 01-1.502-.084l-.27-.031a10.541 10.541 0 01-1.428-.283 6.502 6.502 0 01-.842-.291 3.435 3.435 0 01-.613-.325c-.286-.192-.439-.381-.439-.529 0-.148.151-.338.439-.53a8.142 8.142 0 001.626.532c.566.125 1.182.213 1.813.265.187.018.377.029.567.036.238.013.477.019.719.019h.01c.398 0 .793-.016 1.185-.044.036-.003.073-.006.114-.011a13.214 13.214 0 001.813-.265 8.122 8.122 0 001.624-.532c.288.192.442.382.442.53 0 .148-.154.337-.442.529m-4.736 3.305c-.828 0-1.566-.065-2.205-.167-1.036-.168-1.805-.436-2.307-.711-.428-.237-.654-.478-.66-.663l-.002-.002c0-.151.153-.338.441-.533.406.19.873.348 1.385.476a14.053 14.053 0 00.577.124 13.88 13.88 0 001.662.213l.244.016c.289.015.577.023.865.023 1.762 0 3.533-.288 4.736-.852.288.195.442.382.442.533 0 .522-1.829 1.543-5.178 1.543m-6.234-6.224a1.15 1.15 0 00-.005.104v1.626l-1.891-1.891 10.074-10.071 5.127 5.128-3.138 3.137c-1.124-.358-2.532-.542-3.933-.542-3.039 0-6.112.862-6.234 2.509m15.355-3.073c-.013-.021-.556-.766-.922-1.273l.285-.286a.665.665 0 000-.945l-6.07-6.071a.689.689 0 00-.943 0L19.86 21.07a.662.662 0 000 .943l3.304 3.304v1.065c0 1.711 3.14 2.608 6.239 2.608 3.102 0 6.243-.897 6.243-2.608v-4.847l2.73-1.975a.665.665 0 00.148-.932z" fill="#666" fill-rule="nonzero" stroke="none"/></g></svg>