<svg xmlns="http://www.w3.org/2000/svg" width="93.346" height="69.516"><g data-name="HR 1"><g data-name="SCth Logo2-01"><path data-name="Path 1029" d="M.163 60.138a3.424 3.424 0 00.144.576 1.535 1.535 0 00.283.5 1.342 1.342 0 00.49.356 1.86 1.86 0 00.754.134h1.143l-.288-.508a4.348 4.348 0 01-.379-.706.533.533 0 01-.043-.187.635.635 0 01.1-.345.954.954 0 01.245-.264 1.126 1.126 0 01.33-.168 1.172 1.172 0 01.355-.057.837.837 0 01.37.086.76.76 0 01.3.279l-.01-.01 1.037 1.883h.076v.615h-.315l-1.152-2a.7.7 0 00-.2-.279.362.362 0 00-.221-.086.343.343 0 00-.254.1.322.322 0 00-.1.235.386.386 0 00.058.2v-.01q.268.471.528.922t.528.913H2.106a2.534 2.534 0 01-.927-.149 1.773 1.773 0 01-.615-.384 1.427 1.427 0 01-.341-.528 1.705 1.705 0 01-.106-.581 2.794 2.794 0 01.014-.3q.014-.134.034-.269zm1.287 3.141a.322.322 0 01.091-.23.3.3 0 01.226-.1.31.31 0 01.235.1.337.337 0 010 .461.312.312 0 01-.235.1.3.3 0 01-.226-.1.324.324 0 01-.091-.231zm.9 0a.328.328 0 01.327-.326.3.3 0 01.225.1.337.337 0 010 .461.3.3 0 01-.225.1.328.328 0 01-.324-.335z" fill="#df6727"/><path data-name="Path 1030" d="M4.936 62.318v-.615h1.4q.029-.307.053-.648t.053-.648l.538-.279-.106 1.574h.144v.615zm1.441-3.323a.325.325 0 01.106-.245.339.339 0 01.24-.1.346.346 0 01.254.1.333.333 0 01.1.245.345.345 0 01-.355.356.353.353 0 01-.345-.358z" fill="#df6727"/><path data-name="Path 1031" d="M8.576 60.436h4.4a1.155 1.155 0 01.37.063 1.277 1.277 0 01.341.173.939.939 0 01.25.264.624.624 0 01.1.336v1.047H6.886v-.615H8.01l.144-4.687.538-.28zm4.917 1.268a.713.713 0 00-.076-.36.5.5 0 00-.192-.192.747.747 0 00-.26-.081 2.228 2.228 0 00-.288-.02h-4.12l-.019.653z" fill="#df6727"/><path data-name="Path 1032" d="M15.664 62.221a1.247 1.247 0 01-.389-.265 1.233 1.233 0 01-.264-1.349 1.253 1.253 0 01.653-.654 1.193 1.193 0 01.48-.1 1.11 1.11 0 01.845.346 1.474 1.474 0 01.384.884 1.885 1.885 0 01.019.24 1.166 1.166 0 00.01.163.653.653 0 00.01.125v.086h.076v.624h-.144a4 4 0 01-.192.716 2.342 2.342 0 01-.312.581 1.81 1.81 0 01-.427.413 1.213 1.213 0 01-.528.2 1.5 1.5 0 00.274-.3 3.19 3.19 0 00.264-.442 3.5 3.5 0 00.216-.552 3.133 3.133 0 00.12-.619h-.614a1.2 1.2 0 01-.481-.097zm-.174-1.115a.539.539 0 00.192.432.687.687 0 00.461.163h.653v-.6a.655.655 0 00-1.114-.466.624.624 0 00-.192.472z" fill="#df6727"/><path data-name="Path 1033" d="M18.535 56.431q.152-.076.259-.139l.24-.14.2 6.166h-1.88v-.615h1.354z" fill="#df6727"/><path data-name="Path 1034" d="M20.29 56.44l.274-.144c.087-.045.174-.093.264-.145q-.048 1.383-.1 2.733t-.1 2.723v.2a1.521 1.521 0 00.019.269.354.354 0 00.076.173 1.011 1.011 0 01-.375.106q-.135 0-.187-.207a2.874 2.874 0 01-.062-.6z" fill="#df6727"/><path data-name="Path 1035" d="M25.988 59.86l.567-.279.182 2.737h-2.67a1.351 1.351 0 01-.614-.135 1.791 1.791 0 01-.471-.336 2.265 2.265 0 01-.341-.432 2.711 2.711 0 01-.216-.432 2.834 2.834 0 00.7.5 1.974 1.974 0 00.932.221h2.084zm-2.238-.605a.328.328 0 11.1.231.317.317 0 01-.1-.231zm.461-.711a.312.312 0 01.317-.317.324.324 0 01.23.092.3.3 0 01.1.226.33.33 0 01-.1.236.31.31 0 01-.23.1.3.3 0 01-.226-.1.341.341 0 01-.092-.235zm.442.711a.328.328 0 01.327-.326.3.3 0 01.226.1.337.337 0 010 .461.3.3 0 01-.226.1.328.328 0 01-.327-.335z" fill="#df6727"/><path data-name="Path 1036" d="M27.819 56.44l.274-.144q.13-.067.264-.145-.048 1.383-.1 2.733t-.1 2.723v.2a1.55 1.55 0 00.019.269.35.35 0 00.076.173 1.016 1.016 0 01-.375.106q-.134 0-.187-.207a2.852 2.852 0 01-.062-.6z" fill="#df6727"/><path data-name="Path 1037" d="M31.414 60.301l.528-.279.221 1.681h.076v.615h-1.95a4.513 4.513 0 01-.057.6 1.565 1.565 0 01-.187.528 1.348 1.348 0 01-.375.413 1.378 1.378 0 01-.619.231 2.517 2.517 0 00.437-.635 2.207 2.207 0 00.206-1.008 4.74 4.74 0 00-.034-.514c-.022-.2-.046-.4-.072-.609l-.072-.566a9.648 9.648 0 01-.043-.375l.327-.192.307-.183.135 1.7h1.373zm-.749-1.114a.328.328 0 11.1.23.315.315 0 01-.1-.23zm.9 0a.328.328 0 11.1.23.313.313 0 01-.097-.23z" fill="#df6727"/><path data-name="Path 1038" d="M33.277 56.431q.152-.076.259-.139l.24-.14.2 6.166h-1.883v-.615h1.354z" fill="#df6727"/><path data-name="Path 1039" d="M35.035 56.44l.274-.144q.13-.067.264-.145-.048 1.383-.1 2.733t-.1 2.723v.2a1.527 1.527 0 00.019.269.351.351 0 00.076.173 1.013 1.013 0 01-.375.106q-.134 0-.187-.207a2.843 2.843 0 01-.062-.6z" fill="#df6727"/><path data-name="Path 1040" d="M38.953 61.617v.144a1.044 1.044 0 01-.019.182 4.162 4.162 0 01-.159.85 2.911 2.911 0 01-.307.7 1.728 1.728 0 01-.451.495 1.32 1.32 0 01-.591.24 1.634 1.634 0 00.293-.322 3.013 3.013 0 00.279-.485 3.574 3.574 0 00.216-.609 3.471 3.471 0 00.106-.677 1.159 1.159 0 01-.635.182 1.2 1.2 0 01-.48-.1 1.246 1.246 0 01-.389-.265 1.232 1.232 0 01-.264-1.349 1.253 1.253 0 01.653-.653 1.2 1.2 0 01.48-.1 1.11 1.11 0 01.845.346 1.474 1.474 0 01.384.883 1.888 1.888 0 01.019.24 1.2 1.2 0 00.01.163.655.655 0 00.01.135zm-1.921-.509a.612.612 0 00.192.457.667.667 0 00.927 0 .622.622 0 00.187-.457.655.655 0 00-1.114-.466.624.624 0 00-.193.466z" fill="#df6727"/><path data-name="Path 1041" d="M41.484 62.275a1.524 1.524 0 01-.457-.149.858.858 0 01-.327-.3.883.883 0 01-.125-.49 1.347 1.347 0 01.12-.557 1.413 1.413 0 01.365-.485 1.959 1.959 0 01.615-.356 2.981 2.981 0 01.879-.168q-.019-.192-.034-.437t-.025-.457a5.121 5.121 0 00.586-.317c.077-.051.148-.1.212-.144l-.279 3.285h.211v.615h-1.239a3.051 3.051 0 01-.502-.04zm.994-.582l.086-1.325h-.25a1.807 1.807 0 00-.375.043 1.339 1.339 0 00-.38.144.914.914 0 00-.293.26.628.628 0 00-.115.379.5.5 0 00.168.384.806.806 0 00.552.154zm-.461-4.168a.293.293 0 01.1-.226.342.342 0 01.236-.091.311.311 0 01.317.317.339.339 0 01-.091.235.293.293 0 01-.226.1.345.345 0 01-.336-.336zm.912 0a.312.312 0 01.317-.317.323.323 0 01.231.091.3.3 0 01.1.226.332.332 0 01-.1.235.307.307 0 01-.231.1.293.293 0 01-.226-.1.34.34 0 01-.095-.234z" fill="#df6727"/><path data-name="Path 1042" d="M47.384 61.703a4.653 4.653 0 01-.85-.341 5.8 5.8 0 01-.782-.485 5.526 5.526 0 01-.668-.576 4.036 4.036 0 01-.5-.615q.182-.211.288-.322c.071-.074.154-.165.25-.274l.038-.038a4.534 4.534 0 00.552.937 4.119 4.119 0 00.869.845 4.53 4.53 0 001.205.62 4.952 4.952 0 001.57.25c-.032.1-.067.205-.106.308s-.073.2-.105.307h-6.021v-.615z" fill="#df6727"/><path data-name="Path 1043" d="M50.19 62.318q-.049-1.509-.1-2.944t-.087-2.944l.279-.139c.083-.042.17-.088.26-.139l.183 5.551h.076v.615z" fill="#df6727"/><path data-name="Path 1044" d="M50.728 62.318v-.615h1.546l-.183-.922-.182-.922q.134-.076.26-.144c.083-.046.166-.094.249-.145l.355 2.133h.087v.615zm.394 1a.31.31 0 01.1-.235.321.321 0 01.23-.091.3.3 0 01.226.091.318.318 0 01.091.235.311.311 0 01-.317.317.323.323 0 01-.23-.091.3.3 0 01-.101-.227zm.9 0a.309.309 0 01.1-.235.337.337 0 01.461 0 .31.31 0 01.1.235.3.3 0 01-.1.226.338.338 0 01-.461 0 .3.3 0 01-.097-.227z" fill="#df6727"/><path data-name="Path 1045" d="M52.754 61.703h1.46q-.019-.374-.048-.8t-.058-.812l.245-.139c.073-.042.152-.085.236-.13q.019.519.043.965t.053.917h.72l.152-2.006q.135-.077.264-.139a4.22 4.22 0 00.264-.139l-.144 2.285h.74q.038-.576.086-1.2t.1-1.2c.1-.051.185-.1.269-.139s.17-.088.259-.139l-.179 2.68h.048v.615h-4.506z" fill="#df6727"/><path data-name="Path 1046" d="M57.153 62.319v-.615h1.383l.192-5.272.529-.279-.183 5.551h.144v.615z" fill="#df6727"/><path data-name="Path 1047" d="M60.264 56.431q.152-.076.259-.139l.24-.14.2 6.166h-1.882v-.615h1.354z" fill="#df6727"/><path data-name="Path 1048" d="M63.487 62.275a1.527 1.527 0 01-.457-.149.859.859 0 01-.327-.3.879.879 0 01-.125-.49 1.36 1.36 0 01.12-.557 1.418 1.418 0 01.365-.485 1.956 1.956 0 01.615-.356 2.981 2.981 0 01.879-.168q-.019-.192-.034-.437t-.024-.457a5.131 5.131 0 00.586-.317c.077-.051.147-.1.211-.144l-.279 3.285h.211v.615h-1.236a3.05 3.05 0 01-.505-.04zm.994-.582l.087-1.325h-.25a1.805 1.805 0 00-.375.043 1.338 1.338 0 00-.379.144.913.913 0 00-.293.26.624.624 0 00-.115.379.5.5 0 00.168.384.806.806 0 00.552.154zm-.461-4.168a.294.294 0 01.1-.226.341.341 0 01.235-.091.312.312 0 01.317.317.338.338 0 01-.092.235.292.292 0 01-.225.1.345.345 0 01-.336-.336zm.913 0a.311.311 0 01.317-.317.323.323 0 01.231.091.3.3 0 01.1.226.332.332 0 01-.1.235.307.307 0 01-.231.1.293.293 0 01-.226-.1.339.339 0 01-.092-.235z" fill="#df6727"/><path data-name="Path 1049" d="M65.124 61.703h1.364a.915.915 0 01-.029-.153 2.66 2.66 0 00-.024-.173 1.576 1.576 0 01-.019-.158c0-.048-.005-.085-.005-.111a1.194 1.194 0 01.1-.48 1.294 1.294 0 01.259-.389 1.188 1.188 0 01.389-.264 1.238 1.238 0 01.956 0 1.254 1.254 0 01.653.653 1.2 1.2 0 01.1.48 1.17 1.17 0 01-.1.47 1.194 1.194 0 01-.264.385 1.3 1.3 0 01-.389.259 1.183 1.183 0 01-.48.1h-2.507zm1.865-.613a.593.593 0 00.182.431.6.6 0 00.442.183.623.623 0 00.615-.615.615.615 0 00-.183-.452.592.592 0 00-.432-.183.6.6 0 00-.442.183.613.613 0 00-.182.453z" fill="#df6727"/><path data-name="Path 1050" d="M69.779 62.318q-.047-1.509-.1-2.944t-.086-2.944l.279-.139a6.23 6.23 0 00.259-.139l.182 5.551h.076v.615z" fill="#df6727"/><path data-name="Path 1051" d="M70.291 62.318v-.615h2.133q-.231-.422-.375-.759t-.225-.581a3.872 3.872 0 01-.115-.4q-.034-.159-.043-.236l.643-.346q.01.135.034.356a3.725 3.725 0 00.106.533q.082.312.226.706t.365.864q.25-.47.4-.845t.24-.662a3.381 3.381 0 00.115-.5 2.715 2.715 0 00.029-.356v-.135l.6.317a.113.113 0 01.01.048.1.1 0 01.01.043v.062a1.424 1.424 0 01-.029.25 2.863 2.863 0 01-.111.389 5.042 5.042 0 01-.23.542q-.149.308-.389.711h1.016v.615z" fill="#df6727"/><path data-name="Path 1052" d="M75.745 56.431c.1-.051.188-.1.259-.139l.24-.14.2 6.166h-1.883v-.615h1.354z" fill="#df6727"/><path data-name="Path 1053" d="M77.503 56.44l.274-.144c.087-.045.174-.093.264-.145q-.048 1.383-.1 2.733t-.1 2.723v.2a1.55 1.55 0 00.019.269.359.359 0 00.076.173 1.013 1.013 0 01-.374.106c-.09 0-.152-.069-.187-.207a2.882 2.882 0 01-.062-.6z" fill="#df6727"/><path data-name="Path 1054" d="M80.572 62.275a1.525 1.525 0 01-.457-.149.855.855 0 01-.327-.3.883.883 0 01-.125-.49 1.356 1.356 0 01.12-.557 1.419 1.419 0 01.365-.485 1.959 1.959 0 01.615-.356 2.986 2.986 0 01.879-.168q-.02-.192-.034-.437c-.009-.163-.018-.316-.024-.457a5.117 5.117 0 00.586-.317l.211-.144-.279 3.285h.211v.615h-1.239a3.044 3.044 0 01-.502-.04zm.994-.582l.086-1.325h-.25a1.809 1.809 0 00-.375.043 1.348 1.348 0 00-.378.145.912.912 0 00-.292.26.624.624 0 00-.115.379.5.5 0 00.168.384.8.8 0 00.552.154zm-.461-4.168a.294.294 0 01.1-.226.342.342 0 01.235-.091.311.311 0 01.317.317.338.338 0 01-.091.235.293.293 0 01-.226.1.345.345 0 01-.336-.336zm.913 0a.311.311 0 01.317-.317.323.323 0 01.23.091.3.3 0 01.1.226.33.33 0 01-.1.235.306.306 0 01-.23.1.294.294 0 01-.226-.1.337.337 0 01-.096-.234z" fill="#df6727"/><path data-name="Path 1055" d="M82.209 62.318v-.615h1.393q.038-.326.076-.7t.076-.7l.519-.279-.135 1.681h.087v.615zm.384-2.872h1.546a1.441 1.441 0 01-.01-.192v-.2h-.23a.543.543 0 01-.408-.135.431.431 0 01-.13-.307q0-.385.787-.384l-.375-.23h-.106a.993.993 0 00-.523.13.375.375 0 00-.216.322.666.666 0 00.111.345.627.627 0 00.4.26h-.7z" fill="#df6727"/><path data-name="Path 1056" d="M84.101 62.318v-.615h1.546l-.182-.922q-.096-.49-.183-.922c.09-.051.176-.1.259-.144s.166-.094.25-.145l.355 2.133h.087v.615zm.394 1a.31.31 0 01.1-.235.321.321 0 01.231-.091.306.306 0 01.226.091.32.32 0 01.091.235.311.311 0 01-.317.317.323.323 0 01-.231-.091.3.3 0 01-.105-.227zm.9 0a.308.308 0 01.1-.235.337.337 0 01.461 0 .31.31 0 01.1.235.3.3 0 01-.1.226.338.338 0 01-.461 0 .3.3 0 01-.1-.226z" fill="#df6727"/><path data-name="Path 1057" d="M88.586 63.721a1.087 1.087 0 01-.49-.116 1.291 1.291 0 01-.4-.307 1.454 1.454 0 01-.264-.447 1.484 1.484 0 01-.1-.533h-1.21v-.611h1.172a1.348 1.348 0 01-.02-.226v-.216a1.942 1.942 0 01.039-.394.787.787 0 01.139-.316.694.694 0 01.288-.216 1.2 1.2 0 01.476-.082h.854c-.019-.128-.038-.275-.058-.442s-.039-.318-.058-.451l.274-.145a1.914 1.914 0 00.226-.134 2.11 2.11 0 00.2-.144l.087 2.766h.211v.614h-.173c0 .019-.006.1-.02.25a1.508 1.508 0 01-.134.48 1.3 1.3 0 01-.36.466 1.032 1.032 0 01-.679.204zm-.749-2.017h1.383l-.1-.855h-.874c-.186 0-.3.044-.355.13a.582.582 0 00-.076.3zm.749 1.5a.694.694 0 00.375-.086.589.589 0 00.279-.447c.007-.08.01-.142.01-.187v-.163h-1.373a1.123 1.123 0 00.038.279.964.964 0 00.125.288.785.785 0 00.22.226.572.572 0 00.326.088z" fill="#df6727"/><path data-name="Path 1058" d="M90.997 56.431c.1-.051.188-.1.259-.139l.24-.14.2 6.166h-1.883v-.615h1.354z" fill="#df6727"/><path data-name="Path 1059" d="M92.753 56.44l.274-.144c.086-.045.175-.093.264-.145q-.048 1.383-.1 2.733t-.1 2.723v.2a1.5 1.5 0 00.019.269.349.349 0 00.077.173 1.021 1.021 0 01-.375.106q-.135 0-.187-.207a2.865 2.865 0 01-.062-.6z" fill="#df6727"/><path data-name="Path 1060" d="M1.723 66.127c-.029.048-.069.12-.119.217a2.027 2.027 0 01-.085.191.039.039 0 01-.035.019l-.209-.076a1.084 1.084 0 00-.348-.076q-.4 0-.4.351 0 .2.279.341.471.245.521.282a.733.733 0 01.279.6.9.9 0 01-.384.766 1.4 1.4 0 01-.848.252c-.156 0-.24-.017-.252-.052q-.009-.082-.039-.24l-.054-.2a.118.118 0 01-.007-.037c0-.02.011-.03.033-.03s.088 0 .159.011.125.011.162.011q.672 0 .672-.434a.442.442 0 00-.271-.369q-.494-.282-.505-.293a.726.726 0 01-.273-.594.835.835 0 01.265-.646.957.957 0 01.668-.234 1.668 1.668 0 01.4.056 1.108 1.108 0 01.369.153.088.088 0 01.022.031z" fill="#df6727"/><path data-name="Path 1061" d="M4.163 66.988a.233.233 0 01-.006.039 5.22 5.22 0 00-.085.857q0 .022.054.974v.03c0 .042-.018.063-.058.063a1.709 1.709 0 00-.18.014 1.755 1.755 0 01-.178.014c-.027 0-.048-.051-.063-.152s-.028-.153-.041-.153a.566.566 0 00-.117.085 1.292 1.292 0 01-.239.158.754.754 0 01-.343.086.9.9 0 01-.709-.336 1.117 1.117 0 01-.274-.747 1.163 1.163 0 01.275-.8.963.963 0 01.759-.328.825.825 0 01.579.23l.115.127a.022.022 0 00.013.007c.009 0 .021-.046.037-.137s.036-.137.061-.137a1.382 1.382 0 01.219.032c.122.031.181.054.181.074zm-.553.907a.7.7 0 00-.158-.457.526.526 0 00-.427-.206.547.547 0 00-.434.2.685.685 0 00-.167.46.673.673 0 00.168.455.549.549 0 00.434.2.532.532 0 00.425-.207.683.683 0 00.159-.445z" fill="#df6727"/><path data-name="Path 1062" d="M6.525 66.983q0 .159-.013.478t-.013.48q0 .158.01.474c.007.211.01.368.01.474a.054.054 0 01-.041.056h-.44c-.017 0-.028-.054-.031-.163s-.012-.163-.025-.163a.065.065 0 00-.033.02 1.1 1.1 0 01-.716.315.621.621 0 01-.633-.347 2.133 2.133 0 01-.1-.772 3.866 3.866 0 01.08-.852q.02-.085.072-.085h.378c.029 0 .043.016.043.048a2.288 2.288 0 01-.028.282 2.933 2.933 0 00-.033.3c0 .086-.007.182-.007.286a1.546 1.546 0 00.054.51.4.4 0 00.414.234.587.587 0 00.323-.135c.132-.094.2-.184.2-.271q.011-.163.011-1.146c0-.071.03-.106.089-.106h.358c.05.008.071.032.071.083z" fill="#df6727"/><path data-name="Path 1063" d="M9.052 65.925c0 .187-.008.465-.025.838s-.025.651-.025.836q0 .857.037 1.3v.028c0 .015-.018.024-.058.028a.784.784 0 01-.117 0l-.085-.007c-.022 0-.053 0-.1.007s-.074.006-.1.006-.032-.051-.036-.15a.428.428 0 00-.016-.152.114.114 0 00-.033.028.911.911 0 01-.683.321.9.9 0 01-.72-.334 1.135 1.135 0 01-.267-.759 1.151 1.151 0 01.269-.776.921.921 0 01.735-.331.751.751 0 01.477.161c.062.053.123.108.184.163a.029.029 0 00.017-.031v-.7q0-.072-.007-.217c0-.1-.006-.17-.006-.219s.011-.052.035-.052c.054 0 .133 0 .239-.014s.184-.014.236-.014c.041-.005.049.01.049.04zm-.542 1.974a.707.707 0 00-.16-.458.529.529 0 00-.425-.21.547.547 0 00-.44.208.7.7 0 00-.165.469.662.662 0 00.171.453.553.553 0 00.434.2.532.532 0 00.429-.206.709.709 0 00.155-.456z" fill="#df6727"/><path data-name="Path 1064" d="M10.001 66.357q0 .267-.3.267t-.3-.267a.247.247 0 01.093-.2.33.33 0 01.418 0 .246.246 0 01.089.2zm-.015.587q0 .167-.021.5a8.933 8.933 0 00-.014.98c.007.21.007.367.006.472 0 .03-.013.045-.039.045h-.423c-.03 0-.045-.03-.045-.089q0-.15.007-.45t.008-.452c0-.112-.008-.282-.025-.508s-.026-.4-.026-.508c0-.026.015-.037.046-.037a1.047 1.047 0 01.12.011.7.7 0 00.245 0 1.086 1.086 0 01.123-.011c.026.007.038.021.038.048z" fill="#df6727"/><path data-name="Path 1065" d="M13.923 68.449a.138.138 0 01-.041.074 1.329 1.329 0 01-1.047.489 1.278 1.278 0 01-1.041-.475 1.851 1.851 0 01.006-2.215 1.282 1.282 0 011.043-.482 1.235 1.235 0 011.017.444.139.139 0 01.034.076.763.763 0 01-.115.218c-.077.121-.123.181-.139.181s-.063-.036-.132-.106a1.167 1.167 0 00-.241-.2.818.818 0 00-.412-.106.779.779 0 00-.668.328 1.22 1.22 0 00-.212.736 1.264 1.264 0 00.211.744.77.77 0 00.666.336.854.854 0 00.41-.106 1.192 1.192 0 00.265-.2.827.827 0 01.124-.106 2.438 2.438 0 01.274.364z" fill="#df6727"/><path data-name="Path 1066" d="M16.124 67.895a1.1 1.1 0 01-.3.775 1.024 1.024 0 01-1.507 0 1.152 1.152 0 010-1.545 1.034 1.034 0 011.505 0 1.069 1.069 0 01.302.77zm-.457 0a.662.662 0 00-.163-.451.543.543 0 00-.429-.2.549.549 0 00-.432.2.706.706 0 000 .9.558.558 0 00.859 0 .672.672 0 00.162-.452z" fill="#df6727"/><path data-name="Path 1067" d="M19.726 68.873c0 .057-.016.085-.051.085s-.055 0-.1-.006-.078-.007-.1-.007h-.222c-.03 0-.046-.034-.046-.1s0-.166.008-.3.008-.231.008-.3v-.612a.544.544 0 00-.091-.308.406.406 0 00-.3-.091.534.534 0 00-.308.13.391.391 0 00-.184.269 15.68 15.68 0 00-.009.618q0 .106.009.319t.009.319c0 .039-.013.058-.039.058s-.064 0-.114-.006-.088-.007-.114-.007h-.2c-.021 0-.044-.021-.044-.062q0-.1.007-.313t.007-.313v-.522a.757.757 0 00-.059-.349.328.328 0 00-.314-.148.658.658 0 00-.326.116q-.208.127-.208.253v1.278c0 .042-.016.063-.051.063h-.4c-.029 0-.043-.02-.043-.058v-1.056a3.768 3.768 0 00-.085-.792.194.194 0 01-.007-.045c0-.019.007-.03.02-.033.053-.005.131-.017.234-.032a2.029 2.029 0 01.215-.048h.017c.017 0 .034.051.049.152s.029.152.04.152l.108-.1a1.314 1.314 0 01.256-.176.791.791 0 01.369-.1.594.594 0 01.635.408 1.1 1.1 0 01.334-.286.837.837 0 01.421-.122.615.615 0 01.555.234 1.049 1.049 0 01.11.548v.443q0 .136.007.411t-.003.436z" fill="#df6727"/><path data-name="Path 1068" d="M23.453 68.873c0 .057-.017.085-.051.085s-.055 0-.1-.006-.078-.007-.1-.007h-.222c-.03 0-.045-.034-.045-.1s0-.166.008-.3.008-.231.008-.3v-.612a.549.549 0 00-.091-.308.407.407 0 00-.3-.091.533.533 0 00-.308.13.392.392 0 00-.184.269 13.88 13.88 0 00-.009.618q0 .106.009.319t.009.319c0 .039-.013.058-.039.058s-.064 0-.114-.006-.088-.007-.114-.007h-.2c-.021 0-.043-.021-.043-.062q0-.1.007-.313t.006-.313v-.522a.76.76 0 00-.058-.349.329.329 0 00-.315-.148.656.656 0 00-.325.116q-.208.127-.208.253v1.278c0 .042-.016.063-.051.063h-.4c-.029 0-.043-.02-.043-.058v-1.056a3.764 3.764 0 00-.085-.792.211.211 0 01-.006-.045c0-.019.006-.03.019-.033.054-.005.132-.017.234-.032a2.021 2.021 0 01.215-.048h.017q.026 0 .049.152c.015.1.028.152.04.152l.108-.1a1.32 1.32 0 01.256-.176.791.791 0 01.369-.1.594.594 0 01.635.408 1.1 1.1 0 01.334-.286.837.837 0 01.421-.122.614.614 0 01.555.234 1.044 1.044 0 01.111.548v.443q0 .136.006.411t-.005.436z" fill="#df6727"/><path data-name="Path 1069" d="M24.447 66.356q0 .267-.3.267c-.2 0-.3-.089-.3-.267a.248.248 0 01.094-.2.331.331 0 01.417 0 .247.247 0 01.089.2zm-.015.588q0 .167-.021.5t-.021.506q0 .158.006.474c0 .21.007.368.007.472 0 .03-.013.045-.039.045h-.423c-.031 0-.046-.03-.046-.089 0-.1 0-.25.007-.45s.008-.351.008-.452-.008-.282-.025-.508-.025-.4-.025-.508c0-.025.015-.037.045-.037a1 1 0 01.12.011.688.688 0 00.245 0 .943.943 0 01.123-.011c.026.006.038.02.038.047z" fill="#df6727"/><path data-name="Path 1070" d="M25.876 68.283a.618.618 0 01-.258.518.916.916 0 01-.571.178.851.851 0 01-.147-.006c-.025-.012-.037-.047-.037-.106a1.31 1.31 0 00-.012-.143 1.241 1.241 0 01-.012-.141c0-.019.013-.031.039-.037a.261.261 0 01.08 0l.065.007q.41 0 .41-.252 0-.119-.18-.219a3.282 3.282 0 01-.336-.2.5.5 0 01-.18-.4.6.6 0 01.245-.508.918.918 0 01.559-.163.045.045 0 01.044.028 1.442 1.442 0 01.054.176 1.092 1.092 0 01.04.177c0 .016-.014.025-.041.031l-.279.037c-.111.031-.167.092-.167.182q0 .1.176.2a2.121 2.121 0 01.33.21.575.575 0 01.178.431z" fill="#df6727"/><path data-name="Path 1071" d="M27.203 68.283a.617.617 0 01-.258.518.915.915 0 01-.57.178.851.851 0 01-.147-.006c-.025-.012-.037-.047-.037-.106a1.28 1.28 0 00-.012-.143 1.213 1.213 0 01-.012-.141c0-.019.013-.031.039-.037a.261.261 0 01.08 0l.065.007q.41 0 .41-.252 0-.119-.18-.219a3.282 3.282 0 01-.336-.2.506.506 0 01-.18-.4.6.6 0 01.245-.508.918.918 0 01.559-.163.046.046 0 01.045.028 1.485 1.485 0 01.054.176 1.131 1.131 0 01.04.177c0 .016-.014.025-.041.031l-.279.037c-.111.031-.167.092-.167.182q0 .1.176.2a2.115 2.115 0 01.33.21.573.573 0 01.176.431z" fill="#df6727"/><path data-name="Path 1072" d="M28.079 66.357q0 .267-.3.267t-.3-.267a.247.247 0 01.093-.2.33.33 0 01.417 0 .245.245 0 01.09.2zm-.015.587q0 .167-.021.5a8.722 8.722 0 00-.014.98c.006.21.006.367.006.472 0 .03-.013.045-.039.045h-.423c-.031 0-.046-.03-.046-.089q0-.15.008-.45t.007-.452c0-.112-.008-.282-.025-.508s-.025-.4-.025-.508c0-.026.015-.037.045-.037a1.055 1.055 0 01.12.011.7.7 0 00.245 0 1.083 1.083 0 01.123-.011c.027.007.039.021.039.048z" fill="#df6727"/><path data-name="Path 1073" d="M30.458 67.895a1.1 1.1 0 01-.3.775 1.024 1.024 0 01-1.507 0 1.153 1.153 0 010-1.545 1.034 1.034 0 011.505 0 1.078 1.078 0 01.302.77zm-.457 0a.663.663 0 00-.163-.451.543.543 0 00-.43-.2.549.549 0 00-.432.2.705.705 0 000 .9.558.558 0 00.859 0 .673.673 0 00.162-.452z" fill="#df6727"/><path data-name="Path 1074" d="M32.675 68.908c0 .031-.015.047-.043.047h-.427c-.025 0-.039-.021-.039-.062q0-.106.007-.323t.007-.325v-.519a.633.633 0 00-.072-.35.371.371 0 00-.321-.121.638.638 0 00-.3.121c-.135.084-.2.161-.2.229v1.3c0 .036-.014.054-.041.054h-.416c-.03 0-.045-.016-.045-.051 0-.115 0-.285.005-.514s.006-.4.006-.516a3.505 3.505 0 00-.1-.853.106.106 0 01-.006-.028c0-.014.01-.025.028-.03l.249-.04c.155-.025.237-.038.244-.038s.014.012.017.035a1.385 1.385 0 00.051.271q.113-.088.3-.221a.85.85 0 01.44-.138.61.61 0 01.559.237 1.075 1.075 0 01.111.561v.848c0 .193-.013.328-.014.426z" fill="#df6727"/><path data-name="Path 1075" d="M35.315 66.17c0 .017-.013.027-.039.03l-.21.02a.307.307 0 00-.189.087.992.992 0 00-.106.584h.457c.035 0 .052.013.052.04v.36c0 .039-.014.042-.043.042-.051 0-.127 0-.229-.008s-.178-.008-.229-.008v.647c0 .1 0 .255.011.46s.011.358.011.46c0 .039-.014.059-.043.059h-.4q-.056 0-.056-.067v-1.492c0-.04-.044-.058-.132-.057a.389.389 0 01-.152-.01.221.221 0 01-.007-.08v-.284c0-.032.092-.051.276-.061 0-.093-.006-.167-.007-.225a.927.927 0 01.136-.562.8.8 0 01.356-.251 1.194 1.194 0 01.436-.082.032.032 0 01.03.024l.038.183.039.191z" fill="#df6727"/><path data-name="Path 1076" d="M37.468 67.895a1.1 1.1 0 01-.3.775 1.024 1.024 0 01-1.507 0 1.152 1.152 0 010-1.545 1.034 1.034 0 011.505 0 1.078 1.078 0 01.302.77zm-.457 0a.66.66 0 00-.163-.451.543.543 0 00-.429-.2.55.55 0 00-.432.2.706.706 0 000 .9.558.558 0 00.859 0 .673.673 0 00.162-.452z" fill="#df6727"/><path data-name="Path 1077" d="M39.014 66.914a2.665 2.665 0 01-.032.434c0 .033-.019.05-.043.05s-.076 0-.137-.01a1.35 1.35 0 00-.14-.01q-.274 0-.349.154a1.04 1.04 0 00-.046.388v.239q0 .121.01.368c.007.165.01.287.01.369 0 .039-.016.058-.051.058h-.4c-.033 0-.051-.018-.051-.054q0-.175.005-.529t.005-.532a3.037 3.037 0 00-.1-.861.1.1 0 010-.026.037.037 0 01.028-.036l.226-.026c.156-.029.229-.044.217-.044.023 0 .039.042.046.127s.02.127.039.127h.011l.178-.113a.819.819 0 01.2-.087.747.747 0 01.217-.025q.157-.006.157.039z" fill="#df6727"/><path data-name="Path 1078" d="M42.385 66.32c0 .037-.013.056-.039.056s-.3-.008-.767-.025q-.02.661-.02 1.06 0 .249.018.749t.019.749c0 .03-.021.045-.063.045-.025 0-.066 0-.119-.007s-.094-.006-.122-.006-.066 0-.119.006-.094.007-.119.007a.05.05 0 01-.041-.014.048.048 0 01-.014-.04q0-.248.021-.743t.021-.745q0-.386-.024-1.06-.558.034-.82.035c-.017 0-.025-.007-.025-.022a.479.479 0 01.019-.113l.028-.113a1.794 1.794 0 01.031-.21.038.038 0 01.037-.028h.025q.767.046 1.012.046.217 0 .709-.033a2.63 2.63 0 00.279-.021c.038 0 .058.013.063.039a1.4 1.4 0 000 .21c0 .019 0 .048.006.088s.004.067.004.09z" fill="#df6727"/><path data-name="Path 1079" d="M44.608 67.895a1.1 1.1 0 01-.3.775 1.024 1.024 0 01-1.507 0 1.152 1.152 0 010-1.545 1.034 1.034 0 011.505 0 1.076 1.076 0 01.302.77zm-.457 0a.662.662 0 00-.162-.451.543.543 0 00-.429-.2.55.55 0 00-.432.2.705.705 0 000 .9.559.559 0 00.859 0 .673.673 0 00.162-.452z" fill="#df6727"/><path data-name="Path 1080" d="M46.922 66.983q0 .159-.013.478t-.013.48q0 .158.01.474c.007.211.01.368.01.474a.054.054 0 01-.041.056h-.44c-.017 0-.028-.054-.032-.163s-.012-.163-.025-.163a.065.065 0 00-.032.02 1.1 1.1 0 01-.716.315.62.62 0 01-.633-.347 2.132 2.132 0 01-.1-.772 3.881 3.881 0 01.08-.852q.02-.085.072-.085h.378c.029 0 .043.016.043.048a2.271 2.271 0 01-.029.282q-.03.21-.032.3c0 .086-.006.182-.006.286a1.55 1.55 0 00.054.51.4.4 0 00.414.234.586.586 0 00.323-.135c.132-.094.2-.184.2-.271q.011-.163.011-1.146c0-.071.029-.106.089-.106h.358c.05.008.07.032.07.083z" fill="#df6727"/><path data-name="Path 1081" d="M48.605 66.914a2.651 2.651 0 01-.032.434c0 .033-.019.05-.043.05s-.076 0-.138-.01a1.34 1.34 0 00-.14-.01q-.273 0-.349.154a1.057 1.057 0 00-.045.388v.239q0 .121.01.368c.006.165.01.287.01.369 0 .039-.017.058-.051.058h-.4c-.033 0-.051-.018-.051-.054q0-.175.005-.529t.006-.532a3.022 3.022 0 00-.1-.861.128.128 0 010-.026.037.037 0 01.028-.036l.225-.026q.234-.044.217-.044c.023 0 .038.043.046.127s.02.127.039.127h.011l.178-.113a.817.817 0 01.2-.087.749.749 0 01.217-.025c.1-.005.157.009.157.039z" fill="#df6727"/><path data-name="Path 1082" d="M49.407 66.357q0 .267-.3.267t-.3-.267a.247.247 0 01.093-.2.33.33 0 01.417 0 .245.245 0 01.09.2zm-.015.587q0 .167-.021.5a8.933 8.933 0 00-.014.98c.007.21.006.367.006.472 0 .03-.013.045-.039.045h-.423c-.031 0-.045-.03-.045-.089q0-.15.007-.45t.007-.452c0-.112-.008-.282-.025-.508s-.025-.4-.025-.508c0-.026.015-.037.046-.037a1.041 1.041 0 01.12.011.7.7 0 00.245 0 1.083 1.083 0 01.123-.011c.026.007.038.021.038.048z" fill="#df6727"/><path data-name="Path 1083" d="M50.838 68.283a.619.619 0 01-.259.518.914.914 0 01-.57.178.853.853 0 01-.148-.006c-.025-.012-.037-.047-.037-.106a1.28 1.28 0 00-.012-.143 1.3 1.3 0 01-.012-.141c0-.019.013-.031.039-.037a.262.262 0 01.081 0l.065.007q.41 0 .41-.252 0-.119-.18-.219a3.345 3.345 0 01-.336-.2.5.5 0 01-.18-.4.6.6 0 01.245-.508.918.918 0 01.558-.163.046.046 0 01.045.028 1.51 1.51 0 01.055.176 1.1 1.1 0 01.04.177c0 .016-.013.026-.041.031l-.279.037c-.111.031-.167.092-.167.182q0 .1.176.2a2.128 2.128 0 01.331.21.583.583 0 01.176.431z" fill="#df6727"/><path data-name="Path 1084" d="M54.446 68.873c0 .057-.017.085-.051.085s-.055 0-.1-.006-.078-.007-.1-.007h-.221c-.03 0-.046-.034-.046-.1s0-.166.008-.3.008-.231.008-.3v-.612a.547.547 0 00-.091-.308.406.406 0 00-.3-.091.534.534 0 00-.308.13.391.391 0 00-.184.269 13.88 13.88 0 00-.009.618c0 .071 0 .177.009.319s.009.248.009.319c0 .039-.013.058-.039.058s-.064 0-.114-.006-.088-.007-.114-.007h-.2c-.021 0-.044-.021-.044-.062q0-.1.007-.313t.006-.313v-.522a.755.755 0 00-.059-.349.328.328 0 00-.314-.148.657.657 0 00-.325.116q-.208.127-.208.253v1.278c0 .042-.017.063-.051.063h-.4c-.029 0-.043-.02-.043-.058v-1.056a3.764 3.764 0 00-.085-.792.237.237 0 01-.006-.045c0-.019.006-.03.02-.033.053-.005.131-.017.234-.032a2.048 2.048 0 01.215-.048h.017q.026 0 .049.152c.016.1.029.152.041.152l.108-.1a1.315 1.315 0 01.256-.176.793.793 0 01.369-.1.594.594 0 01.635.408 1.107 1.107 0 01.334-.286.837.837 0 01.421-.122.613.613 0 01.555.234 1.045 1.045 0 01.111.548v.443q0 .136.006.411c-.011.205-.008.342-.006.436z" fill="#df6727"/><path data-name="Path 1085" d="M58.734 68.588a.733.733 0 01-.005.074.754.754 0 00-.006.076v.124c0 .059-.034.089-.1.089h-.348a.744.744 0 01-.395-.137 1.328 1.328 0 01-.314-.283 1.774 1.774 0 01-.4.355 1 1 0 01-.518.132.672.672 0 01-.531-.23.8.8 0 01-.193-.553.935.935 0 01.2-.607 1.816 1.816 0 01.519-.406 1.6 1.6 0 01-.127-.559.834.834 0 01.193-.579.726.726 0 01.562-.219.815.815 0 01.488.143.512.512 0 01.223.438.721.721 0 01-.256.544 3.3 3.3 0 01-.525.35 4.076 4.076 0 00.4.563 2.25 2.25 0 01.381-.4.9.9 0 01.529-.147.42.42 0 01.121.011.091.091 0 01.057.1.6.6 0 01-.1.343 6.254 6.254 0 01-.2.015.655.655 0 00-.191.046.907.907 0 00-.358.313 1.191 1.191 0 00.31.267.864.864 0 00.4.078h.106c.054.006.078.026.078.059zm-1.384-.316a5.083 5.083 0 01-.529-.707.746.746 0 00-.412.626.42.42 0 00.1.291.354.354 0 00.279.122.8.8 0 00.562-.332zm.241-1.8a.257.257 0 00-.083-.2.305.305 0 00-.21-.073.32.32 0 00-.36.364 1.585 1.585 0 00.093.475 2.6 2.6 0 00.355-.223.448.448 0 00.205-.348z" fill="#df6727"/><path data-name="Path 1086" d="M62.884 65.956q0 .25-.017.753t-.019.756v1.416q0 .071-.054.071c-.022 0-.054 0-.1-.006a.968.968 0 00-.1-.006c-.021 0-.059 0-.106.006s-.083.006-.106.006-.057-.024-.094-.071q-.468-.632-1.421-1.883-.147-.191-.171-.213c-.014 0-.021.03-.021.089q0 .334.011 1c.007.446.011.781.011 1 0 .047-.015.071-.043.071s-.062 0-.113-.006-.088-.006-.113-.006-.065 0-.116.006-.09.006-.116.006-.054-.014-.054-.043q0-.239.023-.719t.023-.721q0-.263-.02-.946c0-.119-.01-.3-.021-.533v-.028c0-.022.016-.033.052-.035.094 0 .167 0 .221-.009a1.141 1.141 0 00.115-.017.725.725 0 01.113-.013c.013 0 .035.021.067.063q.5.685 1.527 2.039c.03.038.058.07.084.1a3.265 3.265 0 00.016-.417q0-.282-.021-.846t-.021-.844c0-.048.015-.072.043-.072s.066 0 .118.007.092.006.118.006.069 0 .124-.006.1-.007.124-.007a.042.042 0 01.057.052z" fill="#df6727"/><path data-name="Path 1087" d="M65.448 66.988a.318.318 0 01-.006.039 5.211 5.211 0 00-.085.857q0 .022.054.974v.03c0 .042-.018.063-.057.063a1.7 1.7 0 00-.18.014 1.755 1.755 0 01-.178.014c-.028 0-.048-.051-.063-.152s-.028-.153-.041-.153a.566.566 0 00-.118.085 1.277 1.277 0 01-.238.158.749.749 0 01-.343.086.9.9 0 01-.709-.336 1.119 1.119 0 01-.274-.747 1.163 1.163 0 01.275-.8.963.963 0 01.759-.328.825.825 0 01.579.23c.024.029.063.071.115.127a.02.02 0 00.013.007c.009 0 .021-.046.037-.137s.036-.137.061-.137a1.377 1.377 0 01.219.032c.12.031.18.054.18.074zm-.553.907a.7.7 0 00-.158-.458.527.527 0 00-.427-.206.547.547 0 00-.434.2.681.681 0 00-.167.459.67.67 0 00.167.456.547.547 0 00.434.2.53.53 0 00.425-.206.684.684 0 00.161-.45z" fill="#df6727"/><path data-name="Path 1088" d="M67.01 68.551a1.278 1.278 0 01-.009.13l-.013.133a.2.2 0 01-.006.048.1.1 0 01-.042.031 1.388 1.388 0 01-.559.084q-.508 0-.508-.46 0-.184.009-.554t.009-.554a.085.085 0 00-.022-.068.086.086 0 00-.067-.027h-.158c-.03-.007-.046-.066-.046-.177a1.132 1.132 0 01.009-.132c0-.035.028-.056.07-.063s.072 0 .106 0c.067 0 .1-.032.1-.089s0-.146-.005-.264-.006-.208-.006-.267c0-.106.021-.159.061-.159q.019 0 .407.067c.033 0 .051.02.051.048 0 .064 0 .159-.014.286s-.014.223-.014.286c0 .042.02.063.059.063h.52c.025 0 .037.009.037.025a.737.737 0 01-.008.083.77.77 0 00-.008.086v.2c0 .022-.02.041-.06.041-.058 0-.146 0-.263-.012s-.2-.012-.262-.012c-.012 0-.021.041-.026.124q-.01.155-.011.432v.323a.673.673 0 00.035.26.212.212 0 00.215.113.979.979 0 00.2-.029.954.954 0 01.193-.029c.017-.006.026.007.026.033z" fill="#df6727"/><path data-name="Path 1089" d="M67.886 66.356q0 .267-.3.267c-.2 0-.3-.089-.3-.267a.249.249 0 01.094-.2.331.331 0 01.417 0 .246.246 0 01.089.2zm-.015.588q0 .167-.021.5t-.021.506q0 .158.007.474c0 .21.006.368.007.472q0 .045-.04.045h-.423c-.031 0-.046-.03-.046-.089 0-.1 0-.25.008-.45s.008-.351.008-.452-.008-.282-.025-.508-.025-.4-.025-.508c0-.025.016-.037.046-.037a1 1 0 01.121.011.69.69 0 00.245 0 .926.926 0 01.122-.011c.022.006.034.02.034.047z" fill="#df6727"/><path data-name="Path 1090" d="M70.264 67.895a1.1 1.1 0 01-.3.775 1.024 1.024 0 01-1.507 0 1.152 1.152 0 010-1.545 1.034 1.034 0 011.505 0 1.076 1.076 0 01.302.77zm-.457 0a.659.659 0 00-.163-.451.54.54 0 00-.429-.2.55.55 0 00-.432.2.706.706 0 000 .9.559.559 0 00.859 0 .673.673 0 00.163-.452z" fill="#df6727"/><path data-name="Path 1091" d="M72.475 68.908c0 .031-.014.047-.043.047h-.427c-.025 0-.039-.021-.039-.062 0-.071 0-.178.006-.323s.007-.253.007-.325v-.519a.632.632 0 00-.072-.35.37.37 0 00-.321-.121.636.636 0 00-.3.121c-.135.084-.2.161-.2.229v1.3c0 .036-.014.054-.041.054h-.416c-.03 0-.045-.016-.045-.051 0-.115 0-.285.005-.514s.005-.4.005-.516a3.493 3.493 0 00-.1-.853.106.106 0 01-.006-.028c0-.014.01-.025.029-.03l.248-.04c.156-.025.237-.038.244-.038s.014.012.017.035a1.412 1.412 0 00.051.271q.114-.088.3-.221a.853.853 0 01.441-.138.612.612 0 01.559.237 1.082 1.082 0 01.111.561v.848c0 .193-.007.328-.013.426z" fill="#df6727"/><path data-name="Path 1092" d="M75 66.988a.283.283 0 01-.007.039 5.174 5.174 0 00-.085.857q0 .022.055.974v.031c0 .042-.018.063-.057.063a1.711 1.711 0 00-.18.014 1.683 1.683 0 01-.179.014q-.041 0-.062-.152c-.015-.1-.028-.152-.042-.152a.556.556 0 00-.117.084 1.277 1.277 0 01-.238.158.758.758 0 01-.343.087.9.9 0 01-.709-.336 1.119 1.119 0 01-.273-.748 1.161 1.161 0 01.276-.8.962.962 0 01.759-.328.824.824 0 01.579.229q.037.044.115.127a.02.02 0 00.013.006c.009 0 .021-.046.037-.137s.036-.136.061-.136a1.275 1.275 0 01.219.032c.119.031.178.054.178.074zm-.553.907a.7.7 0 00-.158-.457.528.528 0 00-.427-.206.545.545 0 00-.433.2.685.685 0 00-.168.461.674.674 0 00.167.455.55.55 0 00.434.2.531.531 0 00.426-.207.683.683 0 00.16-.451z" fill="#df6727"/><path data-name="Path 1093" d="M75.901 65.942v.028q-.048.807-.048 1.386 0 .257.009.773t.009.771c0 .033-.012.051-.035.051h-.414c-.026 0-.039-.017-.039-.051v-1.544c0-.157-.008-.391-.023-.7s-.023-.547-.023-.7c0-.029.015-.043.046-.043s.065 0 .117.007.091.006.117.006.068 0 .121-.006.093-.007.119-.007.047.006.044.029z" fill="#df6727"/><path data-name="Path 1094" d="M80.181 68.902c0 .033-.022.051-.065.051-.025 0-.062 0-.114-.007s-.09-.006-.116-.006-.069 0-.125.006-.1.007-.124.007a.045.045 0 01-.039-.013.044.044 0 01-.012-.038q0-.2.012-.586t.012-.585c0-.056-.017-.089-.051-.1s-.293-.017-.75-.017-.707.006-.75.017-.048.042-.048.1c0 .127 0 .319.011.575s.011.447.011.575c0 .047-.018.071-.054.071s-.069 0-.124-.006-.1-.006-.124-.006-.065 0-.116.006-.09.006-.116.006-.054-.016-.054-.051q0-.239.023-.717t.023-.717q0-.251-.023-.755t-.023-.756c0-.032.018-.048.054-.048s.066 0 .119.007.094.006.122.006.066 0 .121-.006.1-.007.121-.007.051.013.051.04c0 .124-.005.311-.016.561s-.016.436-.016.561c0 .041.015.065.045.073a6.457 6.457 0 00.764.02 6.581 6.581 0 00.759-.02c.033-.008.051-.039.051-.093 0-.122 0-.3-.012-.549s-.012-.427-.012-.549c0-.029.017-.043.051-.043s.068 0 .121.007.093.006.12.006.065 0 .117-.006.091-.007.117-.007.057.016.057.048q0 .252-.022.756t-.022.755q0 .24.024.717t.022.717z" fill="#df6727"/><path data-name="Path 1095" d="M82.459 67.785a.209.209 0 01-.139.214q-.094.035-1.343.127a.486.486 0 00.21.325.616.616 0 00.373.127 1.007 1.007 0 00.629-.221l.069-.056a.05.05 0 01.023 0s.03.053.082.151a1.435 1.435 0 01.076.157c0 .009-.012.026-.035.051a1.188 1.188 0 01-1.62.038 1.092 1.092 0 01-.3-.8 1.157 1.157 0 01.287-.778.946.946 0 01.74-.345.886.886 0 01.681.3 1.012 1.012 0 01.267.71zm-.517-.132a.433.433 0 00-.142-.319.446.446 0 00-.32-.139.482.482 0 00-.355.16.5.5 0 00-.155.359c0 .031.025.046.078.046a5.545 5.545 0 00.769-.065q.126-.016.126-.04z" fill="#df6727"/><path data-name="Path 1096" d="M84.003 66.914a2.749 2.749 0 01-.033.434c0 .033-.019.05-.043.05s-.076 0-.137-.01a1.354 1.354 0 00-.14-.01q-.274 0-.349.154a1.038 1.038 0 00-.046.388v.239c0 .081 0 .2.01.368s.01.287.01.369c0 .039-.017.058-.051.058h-.4c-.033 0-.051-.018-.051-.054 0-.117 0-.293.005-.529s.005-.413.005-.532a3.017 3.017 0 00-.1-.861.128.128 0 010-.026.037.037 0 01.028-.036l.226-.026q.235-.044.217-.044c.023 0 .038.043.045.127s.02.127.039.127a.026.026 0 00.011 0l.177-.113a.831.831 0 01.2-.087.747.747 0 01.217-.025c.104-.005.16.009.16.039z" fill="#df6727"/><path data-name="Path 1097" d="M84.805 66.356q0 .267-.3.267c-.2 0-.3-.089-.3-.267a.247.247 0 01.093-.2.331.331 0 01.417 0 .246.246 0 01.09.2zm-.015.588q0 .167-.021.5t-.021.506q0 .158.007.474c0 .21.006.368.006.472q0 .045-.039.045h-.423c-.03 0-.045-.03-.045-.089 0-.1 0-.25.008-.45s.008-.351.008-.452-.008-.282-.026-.508-.025-.4-.025-.508c0-.025.015-.037.046-.037a1.007 1.007 0 01.12.011.688.688 0 00.245 0 .941.941 0 01.123-.011c.024.006.037.02.037.047z" fill="#df6727"/><path data-name="Path 1098" d="M86.428 68.551c0 .032 0 .076-.008.13s-.011.112-.013.133a.176.176 0 01-.006.048.094.094 0 01-.041.031 1.383 1.383 0 01-.559.084q-.508 0-.508-.46 0-.184.009-.554t.009-.554a.086.086 0 00-.089-.1h-.158c-.03-.007-.045-.066-.045-.177a.953.953 0 01.009-.132c0-.035.027-.056.069-.063s.072 0 .107 0c.066 0 .1-.032.1-.089s0-.146-.006-.264-.005-.208-.005-.267c0-.106.02-.159.061-.159q.019 0 .408.067c.033 0 .051.02.051.048 0 .064 0 .159-.014.286s-.014.223-.014.286c0 .042.019.063.058.063h.521c.025 0 .037.009.037.025a.737.737 0 01-.008.083.716.716 0 00-.008.086v.2c0 .022-.02.041-.061.041-.058 0-.145 0-.262-.012s-.2-.012-.262-.012q-.018 0-.025.124-.011.155-.011.432v.323a.676.676 0 00.034.26.212.212 0 00.215.113.982.982 0 00.2-.029.954.954 0 01.193-.029c.014-.001.022.012.022.038z" fill="#df6727"/><path data-name="Path 1099" d="M88.846 66.988a.225.225 0 01-.006.039 5.2 5.2 0 00-.085.857l.054.974v.03c0 .042-.018.063-.058.063a1.717 1.717 0 00-.18.014 1.651 1.651 0 01-.177.014q-.041 0-.063-.152c-.014-.1-.028-.152-.041-.152a.545.545 0 00-.117.084 1.3 1.3 0 01-.239.158.755.755 0 01-.343.087.9.9 0 01-.709-.336 1.119 1.119 0 01-.273-.748 1.161 1.161 0 01.275-.8.961.961 0 01.759-.328.824.824 0 01.579.229c.025.029.063.072.115.127a.021.021 0 00.013.006c.009 0 .021-.045.037-.137s.036-.136.061-.136a1.325 1.325 0 01.219.033c.12.031.179.054.179.074zm-.552.908a.7.7 0 00-.159-.457.526.526 0 00-.427-.207.546.546 0 00-.433.2.684.684 0 00-.167.459.673.673 0 00.167.456.549.549 0 00.433.2.532.532 0 00.425-.206.688.688 0 00.161-.444z" fill="#df6727"/><path data-name="Path 1100" d="M91.11 66.93v1.564a1.115 1.115 0 01-.221.762.948.948 0 01-.742.26 1.509 1.509 0 01-.8-.186c-.032-.02-.048-.038-.048-.051q0 .024.065-.321c0-.025.014-.037.03-.037a.065.065 0 01.028.011 1.3 1.3 0 00.653.187.622.622 0 00.356-.1.355.355 0 00.162-.314c0-.03 0-.1-.009-.2a.756.756 0 01-.611.293.848.848 0 01-.66-.289.991.991 0 01-.247-.683 1.062 1.062 0 01.239-.7.817.817 0 01.661-.308.678.678 0 01.568.275c.023.03.04.046.051.046s.017-.013.017-.039v-.183c0-.087.008-.13.026-.13s.092.013.234.04a1.98 1.98 0 01.232.049c.006.004.016.023.016.054zm-.52.894a.65.65 0 00-.132-.412.483.483 0 00-.762 0 .694.694 0 000 .818.475.475 0 00.755 0 .636.636 0 00.137-.409z" fill="#df6727"/><path data-name="Path 1101" d="M93.346 67.786a.208.208 0 01-.139.214q-.093.034-1.342.127a.487.487 0 00.21.325.618.618 0 00.373.127 1 1 0 00.629-.221l.069-.056a.048.048 0 01.023 0s.031.053.081.15a1.381 1.381 0 01.076.158c0 .009-.011.025-.035.051a1.093 1.093 0 01-1.92-.764 1.155 1.155 0 01.286-.778.946.946 0 01.74-.345.884.884 0 01.681.3 1.01 1.01 0 01.268.712zm-.516-.132a.436.436 0 00-.142-.319.447.447 0 00-.32-.138.486.486 0 00-.355.16.5.5 0 00-.155.36c0 .03.025.045.078.045a5.461 5.461 0 00.768-.065c.084-.012.125-.026.125-.042z" fill="#df6727"/><path data-name="Path 1102" d="M48.701 51.098a13.1 13.1 0 00-1.056-1.967 25.716 25.716 0 00-3.86-4.683c-3.411-3.306-9.7-7.761-20.287-10.214l.1-.42a50.482 50.482 0 0112.714 4.691 35.45 35.45 0 017.8 5.653 26.067 26.067 0 013.916 4.764 13.193 13.193 0 011.081 2.02z" fill="#df6727"/><path data-name="Path 1103" d="M47.361 42.498c-4.241-4.016-10.489-6.049-14.984-7.046a53.638 53.638 0 00-8.9-1.214l.076-.431a53.713 53.713 0 018.917 1.224 43.352 43.352 0 017.888 2.505 25.164 25.164 0 017.3 4.649z" fill="#f1292f"/><path data-name="Path 1104" d="M47.294 42.519c0-.065-.259-6.736-1.134-13.257a56.53 56.53 0 00-1.847-9.152 13.1 13.1 0 00-1.352-3.1 2.576 2.576 0 00-1.58-1.3c-.787-.131-1.67.451-2.627 1.731a31.518 31.518 0 00-3.542 7.11l-.4-.155c2.493-6.46 4.665-9.441 6.643-9.111a2.968 2.968 0 011.871 1.493 13.526 13.526 0 011.4 3.208 56.986 56.986 0 011.863 9.226c.877 6.541 1.135 13.23 1.137 13.3z" fill="#1aab4b"/><path data-name="Path 1105" d="M35.18 24.623l-.4-.219a47.729 47.729 0 015.085-6.411 24.9 24.9 0 015.071-4.206 9.23 9.23 0 015.741-1.543 7.194 7.194 0 014.459 2.421 19.719 19.719 0 013.8 6.949l-.408.142c-1.971-5.651-4.63-8.708-7.9-9.083a8.817 8.817 0 00-5.471 1.485 24.492 24.492 0 00-4.98 4.133 45.641 45.641 0 00-4.997 6.332z" fill="#1966b3"/><path data-name="Path 1106" d="M58.609 21.883a46.524 46.524 0 00-5.716-6.345c-3.051-2.784-7.6-5.993-11.944-5.477-3.7.44-6.726 3.494-9 9.078l-.4-.163a19.534 19.534 0 014.337-6.886 8.733 8.733 0 015.012-2.458 11.407 11.407 0 016.523 1.442 27.111 27.111 0 015.768 4.15 46.949 46.949 0 015.77 6.406z" fill="#50a6c6"/><path data-name="Path 1107" d="M31.869 19.251l-.347-.269a41.842 41.842 0 015.2-5.823 27.672 27.672 0 015.441-4 14.05 14.05 0 016.491-1.885c3.777-.051 7.172 1.917 10.091 5.848l-.346.259c-2.8-3.766-6.026-5.675-9.6-5.675h-.136c-4.52.061-8.823 3.17-11.639 5.768a41.265 41.265 0 00-5.155 5.777z" fill="#df6727"/><path data-name="Path 1108" d="M58.491 13.441a53.113 53.113 0 00-7.106-4.426c-3.631-1.863-8.77-3.834-12.642-2.646-2.314.711-3.956 2.485-4.881 5.274l-.41-.136c.971-2.93 2.708-4.8 5.164-5.551a12.1 12.1 0 016.443.116 31 31 0 016.527 2.562 52.775 52.775 0 017.164 4.478z" fill="#f1292f"/><path data-name="Path 1109" d="M33.74 11.798l-.307-.3a55.729 55.729 0 016.082-5.169 28.821 28.821 0 015.481-3.22 9.085 9.085 0 015.389-.852c1.817.4 3.14 1.717 3.936 3.914l-.406.147c-.741-2.048-1.96-3.272-3.622-3.638a8.689 8.689 0 00-5.128.827 28.352 28.352 0 00-5.4 3.174 55.045 55.045 0 00-6.025 5.117z" fill="#1966b3"/><path data-name="Path 1110" d="M54.118 6.491a19.612 19.612 0 00-11.052-3.178 22.444 22.444 0 00-5.445.668l-.119-.415a22.955 22.955 0 015.561-.686 21.93 21.93 0 015.4.616 18.387 18.387 0 015.9 2.639z" fill="#f8b91b"/><path data-name="Path 1111" d="M52.188 27.105a32.02 32.02 0 01-.776-3.426 135.064 135.064 0 00-3.415-14C46.137 3.915 44.18.814 42.18.461c-1.408-.248-3 1.047-4.533 3.564l-.369-.224a11.19 11.19 0 012.592-3.1 3.092 3.092 0 012.385-.662 3.673 3.673 0 011.847 1.016 9.659 9.659 0 011.614 2.108 32.383 32.383 0 012.692 6.387 135.655 135.655 0 013.428 14.044c.343 1.695.614 3.033.748 3.338z" fill="#8e63a7"/><path data-name="Path 1112" d="M42.92 54.927a38.381 38.381 0 01-.338-9.22c.2-3.7.652-7.9 1.319-12.161a100.926 100.926 0 012.318-11.12c.943-3.357 1.86-5.423 2.725-6.139a.984.984 0 011.06-.227c.612.26 1.115 1.242 1.54 3a54.719 54.719 0 011.055 8.011l-.431.033c-.651-8.616-1.742-10.4-2.334-10.649-.069-.029-.278-.118-.616.162-.548.454-1.441 1.849-2.585 5.923a100.139 100.139 0 00-2.308 11.07c-1.424 9.094-1.81 17.424-.985 21.222z" fill="#1966b3"/><path data-name="Path 1113" d="M43.261 55.08l-.4-.158c.005-.012.576-1.393 1.595-3.263a43.7 43.7 0 014.752-7 33.986 33.986 0 018.289-7.273 26.9 26.9 0 0112.131-3.933l.032.432c-9.583.714-16.226 6.4-20.111 11.043a43.257 43.257 0 00-4.706 6.93c-1.013 1.847-1.577 3.209-1.582 3.222z" fill="#50a6c6"/><path data-name="Path 1114" d="M48.966 51.248l-.378-.208a33.48 33.48 0 016.069-7.857 45.885 45.885 0 016.9-5.465 48.123 48.123 0 018.082-4.28l.155.4a47.855 47.855 0 00-8.01 4.244c-3.99 2.605-9.448 7.02-12.818 13.166z" fill="#f8b91b"/></g></g></svg>