<svg xmlns="http://www.w3.org/2000/svg" width="297" height="574"><defs><clipPath id="a"><path data-name="Rectangle 565" transform="translate(51 1149)" fill="#fff" stroke="#707070" d="M0 0h297v574H0z"/></clipPath></defs><g data-name="Mask Group 11" transform="translate(-51 -1149)" clip-path="url(#a)"><g data-name="art side-01" opacity=".2"><path data-name="Path 1480" d="M348.3 1604.101v.169l-113.228 100.131 113.228-73.35v1.24l-107.918 74.646 107.918-55.42v1.748l-103.208 56.492 103.208-41.72v2.03l-99 42.792 99-30.952v2.142l-95.593 32.136 95.593-22.158v2.255l-92.787 23.51 92.787-14.715v2.26l-88.078 15.73H138.778L50.7 1707.389v-2.252l92.787 14.715-92.787-23.515v-2.255l95.593 22.155-95.593-32.133v-2.142l99 30.952-99-42.849v-2.028l103.208 41.72L50.7 1653.321v-1.748l107.918 55.364L50.7 1632.291v-1.24l113.228 73.35L50.7 1604.27v-.169l119.04 98.157L75.55 1592.6l100.3 107.911-70.84-115.074 77.355 113.72-46.593-118.848 53.408 118-21.744-121.16 28.558 120.709 3.506-121.721 3.507 121.724 28.558-120.709-21.744 121.16 53.408-118-46.594 118.9 77.356-113.718-70.943 115.016 100.4-107.911-94.188 109.659 119.04-98.157zm0 111.293l-85.472 7.668H298.5l49.8-5.412v-2.255zm-212.128 7.668l-85.472-7.667v2.255l49.8 5.412z" fill="#b2b2b2" fill-rule="evenodd" opacity=".2"/><g data-name="Group 922"><g data-name="Group 918"><g data-name="Group 912"><g data-name="Group 890" fill="#fff"><path data-name="Path 1481" d="M215.8 1304.4a51.9 51.9 0 1151.9-51.9 51.853 51.853 0 01-51.9 51.9zm-8.1 44.8h16.1a10.926 10.926 0 0010.9-10.9v-9.3a78.976 78.976 0 0021.8-9l6.5 6.5a10.986 10.986 0 0015.4 0l11.4-11.4a10.986 10.986 0 000-15.4l-6.5-6.5a78.976 78.976 0 009-21.8h9.3a10.926 10.926 0 0010.9-10.9v-16.1a10.926 10.926 0 00-10.9-10.9h-9.3a78.976 78.976 0 00-9-21.8l6.5-6.5a10.986 10.986 0 000-15.4l-11.4-11.4a10.986 10.986 0 00-15.4 0l-6.5 6.5a78.976 78.976 0 00-21.8-9v-9.3a10.926 10.926 0 00-10.9-10.9h-16.1a10.926 10.926 0 00-10.9 10.9v9.3a78.976 78.976 0 00-21.8 9l-6.5-6.5a10.986 10.986 0 00-15.4 0l-11.4 11.5a10.986 10.986 0 000 15.4l6.5 6.5a78.976 78.976 0 00-9 21.8H130a10.926 10.926 0 00-10.9 10.9v16.1a10.926 10.926 0 0010.9 10.9h9.3a78.976 78.976 0 009 21.8l-6.5 6.5a10.986 10.986 0 000 15.4l11.4 11.4a10.986 10.986 0 0015.4 0l6.5-6.5a78.976 78.976 0 0021.8 9v9.3a10.755 10.755 0 0010.8 10.8z"/><path data-name="Path 1482" d="M124.7 1381.3a35.97 35.97 0 1119.7 46.9 35.965 35.965 0 01-19.7-46.9zm-26.6-16.9l-4.2 10.3a7.51 7.51 0 004.1 9.8l5.9 2.4a52.377 52.377 0 00.1 16.3l-5.9 2.5a7.611 7.611 0 00-4 9.9l4.3 10.3a7.611 7.611 0 009.9 4l5.9-2.5a55.016 55.016 0 0011.6 11.5l-2.4 5.9a7.51 7.51 0 004.1 9.8l10.3 4.2a7.51 7.51 0 009.8-4.1l2.4-5.9a52.377 52.377 0 0016.3-.1l2.5 5.9a7.611 7.611 0 009.9 4l10.3-4.3a7.611 7.611 0 004-9.9l-2.5-5.9a55.016 55.016 0 0011.5-11.6l5.9 2.4a7.51 7.51 0 009.8-4.1l4.2-10.3a7.51 7.51 0 00-4.1-9.8l-5.9-2.4a52.376 52.376 0 00-.1-16.3l5.9-2.5a7.611 7.611 0 004-9.9l-4.3-10.3a7.611 7.611 0 00-9.9-4l-5.9 2.5a55.016 55.016 0 00-11.6-11.5l2.4-5.9a7.51 7.51 0 00-4.1-9.8l-10.3-4.2a7.51 7.51 0 00-9.8 4.1l-2.4 5.9a52.376 52.376 0 00-16.3.1l-2.5-5.9a7.611 7.611 0 00-9.9-4l-10.3 4.3a7.611 7.611 0 00-4 9.9l2.5 5.9a55.016 55.016 0 00-11.5 11.6l-5.9-2.4a7.381 7.381 0 00-9.8 4.1z"/><path data-name="Path 1483" d="M216.8 1454.9a27.048 27.048 0 11-2 38.2 27.046 27.046 0 012-38.2zm-12.5-20.2l-6.3 5.6a5.681 5.681 0 00-.4 8l3.2 3.6a43.507 43.507 0 00-5.3 11.1l-4.8-.3a5.768 5.768 0 00-6 5.4l-.4 8.4a5.768 5.768 0 005.4 6l4.8.3a41.2 41.2 0 004.1 11.6l-3.6 3.2a5.681 5.681 0 00-.4 8l5.6 6.3a5.681 5.681 0 008 .4l3.6-3.2a43.506 43.506 0 0011.1 5.3l-.3 4.8a5.768 5.768 0 005.4 6l8.4.4a5.768 5.768 0 006-5.4l.3-4.8a41.2 41.2 0 0011.6-4.1l3.2 3.6a5.681 5.681 0 008 .4l6.3-5.6a5.681 5.681 0 00.4-8l-3.2-3.6a43.507 43.507 0 005.3-11.1l4.8.3a5.768 5.768 0 006-5.4l.4-8.4a5.768 5.768 0 00-5.4-6l-4.8-.3a41.2 41.2 0 00-4.1-11.6l3.6-3.2a5.681 5.681 0 00.4-8l-5.6-6.3a5.681 5.681 0 00-8-.4l-3.6 3.2a43.506 43.506 0 00-11.1-5.3l.3-4.8a5.768 5.768 0 00-5.4-6l-8.4-.4a5.768 5.768 0 00-6 5.4l-.3 4.8a41.2 41.2 0 00-11.6 4.1l-3.2-3.6a5.681 5.681 0 00-8-.4z"/></g><g data-name="Group 891" fill="#fdfdfd"><path data-name="Path 1484" d="M215.5 1304.1a51.9 51.9 0 1151.9-51.9 51.853 51.853 0 01-51.9 51.9zm-8.1 44.8h16.1a10.926 10.926 0 0010.9-10.9v-9.3a78.976 78.976 0 0021.8-9l6.5 6.5a10.986 10.986 0 0015.4 0l11.4-11.4a10.986 10.986 0 000-15.4l-6.5-6.5a78.976 78.976 0 009-21.8h9.3a10.926 10.926 0 0010.9-10.9v-16.1a10.926 10.926 0 00-10.9-10.9H292a78.976 78.976 0 00-9-21.8l6.5-6.5a10.986 10.986 0 000-15.4l-11.4-11.4a10.986 10.986 0 00-15.4 0l-6.5 6.5a78.976 78.976 0 00-21.8-9v-9.3a10.926 10.926 0 00-10.9-10.9h-16.1a10.926 10.926 0 00-10.9 10.9v9.3a78.976 78.976 0 00-21.8 9l-6.5-6.5a10.986 10.986 0 00-15.4 0l-11.4 11.4a10.986 10.986 0 000 15.4l6.5 6.5a78.976 78.976 0 00-9 21.8h-9.3a10.926 10.926 0 00-10.9 10.9v16.1a10.926 10.926 0 0010.9 10.9h9.3a78.976 78.976 0 009 21.8l-6.5 6.5a10.986 10.986 0 000 15.4l11.4 11.4a10.986 10.986 0 0015.4 0l6.5-6.5a78.976 78.976 0 0021.8 9v9.3a10.926 10.926 0 0010.9 10.9z"/><path data-name="Path 1485" d="M124.4 1380.9a35.97 35.97 0 1119.7 46.9 35.965 35.965 0 01-19.7-46.9zM97.8 1364l-4.2 10.3a7.51 7.51 0 004.1 9.8l5.9 2.4a52.377 52.377 0 00.1 16.3l-5.9 2.5a7.611 7.611 0 00-4 9.9l4.3 10.3a7.611 7.611 0 009.9 4l5.9-2.5a55.016 55.016 0 0011.6 11.5l-2.4 5.9a7.51 7.51 0 004.1 9.8l10.3 4.2a7.51 7.51 0 009.8-4.1l2.4-5.9a52.377 52.377 0 0016.3-.1l2.5 5.9a7.611 7.611 0 009.9 4l10.3-4.3a7.611 7.611 0 004-9.9l-2.5-5.9a55.016 55.016 0 0011.5-11.6l5.9 2.4a7.51 7.51 0 009.8-4.1l4.2-10.3a7.51 7.51 0 00-4.1-9.8l-5.9-2.4a52.376 52.376 0 00-.1-16.3l5.9-2.5a7.611 7.611 0 004-9.9l-4.3-10.3a7.611 7.611 0 00-9.9-4l-5.9 2.5a55.016 55.016 0 00-11.6-11.5l2.4-5.9a7.51 7.51 0 00-4.1-9.8l-10.3-4.2a7.51 7.51 0 00-9.8 4.1l-2.4 5.9a52.376 52.376 0 00-16.3.1l-2.5-5.9a7.611 7.611 0 00-9.9-4l-10.2 4.3a7.611 7.611 0 00-4 9.9l2.5 5.9a55.016 55.016 0 00-11.5 11.6l-5.9-2.4a7.622 7.622 0 00-9.9 4.1z"/><path data-name="Path 1486" d="M216.5 1454.5a27.048 27.048 0 11-2 38.2 27.046 27.046 0 012-38.2zm-12.5-20.2l-6.3 5.6a5.681 5.681 0 00-.4 8l3.2 3.6a43.507 43.507 0 00-5.3 11.1l-4.8-.3a5.768 5.768 0 00-6 5.4l-.4 8.4a5.768 5.768 0 005.4 6l4.8.3a41.2 41.2 0 004.1 11.6l-3.6 3.2a5.681 5.681 0 00-.4 8l5.6 6.3a5.681 5.681 0 008 .4l3.6-3.2a43.506 43.506 0 0011.1 5.3l-.3 4.8a5.768 5.768 0 005.4 6l8.4.4a5.768 5.768 0 006-5.4l.3-4.8a41.2 41.2 0 0011.6-4.1l3.2 3.6a5.681 5.681 0 008 .4l6.3-5.6a5.681 5.681 0 00.4-8l-3.2-3.6a43.507 43.507 0 005.3-11.1l4.8.3a5.768 5.768 0 006-5.4l.4-8.4a5.768 5.768 0 00-5.4-6l-4.8-.2a41.2 41.2 0 00-4.1-11.6l3.6-3.2a5.681 5.681 0 00.4-8l-5.6-6.3a5.681 5.681 0 00-8-.4l-3.6 3.2a43.506 43.506 0 00-11.1-5.3l.3-4.8a5.768 5.768 0 00-5.4-6l-8.4-.4a5.768 5.768 0 00-6 5.4l-.3 4.8a41.2 41.2 0 00-11.6 4.1l-3.2-3.6a5.689 5.689 0 00-8-.5z"/></g><g data-name="Group 892" fill="#fafafa"><path data-name="Path 1487" d="M215.1 1303.8a51.9 51.9 0 1151.9-51.9 51.853 51.853 0 01-51.9 51.9zm-8 44.8h16.1a10.926 10.926 0 0010.9-10.9v-9.3a78.976 78.976 0 0021.8-9l6.5 6.5a10.986 10.986 0 0015.4 0l11.4-11.4a10.986 10.986 0 000-15.4l-6.5-6.5a78.976 78.976 0 009-21.8h9.3a10.926 10.926 0 0010.9-10.9v-16.1a10.926 10.926 0 00-10.9-10.9h-9.3a78.976 78.976 0 00-9-21.8l6.5-6.5a10.986 10.986 0 000-15.4l-11.4-11.4a10.986 10.986 0 00-15.4 0l-6.5 6.5a78.976 78.976 0 00-21.8-9v-9.3a10.926 10.926 0 00-10.9-10.9h-16.1a10.926 10.926 0 00-10.9 10.9v9.3a78.976 78.976 0 00-21.8 9l-6.5-6.5a10.986 10.986 0 00-15.4 0l-11.4 11.4a10.986 10.986 0 000 15.4l6.5 6.5a78.976 78.976 0 00-9 21.8h-9.3a10.926 10.926 0 00-10.9 10.9v16.1a10.926 10.926 0 0010.9 10.9h9.3a78.976 78.976 0 009 21.8l-6.5 6.5a10.986 10.986 0 000 15.4l11.4 11.4a10.986 10.986 0 0015.4 0l6.5-6.5a78.976 78.976 0 0021.8 9v9.3a10.926 10.926 0 0010.9 10.9z"/><path data-name="Path 1488" d="M124.1 1380.6a35.97 35.97 0 1119.7 46.9 35.965 35.965 0 01-19.7-46.9zm-26.6-16.9l-4.2 10.3a7.51 7.51 0 004.1 9.8l5.9 2.4a52.377 52.377 0 00.1 16.3l-5.9 2.5a7.611 7.611 0 00-4 9.9l4.3 10.3a7.611 7.611 0 009.9 4l5.9-2.5a55.016 55.016 0 0011.6 11.5l-2.4 5.9a7.51 7.51 0 004.1 9.8l10.3 4.2a7.51 7.51 0 009.8-4.1l2.4-5.9a52.377 52.377 0 0016.3-.1l2.5 5.9a7.611 7.611 0 009.9 4l10.3-4.3a7.611 7.611 0 004-9.9l-2.5-5.9a55.016 55.016 0 0011.5-11.6l5.9 2.4a7.51 7.51 0 009.8-4.1l4.2-10.3a7.51 7.51 0 00-4.1-9.8l-5.9-2.4a52.376 52.376 0 00-.1-16.3l5.9-2.5a7.611 7.611 0 004-9.9l-4.3-10.3a7.611 7.611 0 00-9.9-4l-5.9 2.5a55.016 55.016 0 00-11.6-11.5l2.4-5.9a7.51 7.51 0 00-4.1-9.8l-10.3-4.2a7.51 7.51 0 00-9.8 4.1l-2.4 5.9a52.376 52.376 0 00-16.3.1l-2.5-5.9a7.611 7.611 0 00-9.9-4l-10.3 4.3a7.611 7.611 0 00-4 9.9l2.5 5.9a55.016 55.016 0 00-11.5 11.6l-5.9-2.4a7.509 7.509 0 00-9.8 4.1z"/><path data-name="Path 1489" d="M216.1 1454.2a27.048 27.048 0 11-2 38.2 27.046 27.046 0 012-38.2zm-12.5-20.2l-6.3 5.6a5.681 5.681 0 00-.4 8l3.2 3.6a43.507 43.507 0 00-5.3 11.1l-4.8-.3a5.768 5.768 0 00-6 5.4l-.4 8.4a5.768 5.768 0 005.4 6l4.8.3a41.2 41.2 0 004.1 11.6l-3.6 3.2a5.681 5.681 0 00-.4 8l5.6 6.3a5.681 5.681 0 008 .4l3.6-3.2a43.506 43.506 0 0011.1 5.3l-.3 4.8a5.768 5.768 0 005.4 6l8.4.4a5.768 5.768 0 006-5.4l.3-4.8a41.2 41.2 0 0011.6-4.1l3.2 3.6a5.681 5.681 0 008 .4l6.3-5.6a5.681 5.681 0 00.4-8l-3.2-3.6a43.507 43.507 0 005.3-11.1l4.8.3a5.768 5.768 0 006-5.4l.4-8.4a5.768 5.768 0 00-5.4-6l-4.8-.3a41.2 41.2 0 00-4.1-11.6l3.6-3.2a5.681 5.681 0 00.4-8l-5.6-6.3a5.681 5.681 0 00-8-.4l-3.6 3.2a43.506 43.506 0 00-11.1-5.3l.3-4.8a5.768 5.768 0 00-5.4-6l-8.4-.4a5.768 5.768 0 00-6 5.4l-.3 4.8a41.2 41.2 0 00-11.6 4.1l-3.2-3.6a5.671 5.671 0 00-8-.4z"/></g><g data-name="Group 893" fill="#f8f8f8"><path data-name="Path 1490" d="M214.8 1303.5a51.9 51.9 0 1151.9-51.9 51.853 51.853 0 01-51.9 51.9zm-8 44.8h16.1a10.926 10.926 0 0010.9-10.9v-9.3a78.976 78.976 0 0021.8-9l6.5 6.5a10.986 10.986 0 0015.4 0l11.4-11.4a10.986 10.986 0 000-15.4l-6.5-6.5a78.976 78.976 0 009-21.8h9.3a10.926 10.926 0 0010.9-10.9v-16.1a10.926 10.926 0 00-10.9-10.9h-9.3a78.976 78.976 0 00-9-21.8l6.5-6.5a10.986 10.986 0 000-15.4l-11.4-11.4a10.986 10.986 0 00-15.4 0l-6.5 6.5a78.976 78.976 0 00-21.8-9v-9.3a10.926 10.926 0 00-10.9-10.9h-16.1a10.926 10.926 0 00-10.9 10.9v9.3a78.976 78.976 0 00-21.8 9l-6.5-6.5a10.986 10.986 0 00-15.4 0l-11.5 11.4a10.986 10.986 0 000 15.4l6.5 6.5a78.976 78.976 0 00-9 21.8H129a10.926 10.926 0 00-10.9 10.9v16.1a10.926 10.926 0 0010.9 10.9h9.3a78.976 78.976 0 009 21.8l-6.5 6.5a10.986 10.986 0 000 15.4l11.4 11.4a10.986 10.986 0 0015.4 0l6.5-6.5a78.976 78.976 0 0021.8 9v9.3a10.926 10.926 0 0010.9 10.9z"/><path data-name="Path 1491" d="M123.7 1380.3a35.97 35.97 0 1119.7 46.9 35.965 35.965 0 01-19.7-46.9zm-26.6-16.9l-4.2 10.3a7.51 7.51 0 004.1 9.8l5.9 2.4a52.377 52.377 0 00.1 16.3l-5.9 2.5a7.611 7.611 0 00-4 9.9l4.3 10.3a7.611 7.611 0 009.9 4l5.9-2.5a55.016 55.016 0 0011.6 11.5l-2.4 5.9a7.51 7.51 0 004.1 9.8l10.3 4.2a7.51 7.51 0 009.8-4.1l2.4-5.9a52.377 52.377 0 0016.3-.1l2.5 5.9a7.611 7.611 0 009.9 4l10.3-4.3a7.611 7.611 0 004-9.9l-2.5-5.9a55.016 55.016 0 0011.5-11.6l5.9 2.4a7.51 7.51 0 009.8-4.1l4.2-10.3a7.51 7.51 0 00-4.1-9.8l-5.9-2.4a52.376 52.376 0 00-.1-16.3l5.9-2.5a7.611 7.611 0 004-9.9l-4.3-10.3a7.611 7.611 0 00-9.9-4l-5.9 2.5a55.016 55.016 0 00-11.6-11.5l2.4-5.9a7.51 7.51 0 00-4.1-9.8l-10.3-4.2a7.51 7.51 0 00-9.8 4.1l-2.4 5.9a52.376 52.376 0 00-16.3.1l-2.5-5.9a7.611 7.611 0 00-9.9-4l-10.3 4.3a7.611 7.611 0 00-4 9.9l2.5 5.9a55.016 55.016 0 00-11.5 11.6l-5.9-2.4a7.461 7.461 0 00-9.8 4.1z"/><path data-name="Path 1492" d="M215.8 1453.9a27.048 27.048 0 11-2 38.2 27.046 27.046 0 012-38.2zm-12.5-20.2l-6.3 5.6a5.681 5.681 0 00-.4 8l3.2 3.6a43.507 43.507 0 00-5.3 11.1l-4.8-.3a5.768 5.768 0 00-6 5.4l-.4 8.4a5.768 5.768 0 005.4 6l4.8.3a41.2 41.2 0 004.1 11.6l-3.6 3.2a5.681 5.681 0 00-.4 8l5.6 6.3a5.681 5.681 0 008 .4l3.6-3.2a43.506 43.506 0 0011.1 5.3l-.3 4.8a5.768 5.768 0 005.4 6l8.4.4a5.768 5.768 0 006-5.4l.3-4.8a41.2 41.2 0 0011.6-4.1l3.2 3.6a5.681 5.681 0 008 .4l6.3-5.6a5.681 5.681 0 00.4-8l-3.2-3.6a43.507 43.507 0 005.3-11.1l4.8.3a5.768 5.768 0 006-5.4l.4-8.4a5.768 5.768 0 00-5.4-6l-4.8-.3a41.2 41.2 0 00-4.1-11.6l3.6-3.2a5.681 5.681 0 00.4-8l-5.6-6.3a5.681 5.681 0 00-8-.4l-3.6 3.2a43.506 43.506 0 00-11.1-5.3l.3-4.8a5.768 5.768 0 00-5.4-6l-8.4-.4a5.768 5.768 0 00-6 5.4l-.3 4.8a41.2 41.2 0 00-11.6 4.1l-3.2-3.6a5.682 5.682 0 00-8-.4z"/></g><g data-name="Group 894" fill="#f5f5f5"><path data-name="Path 1493" d="M214.5 1303.1a51.9 51.9 0 1151.9-51.9 51.853 51.853 0 01-51.9 51.9zm-8.1 44.8h16.1a10.926 10.926 0 0010.9-10.9v-9.3a78.976 78.976 0 0021.8-9l6.5 6.5a10.986 10.986 0 0015.4 0l11.4-11.4a10.986 10.986 0 000-15.4l-6.5-6.5a78.976 78.976 0 009-21.8h9.3a10.926 10.926 0 0010.9-10.9v-16.1a10.926 10.926 0 00-10.9-10.9H291a78.976 78.976 0 00-9-21.8l6.5-6.5a10.986 10.986 0 000-15.4l-11.4-11.4a10.986 10.986 0 00-15.4 0l-6.5 6.5a78.976 78.976 0 00-21.8-9v-9.3a10.926 10.926 0 00-10.9-10.9h-16.1a10.926 10.926 0 00-10.9 10.9v9.3a78.976 78.976 0 00-21.8 9l-6.5-6.5a10.986 10.986 0 00-15.4 0l-11.4 11.5a10.986 10.986 0 000 15.4l6.5 6.5a78.976 78.976 0 00-9 21.8h-9.3a10.926 10.926 0 00-10.9 10.9v16.1a10.926 10.926 0 0010.9 10.9h9.4a78.976 78.976 0 009 21.8l-6.5 6.5a10.986 10.986 0 000 15.4l11.4 11.4a10.986 10.986 0 0015.4 0l6.5-6.5a78.976 78.976 0 0021.8 9v9.3a10.755 10.755 0 0010.8 10.8z"/><path data-name="Path 1494" d="M123.4 1380a35.97 35.97 0 1119.7 46.9 35.965 35.965 0 01-19.7-46.9zm-26.6-16.9l-4.2 10.3a7.51 7.51 0 004.1 9.8l5.9 2.4a52.377 52.377 0 00.1 16.3l-5.9 2.5a7.611 7.611 0 00-4 9.9l4.3 10.3a7.611 7.611 0 009.9 4l5.9-2.5a55.016 55.016 0 0011.6 11.5l-2.4 5.9a7.51 7.51 0 004.1 9.8l10.3 4.2a7.51 7.51 0 009.8-4.1l2.4-5.9a52.377 52.377 0 0016.3-.1l2.5 5.9a7.611 7.611 0 009.9 4l10.3-4.3a7.611 7.611 0 004-9.9l-2.5-5.9a55.016 55.016 0 0011.5-11.6l5.9 2.4a7.51 7.51 0 009.8-4.1l4.2-10.3a7.51 7.51 0 00-4.1-9.8l-5.9-2.4a52.376 52.376 0 00-.1-16.3l5.9-2.5a7.611 7.611 0 004-9.9l-4.3-10.3a7.611 7.611 0 00-9.9-4l-5.9 2.5a55.016 55.016 0 00-11.6-11.5l2.4-5.9a7.51 7.51 0 00-4.1-9.8l-10.3-4.2a7.51 7.51 0 00-9.8 4.1l-2.4 5.9a52.376 52.376 0 00-16.3.1l-2.5-5.9a7.611 7.611 0 00-9.9-4l-10.3 4.3a7.611 7.611 0 00-4 9.9l2.5 5.9a55.016 55.016 0 00-11.5 11.6l-5.9-2.4a7.381 7.381 0 00-9.8 4.1z"/><path data-name="Path 1495" d="M215.5 1453.6a27.048 27.048 0 11-2 38.2 27.046 27.046 0 012-38.2zm-12.5-20.2l-6.3 5.6a5.681 5.681 0 00-.4 8l3.2 3.6a43.507 43.507 0 00-5.3 11.1l-4.8-.3a5.768 5.768 0 00-6 5.4l-.4 8.4a5.768 5.768 0 005.4 6l4.8.3a41.2 41.2 0 004.1 11.6l-3.6 3.2a5.681 5.681 0 00-.4 8l5.6 6.3a5.681 5.681 0 008 .4l3.6-3.2a43.506 43.506 0 0011.1 5.3l-.3 4.8a5.768 5.768 0 005.4 6l8.4.4a5.768 5.768 0 006-5.4l.3-4.8a41.2 41.2 0 0011.6-4.1l3.2 3.6a5.681 5.681 0 008 .4l6.3-5.6a5.681 5.681 0 00.4-8l-3.2-3.6a43.507 43.507 0 005.3-11.1l4.8.3a5.768 5.768 0 006-5.4l.4-8.4a5.768 5.768 0 00-5.4-6l-4.8-.3a41.2 41.2 0 00-4.1-11.6l3.6-3.2a5.681 5.681 0 00.4-8l-5.6-6.3a5.681 5.681 0 00-8-.4l-3.6 3.2a43.506 43.506 0 00-11.1-5.3l.3-4.8a5.768 5.768 0 00-5.4-6l-8.4-.4a5.768 5.768 0 00-6 5.4l-.3 4.8a41.2 41.2 0 00-11.6 4.1l-3.2-3.6a5.681 5.681 0 00-8-.4z"/></g><g data-name="Group 895" fill="#f3f3f3"><path data-name="Path 1496" d="M214.2 1302.8a51.9 51.9 0 1151.9-51.9 51.853 51.853 0 01-51.9 51.9zm-8.1 44.8h16.1a10.926 10.926 0 0010.9-10.9v-9.3a78.976 78.976 0 0021.8-9l6.5 6.5a10.986 10.986 0 0015.4 0l11.4-11.4a10.986 10.986 0 000-15.4l-6.5-6.5a78.976 78.976 0 009-21.8h9.3a10.926 10.926 0 0010.9-10.9v-16A10.926 10.926 0 00300 1232h-9.3a78.975 78.975 0 00-9-21.8l6.5-6.5a10.986 10.986 0 000-15.4l-11.4-11.4a10.986 10.986 0 00-15.4 0l-6.5 6.5a78.976 78.976 0 00-21.8-9v-9.3a10.926 10.926 0 00-10.9-10.9h-16.1a10.926 10.926 0 00-10.9 10.9v9.3a78.976 78.976 0 00-21.8 9l-6.5-6.5a10.986 10.986 0 00-15.4 0l-11.4 11.3a10.986 10.986 0 000 15.4l6.5 6.5a78.976 78.976 0 00-9 21.8h-9.3a10.926 10.926 0 00-10.9 10.9v16.1a10.926 10.926 0 0010.9 10.9h9.3a78.976 78.976 0 009 21.8l-6.5 6.5a10.986 10.986 0 000 15.4l11.4 11.4a10.986 10.986 0 0015.4 0l6.5-6.5a78.976 78.976 0 0021.8 9v9.3a10.926 10.926 0 0010.9 10.9z"/><path data-name="Path 1497" d="M123.1 1379.6a35.97 35.97 0 1119.7 46.9 35.965 35.965 0 01-19.7-46.9zm-26.6-16.9l-4.2 10.3a7.51 7.51 0 004.1 9.8l5.9 2.4a52.377 52.377 0 00.1 16.3l-5.9 2.5a7.611 7.611 0 00-4 9.9l4.3 10.3a7.611 7.611 0 009.9 4l5.9-2.5a55.016 55.016 0 0011.6 11.5l-2.4 5.9a7.51 7.51 0 004.1 9.8l10.3 4.2a7.51 7.51 0 009.8-4.1l2.4-5.9a52.377 52.377 0 0016.3-.1l2.5 5.9a7.611 7.611 0 009.9 4l10.3-4.3a7.611 7.611 0 004-9.9l-2.5-5.9a55.016 55.016 0 0011.5-11.6l5.9 2.4a7.51 7.51 0 009.8-4.1l4.2-10.3a7.51 7.51 0 00-4.1-9.8l-5.9-2.4a52.376 52.376 0 00-.1-16.3l5.9-2.5a7.611 7.611 0 004-9.9l-4.3-10.3a7.611 7.611 0 00-9.9-4l-5.9 2.5a55.016 55.016 0 00-11.6-11.5l2.4-5.9a7.51 7.51 0 00-4.1-9.8l-10.3-4.2a7.51 7.51 0 00-9.8 4.1l-2.4 5.9a52.376 52.376 0 00-16.3.1l-2.5-5.9a7.611 7.611 0 00-9.9-4l-10.3 4.3a7.611 7.611 0 00-4 9.9l2.5 5.9a55.016 55.016 0 00-11.5 11.6l-5.9-2.4a7.509 7.509 0 00-9.8 4.1z"/><path data-name="Path 1498" d="M215.2 1453.2a27.048 27.048 0 11-2 38.2 27.046 27.046 0 012-38.2zm-12.5-20.2l-6.3 5.6a5.681 5.681 0 00-.4 8l3.2 3.6a43.507 43.507 0 00-5.3 11.1l-4.8-.3a5.768 5.768 0 00-6 5.4l-.4 8.4a5.768 5.768 0 005.4 6l4.8.3a41.2 41.2 0 004.1 11.6l-3.6 3.2a5.681 5.681 0 00-.4 8l5.6 6.3a5.681 5.681 0 008 .4l3.6-3.2a43.506 43.506 0 0011.1 5.3l-.3 4.8a5.768 5.768 0 005.4 6l8.4.4a5.768 5.768 0 006-5.4l.3-4.8a41.2 41.2 0 0011.6-4.1l3.2 3.6a5.681 5.681 0 008 .4l6.3-5.6a5.681 5.681 0 00.4-8l-3.2-3.6a43.507 43.507 0 005.3-11.1l4.8.3a5.768 5.768 0 006-5.4l.4-8.4a5.768 5.768 0 00-5.4-6l-4.8-.3a41.2 41.2 0 00-4.1-11.6l3.6-3.2a5.681 5.681 0 00.4-8l-5.6-6.3a5.681 5.681 0 00-8-.4l-3.6 3.2a43.506 43.506 0 00-11.1-5.3l.3-4.8a5.768 5.768 0 00-5.4-6l-8.4-.4a5.768 5.768 0 00-6 5.4l-.3 4.8a41.2 41.2 0 00-11.6 4.1l-3.2-3.6a5.681 5.681 0 00-8-.4z"/></g><g data-name="Group 896" fill="#f0f0f0"><path data-name="Path 1499" d="M213.8 1302.5a51.9 51.9 0 1151.9-51.9 51.853 51.853 0 01-51.9 51.9zm-8 44.8h16.1a10.926 10.926 0 0010.9-10.9v-9.3a78.976 78.976 0 0021.8-9l6.5 6.5a10.986 10.986 0 0015.4 0l11.4-11.4a10.986 10.986 0 000-15.4l-6.5-6.5a78.976 78.976 0 009-21.8h9.3a10.926 10.926 0 0010.9-10.9v-16.1a10.926 10.926 0 00-10.9-10.9h-9.3a78.976 78.976 0 00-9-21.8l6.5-6.5a10.986 10.986 0 000-15.4l-11.4-11.4a10.986 10.986 0 00-15.4 0l-6.5 6.5a78.976 78.976 0 00-21.8-9v-9.3a10.926 10.926 0 00-10.9-10.9h-16.1a10.926 10.926 0 00-10.9 10.9v9.3a78.976 78.976 0 00-21.8 9l-6.5-6.5a10.986 10.986 0 00-15.4 0l-11.4 11.4a10.986 10.986 0 000 15.4l6.5 6.5a78.976 78.976 0 00-9 21.8H128a10.926 10.926 0 00-10.9 10.9v16.1a10.926 10.926 0 0010.9 10.9h9.3a78.976 78.976 0 009 21.8l-6.5 6.5a10.986 10.986 0 000 15.4l11.4 11.4a10.986 10.986 0 0015.4 0l6.5-6.5a78.976 78.976 0 0021.8 9v9.3a10.926 10.926 0 0010.9 10.9z"/><path data-name="Path 1500" d="M122.8 1379.3a35.97 35.97 0 1119.7 46.9 35.965 35.965 0 01-19.7-46.9zm-26.6-16.9l-4.2 10.3a7.51 7.51 0 004.1 9.8l5.9 2.4a52.377 52.377 0 00.1 16.3l-5.9 2.5a7.611 7.611 0 00-4 9.9l4.3 10.3a7.611 7.611 0 009.9 4l5.9-2.5a55.016 55.016 0 0011.6 11.5l-2.4 5.9a7.51 7.51 0 004.1 9.8l10.3 4.2a7.51 7.51 0 009.8-4.1l2.4-5.9a52.377 52.377 0 0016.3-.1l2.5 5.9a7.611 7.611 0 009.9 4l10.3-4.3a7.611 7.611 0 004-9.9l-2.5-5.9a55.016 55.016 0 0011.5-11.6l5.9 2.4a7.51 7.51 0 009.8-4.1l4.2-10.3a7.51 7.51 0 00-4.1-9.8l-5.9-2.4a52.376 52.376 0 00-.1-16.3l5.9-2.5a7.611 7.611 0 004-9.9l-4.3-10.3a7.611 7.611 0 00-9.9-4l-5.9 2.5a55.016 55.016 0 00-11.6-11.5l2.4-5.9a7.51 7.51 0 00-4.1-9.8l-10.3-4.2a7.51 7.51 0 00-9.8 4.1l-2.4 5.9a52.376 52.376 0 00-16.3.1l-2.5-5.9a7.611 7.611 0 00-9.9-4l-10.2 4.3a7.611 7.611 0 00-4 9.9l2.5 5.9a55.016 55.016 0 00-11.5 11.6l-5.9-2.4a7.586 7.586 0 00-9.9 4.1z"/><path data-name="Path 1501" d="M214.8 1452.9a27.048 27.048 0 11-2 38.2 27.046 27.046 0 012-38.2zm-12.5-20.2l-6.3 5.6a5.681 5.681 0 00-.4 8l3.2 3.6a43.507 43.507 0 00-5.3 11.1l-4.8-.3a5.768 5.768 0 00-6 5.4l-.4 8.4a5.768 5.768 0 005.4 6l4.8.3a41.2 41.2 0 004.1 11.6l-3.6 3.2a5.681 5.681 0 00-.4 8l5.6 6.3a5.681 5.681 0 008 .4l3.6-3.2a43.506 43.506 0 0011.1 5.3l-.3 4.8a5.768 5.768 0 005.4 6l8.4.4a5.768 5.768 0 006-5.4l.3-4.8a41.2 41.2 0 0011.6-4.1l3.2 3.6a5.681 5.681 0 008 .4l6.3-5.6a5.681 5.681 0 00.4-8l-3.2-3.6a43.507 43.507 0 005.3-11.1l4.8.3a5.768 5.768 0 006-5.4l.4-8.4a5.768 5.768 0 00-5.4-6l-4.8-.3a41.2 41.2 0 00-4.1-11.6l3.6-3.2a5.681 5.681 0 00.4-8l-5.6-6.3a5.681 5.681 0 00-8-.4l-3.6 3.2a43.506 43.506 0 00-11.1-5.3l.3-4.8a5.768 5.768 0 00-5.4-6l-8.4-.4a5.768 5.768 0 00-6 5.4l-.3 4.8a41.2 41.2 0 00-11.6 4.1l-3.2-3.6a5.671 5.671 0 00-8-.4z"/></g><g data-name="Group 897" fill="#eee"><path data-name="Path 1502" d="M213.5 1302.2a51.9 51.9 0 1151.9-51.9 51.853 51.853 0 01-51.9 51.9zm-8 44.8h16.1a10.926 10.926 0 0010.9-10.9v-9.3a78.976 78.976 0 0021.8-9l6.5 6.5a10.986 10.986 0 0015.4 0l11.4-11.4a10.986 10.986 0 000-15.4l-6.5-6.5a78.976 78.976 0 009-21.8h9.3a10.926 10.926 0 0010.9-10.9v-16.1a10.926 10.926 0 00-10.9-10.9h-9.3a78.976 78.976 0 00-9-21.8l6.5-6.5a10.986 10.986 0 000-15.4l-11.4-11.4a10.986 10.986 0 00-15.4 0l-6.5 6.5a78.976 78.976 0 00-21.8-9v-9.3a10.926 10.926 0 00-10.9-10.9h-16.1a10.926 10.926 0 00-10.9 10.9v9.3a78.976 78.976 0 00-21.8 9l-6.5-6.5a10.986 10.986 0 00-15.4 0l-11.5 11.4a10.986 10.986 0 000 15.4l6.5 6.5a78.976 78.976 0 00-9 21.8h-9.3a10.926 10.926 0 00-10.9 10.9v16.1a10.926 10.926 0 0010.9 10.9h9.4a78.976 78.976 0 009 21.8l-6.5 6.5a10.986 10.986 0 000 15.4l11.4 11.4a10.986 10.986 0 0015.4 0l6.5-6.5a78.976 78.976 0 0021.8 9v9.3a10.926 10.926 0 0010.9 10.9z"/><path data-name="Path 1503" d="M122.4 1379a35.97 35.97 0 1119.7 46.9 35.965 35.965 0 01-19.7-46.9zm-26.6-16.9l-4.2 10.3a7.51 7.51 0 004.1 9.8l5.9 2.4a52.377 52.377 0 00.1 16.3l-5.9 2.5a7.611 7.611 0 00-4 9.9l4.3 10.3a7.611 7.611 0 009.9 4l5.9-2.5a55.016 55.016 0 0011.6 11.5l-2.4 5.9a7.51 7.51 0 004.1 9.8l10.3 4.2a7.51 7.51 0 009.8-4.1l2.4-5.9a52.377 52.377 0 0016.3-.1l2.5 5.9a7.611 7.611 0 009.9 4l10.3-4.3a7.611 7.611 0 004-9.9l-2.5-5.9a55.016 55.016 0 0011.5-11.6l5.9 2.4a7.51 7.51 0 009.8-4.1l4.2-10.3a7.51 7.51 0 00-4.1-9.8l-5.9-2.4a52.376 52.376 0 00-.1-16.3l5.9-2.5a7.611 7.611 0 004-9.9l-4.3-10.3a7.611 7.611 0 00-9.9-4l-5.9 2.5a55.016 55.016 0 00-11.6-11.5l2.4-5.9a7.51 7.51 0 00-4.1-9.8l-10.3-4.2a7.51 7.51 0 00-9.8 4.1l-2.4 5.9a52.376 52.376 0 00-16.3.1l-2.5-5.9a7.611 7.611 0 00-9.9-4l-10.3 4.3a7.611 7.611 0 00-4 9.9l2.5 5.9a55.016 55.016 0 00-11.5 11.6l-5.9-2.4a7.461 7.461 0 00-9.8 4.1z"/><path data-name="Path 1504" d="M214.5 1452.6a27.048 27.048 0 11-2 38.2 27.046 27.046 0 012-38.2zm-12.5-20.2l-6.3 5.6a5.681 5.681 0 00-.4 8l3.2 3.6a43.507 43.507 0 00-5.3 11.1l-4.8-.3a5.768 5.768 0 00-6 5.4l-.4 8.4a5.768 5.768 0 005.4 6l4.8.3a41.2 41.2 0 004.1 11.6l-3.6 3.2a5.681 5.681 0 00-.4 8l5.6 6.3a5.681 5.681 0 008 .4l3.6-3.2a43.506 43.506 0 0011.1 5.3l-.3 4.8a5.768 5.768 0 005.4 6l8.4.4a5.768 5.768 0 006-5.4l.3-4.8a41.2 41.2 0 0011.6-4.1l3.2 3.6a5.681 5.681 0 008 .4l6.3-5.6a5.681 5.681 0 00.4-8l-3.2-3.6a43.507 43.507 0 005.3-11.1l4.8.3a5.768 5.768 0 006-5.4l.4-8.4a5.768 5.768 0 00-5.4-6l-4.8-.3a41.2 41.2 0 00-4.1-11.6l3.6-3.2a5.681 5.681 0 00.4-8l-5.6-6.3a5.681 5.681 0 00-8-.4l-3.6 3.2a43.506 43.506 0 00-11.1-5.3l.3-4.8a5.768 5.768 0 00-5.4-6l-8.4-.4a5.768 5.768 0 00-6 5.4l-.3 4.8a41.2 41.2 0 00-11.6 4.1l-3.2-3.6a5.681 5.681 0 00-8-.4z"/></g><g data-name="Group 898" fill="#ececec"><path data-name="Path 1505" d="M213.2 1301.8a51.9 51.9 0 1151.9-51.9 51.853 51.853 0 01-51.9 51.9zm-8.1 44.8h16.1a10.926 10.926 0 0010.9-10.9v-9.3a78.976 78.976 0 0021.8-9l6.5 6.5a10.986 10.986 0 0015.4 0l11.4-11.4a10.986 10.986 0 000-15.4l-6.5-6.5a78.976 78.976 0 009-21.8h9.3a10.926 10.926 0 0010.9-10.9v-16A10.926 10.926 0 00299 1231h-9.3a78.975 78.975 0 00-9-21.8l6.5-6.5a10.986 10.986 0 000-15.4l-11.3-11.4a10.986 10.986 0 00-15.4 0l-6.5 6.5a78.976 78.976 0 00-21.8-9v-9.3a10.926 10.926 0 00-10.9-10.9h-16.1a10.926 10.926 0 00-10.9 10.9v9.3a78.976 78.976 0 00-21.8 9l-6.5-6.5a10.986 10.986 0 00-15.4 0l-11.5 11.4a10.986 10.986 0 000 15.4l6.5 6.5a78.976 78.976 0 00-9 21.8h-9.3a10.926 10.926 0 00-10.9 10.9v16.1a10.926 10.926 0 0010.9 10.9h9.3a78.976 78.976 0 009 21.8l-6.5 6.5a10.986 10.986 0 000 15.4l11.4 11.4a10.986 10.986 0 0015.4 0l6.5-6.5a78.976 78.976 0 0021.8 9v9.3a10.905 10.905 0 0010.9 10.8z"/><path data-name="Path 1506" d="M122.1 1378.7a35.97 35.97 0 1119.7 46.9 35.965 35.965 0 01-19.7-46.9zm-26.6-16.9l-4.2 10.3a7.51 7.51 0 004.1 9.8l5.9 2.4a52.377 52.377 0 00.1 16.3l-5.9 2.5a7.611 7.611 0 00-4 9.9l4.3 10.3a7.611 7.611 0 009.9 4l5.9-2.5a55.016 55.016 0 0011.6 11.5l-2.4 5.9a7.51 7.51 0 004.1 9.8l10.3 4.2a7.51 7.51 0 009.8-4.1l2.4-5.9a52.377 52.377 0 0016.3-.1l2.5 5.9a7.611 7.611 0 009.9 4l10.3-4.3a7.611 7.611 0 004-9.9l-2.5-5.9a55.016 55.016 0 0011.5-11.6l5.9 2.4a7.51 7.51 0 009.8-4.1l4.2-10.3a7.51 7.51 0 00-4.1-9.8l-5.9-2.4a52.376 52.376 0 00-.1-16.3l5.9-2.5a7.611 7.611 0 004-9.9l-4.3-10.3a7.611 7.611 0 00-9.9-4l-5.9 2.5a55.016 55.016 0 00-11.6-11.5l2.4-5.9a7.51 7.51 0 00-4.1-9.8l-10.3-4.2a7.51 7.51 0 00-9.8 4.1l-2.4 5.9a52.376 52.376 0 00-16.3.1l-2.5-5.9a7.611 7.611 0 00-9.9-4l-10.3 4.3a7.611 7.611 0 00-4 9.9l2.5 5.9a55.016 55.016 0 00-11.5 11.6l-5.9-2.4a7.381 7.381 0 00-9.8 4.1z"/><path data-name="Path 1507" d="M214.2 1452.3a27.048 27.048 0 11-2 38.2 27.046 27.046 0 012-38.2zm-12.5-20.2l-6.3 5.6a5.681 5.681 0 00-.4 8l3.2 3.6a43.507 43.507 0 00-5.3 11.1l-4.8-.3a5.768 5.768 0 00-6 5.4l-.4 8.4a5.768 5.768 0 005.4 6l4.8.3a41.2 41.2 0 004.1 11.6l-3.6 3.2a5.681 5.681 0 00-.4 8l5.6 6.3a5.681 5.681 0 008 .4l3.6-3.2a43.506 43.506 0 0011.1 5.3l-.3 4.8a5.768 5.768 0 005.4 6l8.4.4a5.768 5.768 0 006-5.4l.3-4.8a41.2 41.2 0 0011.6-4.1l3.2 3.6a5.681 5.681 0 008 .4l6.3-5.6a5.681 5.681 0 00.4-8l-3.2-3.6a43.507 43.507 0 005.3-11.1l4.8.3a5.768 5.768 0 006-5.4l.4-8.4a5.768 5.768 0 00-5.4-6l-4.8-.3a41.2 41.2 0 00-4.1-11.6l3.6-3.2a5.681 5.681 0 00.4-8l-5.6-6.3a5.681 5.681 0 00-8-.4l-3.6 3.2a43.506 43.506 0 00-11.1-5.3l.3-4.8a5.768 5.768 0 00-5.4-6l-8.4-.4a5.768 5.768 0 00-6 5.4l-.3 4.8a41.2 41.2 0 00-11.6 4.1l-3.2-3.6a5.681 5.681 0 00-8-.4z"/></g><g data-name="Group 899" fill="#e9e9e9"><path data-name="Path 1508" d="M212.9 1301.5a51.9 51.9 0 1151.9-51.9 51.853 51.853 0 01-51.9 51.9zm-8.1 44.8h16.1a10.926 10.926 0 0010.9-10.9v-9.3a78.976 78.976 0 0021.8-9l6.5 6.5a10.986 10.986 0 0015.4 0l11.4-11.4a10.986 10.986 0 000-15.4l-6.5-6.5a78.976 78.976 0 009-21.8h9.3a10.926 10.926 0 0010.9-10.9v-16.1a10.926 10.926 0 00-10.9-10.9h-9.3a78.976 78.976 0 00-9-21.8l6.5-6.5a10.986 10.986 0 000-15.4l-11.4-11.4a10.986 10.986 0 00-15.4 0l-6.5 6.5a78.976 78.976 0 00-21.8-9v-9.3a10.926 10.926 0 00-10.9-10.9h-16.1a10.926 10.926 0 00-10.9 10.9v9.3a78.976 78.976 0 00-21.8 9l-6.5-6.5a10.986 10.986 0 00-15.4 0l-11.4 11.4a10.986 10.986 0 000 15.4l6.5 6.5a78.976 78.976 0 00-9 21.8H127a10.926 10.926 0 00-10.9 10.9v16.1a10.926 10.926 0 0010.9 10.9h9.3a78.976 78.976 0 009 21.8l-6.5 6.5a10.986 10.986 0 000 15.4l11.4 11.4a10.986 10.986 0 0015.4 0l6.5-6.5a78.976 78.976 0 0021.8 9v9.3a10.926 10.926 0 0010.9 10.9z"/><path data-name="Path 1509" d="M121.8 1378.3a35.97 35.97 0 1119.7 46.9 35.965 35.965 0 01-19.7-46.9zm-26.6-16.9l-4.2 10.4a7.51 7.51 0 004.1 9.8l5.9 2.4a52.377 52.377 0 00.1 16.3l-5.9 2.5a7.611 7.611 0 00-4 9.9l4.3 10.3a7.611 7.611 0 009.9 4l5.9-2.5a55.016 55.016 0 0011.6 11.5l-2.4 5.9a7.51 7.51 0 004.1 9.8l10.3 4.2a7.51 7.51 0 009.8-4.1l2.4-5.9a52.377 52.377 0 0016.3-.1l2.5 5.9a7.611 7.611 0 009.9 4l10.3-4.3a7.611 7.611 0 004-9.9l-2.5-5.9a55.016 55.016 0 0011.5-11.6l5.9 2.4a7.51 7.51 0 009.8-4.1l4.2-10.3a7.51 7.51 0 00-4.1-9.8l-5.9-2.4a52.376 52.376 0 00-.1-16.3l5.9-2.5a7.611 7.611 0 004-9.9l-4.3-10.3a7.611 7.611 0 00-9.9-4l-5.9 2.5a55.016 55.016 0 00-11.6-11.5l2.4-5.9a7.51 7.51 0 00-4.1-9.8l-10.3-4.2a7.51 7.51 0 00-9.8 4.1l-2.3 5.9a52.376 52.376 0 00-16.3.1l-2.5-5.9a7.611 7.611 0 00-9.9-4l-10.3 4.2a7.611 7.611 0 00-4 9.9l2.5 5.9a55.016 55.016 0 00-11.5 11.6l-5.9-2.4a7.586 7.586 0 00-9.9 4.1z"/><path data-name="Path 1510" d="M213.9 1451.9a27.048 27.048 0 11-2 38.2 27.046 27.046 0 012-38.2zm-12.5-20.2l-6.3 5.6a5.681 5.681 0 00-.4 8l3.2 3.6a43.507 43.507 0 00-5.3 11.1l-4.8-.3a5.768 5.768 0 00-6 5.4l-.4 8.4a5.768 5.768 0 005.4 6l4.8.3a41.2 41.2 0 004.1 11.6l-3.6 3.2a5.681 5.681 0 00-.4 8l5.6 6.3a5.681 5.681 0 008 .4l3.6-3.2a43.506 43.506 0 0011.1 5.3l-.3 4.8a5.768 5.768 0 005.4 6l8.4.4a5.768 5.768 0 006-5.4l.3-4.8a41.2 41.2 0 0011.6-4.1l3.2 3.6a5.681 5.681 0 008 .4l6.3-5.6a5.681 5.681 0 00.4-8l-3.2-3.6a43.507 43.507 0 005.3-11.1l4.8.3a5.768 5.768 0 006-5.4l.4-8.4a5.768 5.768 0 00-5.4-6l-4.8-.3a41.2 41.2 0 00-4.1-11.6l3.6-3.2a5.681 5.681 0 00.4-8l-5.6-6.3a5.681 5.681 0 00-8-.4l-3.6 3.2a43.506 43.506 0 00-11.1-5.3l.3-4.8a5.768 5.768 0 00-5.4-6l-8.4-.4a5.768 5.768 0 00-6 5.4l-.3 4.8a41.2 41.2 0 00-11.6 4.1l-3.2-3.6a5.682 5.682 0 00-8-.4z"/></g><g data-name="Group 900" fill="#e7e7e7"><path data-name="Path 1511" d="M212.5 1301.2a51.9 51.9 0 1151.9-51.9 51.853 51.853 0 01-51.9 51.9zm-8 44.8h16.1a10.926 10.926 0 0010.9-10.9v-9.3a78.976 78.976 0 0021.8-9l6.5 6.5a10.986 10.986 0 0015.4 0l11.4-11.4a10.986 10.986 0 000-15.4l-6.5-6.5a78.976 78.976 0 009-21.8h9.3a10.926 10.926 0 0010.9-10.9v-16.1a10.926 10.926 0 00-10.9-10.9h-9.3a78.976 78.976 0 00-9-21.8l6.5-6.5a10.986 10.986 0 000-15.4l-11.4-11.4a10.986 10.986 0 00-15.4 0l-6.5 6.5a78.976 78.976 0 00-21.8-9v-9.3a10.926 10.926 0 00-10.9-10.9h-16.1a10.926 10.926 0 00-10.9 10.9v9.3a78.976 78.976 0 00-21.8 9l-6.5-6.5a10.986 10.986 0 00-15.4 0l-11.4 11.4a10.986 10.986 0 000 15.4l6.5 6.5a78.976 78.976 0 00-9 21.8h-9.3a10.926 10.926 0 00-10.9 10.9v16.1a10.926 10.926 0 0010.9 10.9h9.3a78.976 78.976 0 009 21.8l-6.5 6.5a10.986 10.986 0 000 15.4l11.4 11.4a10.986 10.986 0 0015.4 0l6.5-6.5a78.976 78.976 0 0021.8 9v9.3a10.926 10.926 0 0010.9 10.9z"/><path data-name="Path 1512" d="M121.5 1378a35.97 35.97 0 1119.7 46.9 35.965 35.965 0 01-19.7-46.9zm-26.6-16.9l-4.2 10.3a7.51 7.51 0 004.1 9.8l5.9 2.4a52.377 52.377 0 00.1 16.3l-5.9 2.5a7.611 7.611 0 00-4 9.9l4.3 10.3a7.611 7.611 0 009.9 4l5.9-2.5a55.016 55.016 0 0011.6 11.5l-2.4 5.9a7.51 7.51 0 004.1 9.8l10.3 4.2a7.51 7.51 0 009.8-4.1l2.4-5.9a52.377 52.377 0 0016.3-.1l2.5 5.9a7.611 7.611 0 009.9 4l10.3-4.3a7.611 7.611 0 004-9.9l-2.5-5.9a55.016 55.016 0 0011.5-11.6l5.9 2.4a7.51 7.51 0 009.8-4.1l4.2-10.3a7.51 7.51 0 00-4.1-9.8l-5.9-2.4a52.376 52.376 0 00-.1-16.3l5.9-2.5a7.611 7.611 0 004-9.9l-4.3-10.3a7.611 7.611 0 00-9.9-4l-5.9 2.5a55.016 55.016 0 00-11.6-11.5l2.4-5.9a7.51 7.51 0 00-4.1-9.8l-10.3-4.2a7.51 7.51 0 00-9.8 4.1l-2.4 5.9a52.376 52.376 0 00-16.3.1l-2.5-5.9a7.611 7.611 0 00-9.9-4l-10.3 4.3a7.611 7.611 0 00-4 9.9l2.5 5.9a55.016 55.016 0 00-11.5 11.6l-5.9-2.4a7.509 7.509 0 00-9.8 4.1z"/><path data-name="Path 1513" d="M213.5 1451.6a27.048 27.048 0 11-2 38.2 27.046 27.046 0 012-38.2zm-12.5-20.2l-6.3 5.6a5.681 5.681 0 00-.4 8l3.2 3.6a43.507 43.507 0 00-5.3 11.1l-4.8-.3a5.768 5.768 0 00-6 5.4l-.4 8.4a5.768 5.768 0 005.4 6l4.8.3a41.2 41.2 0 004.1 11.6l-3.6 3.2a5.681 5.681 0 00-.4 8l5.6 6.3a5.681 5.681 0 008 .4l3.6-3.2a43.506 43.506 0 0011.1 5.3l-.3 4.8a5.768 5.768 0 005.4 6l8.4.4a5.768 5.768 0 006-5.4l.3-4.8a41.2 41.2 0 0011.6-4.1l3.2 3.6a5.681 5.681 0 008 .4l6.3-5.6a5.681 5.681 0 00.4-8l-3.2-3.6a43.507 43.507 0 005.3-11.1l4.8.3a5.768 5.768 0 006-5.4l.4-8.4a5.768 5.768 0 00-5.4-6l-4.8-.3a41.2 41.2 0 00-4.1-11.6l3.6-3.2a5.681 5.681 0 00.4-8l-5.6-6.3a5.681 5.681 0 00-8-.4l-3.6 3.2a43.506 43.506 0 00-11.1-5.3l.3-4.8a5.768 5.768 0 00-5.4-6l-8.4-.4a5.768 5.768 0 00-6 5.4l-.3 4.8a41.2 41.2 0 00-11.6 4.1l-3.2-3.6a5.671 5.671 0 00-8-.4z"/></g><g data-name="Group 901" fill="#e4e4e4"><path data-name="Path 1514" d="M212.2 1300.9a51.9 51.9 0 1151.9-51.9 51.853 51.853 0 01-51.9 51.9zm-8 44.8h16.1a10.926 10.926 0 0010.9-10.9v-9.3a78.976 78.976 0 0021.8-9l6.5 6.5a10.986 10.986 0 0015.4 0l11.4-11.4a10.986 10.986 0 000-15.4l-6.5-6.5a78.976 78.976 0 009-21.8h9.3A10.926 10.926 0 00309 1257v-16.1a10.926 10.926 0 00-10.9-10.9h-9.3a78.975 78.975 0 00-9-21.8l6.5-6.5a10.986 10.986 0 000-15.4l-11.4-11.4a10.986 10.986 0 00-15.4 0l-6.5 6.5a78.976 78.976 0 00-21.8-9v-9.3a10.926 10.926 0 00-10.9-10.9h-16.1a10.926 10.926 0 00-10.9 10.9v9.3a78.976 78.976 0 00-21.8 9l-6.5-6.5a10.986 10.986 0 00-15.4 0l-11.5 11.4a10.986 10.986 0 000 15.4l6.5 6.5a78.976 78.976 0 00-9 21.8h-9.3a10.926 10.926 0 00-10.9 10.9v16.1a10.926 10.926 0 0010.9 10.9h9.3a78.976 78.976 0 009 21.8l-6.5 6.5a10.986 10.986 0 000 15.4l11.4 11.4a10.986 10.986 0 0015.4 0l6.5-6.5a78.975 78.975 0 0021.8 9v9.3a11.077 11.077 0 0011 10.9z"/><path data-name="Path 1515" d="M121.1 1377.7a35.97 35.97 0 1119.7 46.9 35.965 35.965 0 01-19.7-46.9zm-26.6-16.9l-4.2 10.3a7.51 7.51 0 004.1 9.8l5.9 2.4a52.377 52.377 0 00.1 16.3l-5.9 2.5a7.611 7.611 0 00-4 9.9l4.3 10.3a7.611 7.611 0 009.9 4l5.9-2.5a55.016 55.016 0 0011.6 11.5l-2.4 5.9a7.51 7.51 0 004.1 9.8l10.3 4.2a7.51 7.51 0 009.8-4.1l2.4-5.9a52.377 52.377 0 0016.3-.1l2.5 5.9a7.611 7.611 0 009.9 4l10.3-4.3a7.611 7.611 0 004-9.9l-2.5-5.9a55.016 55.016 0 0011.5-11.6l5.9 2.4a7.51 7.51 0 009.8-4.1l4.2-10.3a7.51 7.51 0 00-4.1-9.8l-5.9-2.4a52.376 52.376 0 00-.1-16.3l5.9-2.5a7.611 7.611 0 004-9.9l-4.3-10.3a7.611 7.611 0 00-9.9-4l-5.9 2.5a55.016 55.016 0 00-11.6-11.5l2.4-5.9a7.51 7.51 0 00-4.1-9.8l-10.3-4.2a7.51 7.51 0 00-9.8 4.1l-2.4 5.9a52.376 52.376 0 00-16.3.1l-2.5-5.9a7.611 7.611 0 00-9.9-4l-10.3 4.3a7.611 7.611 0 00-4 9.9l2.5 5.9a55.016 55.016 0 00-11.5 11.6l-5.9-2.4a7.461 7.461 0 00-9.8 4.1z"/><path data-name="Path 1516" d="M213.2 1451.3a27.048 27.048 0 11-2 38.2 27.046 27.046 0 012-38.2zm-12.5-20.2l-6.3 5.6a5.681 5.681 0 00-.4 8l3.2 3.6a43.507 43.507 0 00-5.3 11.1l-4.8-.3a5.768 5.768 0 00-6 5.4l-.4 8.4a5.768 5.768 0 005.4 6l4.8.3a41.2 41.2 0 004.1 11.6l-3.6 3.2a5.681 5.681 0 00-.4 8l5.6 6.3a5.681 5.681 0 008 .4l3.6-3.2a43.506 43.506 0 0011.1 5.3l-.3 4.8a5.768 5.768 0 005.4 6l8.4.4a5.768 5.768 0 006-5.4l.3-4.8a41.2 41.2 0 0011.6-4.1l3.2 3.6a5.681 5.681 0 008 .4l6.3-5.6a5.681 5.681 0 00.4-8l-3.2-3.6a43.507 43.507 0 005.3-11.1l4.8.3a5.768 5.768 0 006-5.4l.4-8.4a5.768 5.768 0 00-5.4-6l-4.8-.3a41.2 41.2 0 00-4.1-11.6l3.6-3.2a5.681 5.681 0 00.4-8l-5.6-6.3a5.681 5.681 0 00-8-.4l-3.6 3.2a43.506 43.506 0 00-11.1-5.3l.3-4.8a5.768 5.768 0 00-5.4-6l-8.4-.4a5.768 5.768 0 00-6 5.4l-.3 4.8a41.2 41.2 0 00-11.6 4.1l-3.2-3.6a5.681 5.681 0 00-8-.4z"/></g><g data-name="Group 902" fill="#e2e2e2"><path data-name="Path 1517" d="M211.9 1300.5a51.9 51.9 0 1151.9-51.9 51.853 51.853 0 01-51.9 51.9zm-8.1 44.8H220a10.926 10.926 0 0010.9-10.9v-9.3a78.976 78.976 0 0021.8-9l6.5 6.5a10.986 10.986 0 0015.4 0l11.4-11.4a10.986 10.986 0 000-15.4l-6.5-6.5a78.976 78.976 0 009-21.8h9.3a10.926 10.926 0 0010.9-10.9v-16.1a10.926 10.926 0 00-10.9-10.9h-9.3a78.976 78.976 0 00-9-21.8l6.5-6.5a10.986 10.986 0 000-15.4l-11.4-11.4a10.986 10.986 0 00-15.4 0l-6.5 6.5a78.976 78.976 0 00-21.8-9v-9.3a10.926 10.926 0 00-10.9-10.9h-16.1a10.926 10.926 0 00-10.9 10.9v9.3a78.976 78.976 0 00-21.8 9l-6.5-6.5a10.986 10.986 0 00-15.4 0l-11.5 11.5a10.986 10.986 0 000 15.4l6.5 6.5a78.976 78.976 0 00-9 21.8H126a10.926 10.926 0 00-10.9 10.9v16.1a10.926 10.926 0 0010.9 10.9h9.3a78.976 78.976 0 009 21.8l-6.5 6.5a10.986 10.986 0 000 15.4l11.4 11.4a10.986 10.986 0 0015.4 0l6.5-6.5a78.976 78.976 0 0021.8 9v9.3a10.9 10.9 0 0010.9 10.8z"/><path data-name="Path 1518" d="M120.8 1377.4a35.97 35.97 0 1119.7 46.9 35.965 35.965 0 01-19.7-46.9zm-26.6-16.9l-4.2 10.3a7.51 7.51 0 004.1 9.8l5.9 2.4a52.377 52.377 0 00.1 16.3l-5.9 2.5a7.611 7.611 0 00-4 9.9l4.3 10.3a7.611 7.611 0 009.9 4l5.9-2.5a55.016 55.016 0 0011.6 11.5l-2.4 5.9a7.51 7.51 0 004.1 9.8l10.3 4.2a7.51 7.51 0 009.8-4.1l2.4-5.9a52.377 52.377 0 0016.3-.1l2.5 5.9a7.611 7.611 0 009.9 4l10.3-4.3a7.611 7.611 0 004-9.9l-2.5-5.9a55.016 55.016 0 0011.5-11.6l5.9 2.4a7.51 7.51 0 009.8-4.1l4.2-10.3a7.51 7.51 0 00-4.1-9.8l-5.9-2.4a52.376 52.376 0 00-.1-16.3l5.9-2.5a7.611 7.611 0 004-9.9l-4.3-10.3a7.611 7.611 0 00-9.9-4l-5.9 2.5a55.016 55.016 0 00-11.6-11.5l2.4-5.9a7.51 7.51 0 00-4.1-9.8l-10.3-4.2a7.51 7.51 0 00-9.8 4.1l-2.3 5.9a52.376 52.376 0 00-16.3.1l-2.5-5.9a7.611 7.611 0 00-9.9-4l-10.3 4.2a7.611 7.611 0 00-4 9.9l2.5 5.9a55.016 55.016 0 00-11.5 11.6l-5.9-2.4a7.584 7.584 0 00-9.9 4.2z"/><path data-name="Path 1519" d="M212.9 1451a27.048 27.048 0 11-2 38.2 27.046 27.046 0 012-38.2zm-12.5-20.2l-6.3 5.6a5.681 5.681 0 00-.4 8l3.2 3.6a43.507 43.507 0 00-5.3 11.1l-4.8-.3a5.768 5.768 0 00-6 5.4l-.4 8.4a5.768 5.768 0 005.4 6l4.8.3a41.2 41.2 0 004.1 11.6l-3.6 3.2a5.681 5.681 0 00-.4 8l5.6 6.3a5.681 5.681 0 008 .4l3.6-3.2a43.506 43.506 0 0011.1 5.3l-.3 4.8a5.768 5.768 0 005.4 6l8.4.4a5.768 5.768 0 006-5.4l.3-4.8a41.2 41.2 0 0011.6-4.1l3.2 3.6a5.681 5.681 0 008 .4l6.3-5.6a5.681 5.681 0 00.4-8l-3.2-3.6a43.507 43.507 0 005.3-11.1l4.8.3a5.768 5.768 0 006-5.4l.4-8.4a5.768 5.768 0 00-5.4-6l-4.8-.3a41.2 41.2 0 00-4.1-11.6l3.6-3.2a5.681 5.681 0 00.4-8l-5.6-6.3a5.681 5.681 0 00-8-.4l-3.6 3.2a43.506 43.506 0 00-11.1-5.3l.3-4.8a5.768 5.768 0 00-5.4-6l-8.4-.4a5.768 5.768 0 00-6 5.4l-.3 4.8a41.2 41.2 0 00-11.6 4.1l-3.2-3.6a5.681 5.681 0 00-8-.4z"/></g><g data-name="Group 903" fill="#dfdfdf"><path data-name="Path 1520" d="M211.6 1300.2a51.9 51.9 0 1151.9-51.9 51.853 51.853 0 01-51.9 51.9zm-8.1 44.8h16.1a10.926 10.926 0 0010.9-10.9v-9.2a78.976 78.976 0 0021.8-9l6.5 6.5a10.986 10.986 0 0015.4 0l11.4-11.4a10.986 10.986 0 000-15.4l-6.5-6.5a78.976 78.976 0 009-21.8h9.3a10.926 10.926 0 0010.9-10.9v-16.1a10.926 10.926 0 00-10.9-10.9h-9.3a78.976 78.976 0 00-9-21.8l6.5-6.5a10.986 10.986 0 000-15.4l-11.4-11.4a10.986 10.986 0 00-15.4 0l-6.5 6.5a78.976 78.976 0 00-21.8-9v-9.3a10.926 10.926 0 00-10.9-10.9h-16.1a10.926 10.926 0 00-10.9 10.9v9.3a78.976 78.976 0 00-21.8 9l-6.5-6.5a10.986 10.986 0 00-15.4 0l-11.4 11.3a10.986 10.986 0 000 15.4l6.5 6.5a78.976 78.976 0 00-9 21.8h-9.3a10.926 10.926 0 00-10.9 10.9v16.1a10.926 10.926 0 0010.9 10.9h9.3a78.976 78.976 0 009 21.8l-6.5 6.5a10.986 10.986 0 000 15.4l11.4 11.4a10.986 10.986 0 0015.4 0l6.5-6.5a78.976 78.976 0 0021.8 9v9.3a10.926 10.926 0 0010.9 10.9z"/><path data-name="Path 1521" d="M120.5 1377a35.97 35.97 0 1119.7 46.9 35.965 35.965 0 01-19.7-46.9zm-26.6-16.9l-4.2 10.3a7.51 7.51 0 004.1 9.8l5.9 2.4a52.377 52.377 0 00.1 16.3l-5.9 2.5a7.611 7.611 0 00-4 9.9l4.3 10.3a7.611 7.611 0 009.9 4l5.9-2.5a55.016 55.016 0 0011.6 11.5l-2.4 5.9a7.51 7.51 0 004.1 9.8l10.3 4.2a7.51 7.51 0 009.8-4.1l2.4-5.9a52.377 52.377 0 0016.3-.1l2.5 5.9a7.611 7.611 0 009.9 4l10.3-4.3a7.611 7.611 0 004-9.9l-2.5-5.9a55.016 55.016 0 0011.5-11.6l5.9 2.4a7.51 7.51 0 009.8-4.1l4.2-10.3a7.51 7.51 0 00-4.1-9.8l-5.9-2.4a52.376 52.376 0 00-.1-16.3l5.9-2.5a7.611 7.611 0 004-9.9l-4.3-10.3a7.611 7.611 0 00-9.9-4l-5.9 2.5a55.016 55.016 0 00-11.6-11.5l2.4-5.9a7.51 7.51 0 00-4.1-9.8l-10.3-4.2a7.51 7.51 0 00-9.8 4.1l-2.4 5.9a52.376 52.376 0 00-16.3.1l-2.5-5.9a7.611 7.611 0 00-9.9-4l-10.3 4.3a7.611 7.611 0 00-4 9.9l2.5 5.9a55.016 55.016 0 00-11.5 11.6l-5.9-2.4a7.509 7.509 0 00-9.8 4.1z"/><path data-name="Path 1522" d="M212.6 1450.6a27.048 27.048 0 11-2 38.2 27.046 27.046 0 012-38.2zm-12.5-20.2l-6.3 5.6a5.681 5.681 0 00-.4 8l3.2 3.6a43.507 43.507 0 00-5.3 11.1l-4.8-.3a5.768 5.768 0 00-6 5.4l-.4 8.4a5.768 5.768 0 005.4 6l4.8.3a41.2 41.2 0 004.1 11.6l-3.6 3.2a5.681 5.681 0 00-.4 8l5.6 6.3a5.681 5.681 0 008 .4l3.6-3.2a43.506 43.506 0 0011.1 5.3l-.3 4.8a5.768 5.768 0 005.4 6l8.4.4a5.768 5.768 0 006-5.4l.3-4.8a41.2 41.2 0 0011.6-4.1l3.2 3.6a5.681 5.681 0 008 .4l6.3-5.6a5.681 5.681 0 00.4-8l-3.2-3.6a43.507 43.507 0 005.3-11.1l4.8.3a5.768 5.768 0 006-5.4l.4-8.4a5.768 5.768 0 00-5.4-6l-4.8-.3a41.2 41.2 0 00-4.1-11.6l3.6-3.2a5.681 5.681 0 00.4-8l-5.6-6.3a5.681 5.681 0 00-8-.4l-3.6 3.2a43.506 43.506 0 00-11.1-5.3l.3-4.8a5.768 5.768 0 00-5.4-6l-8.4-.4a5.768 5.768 0 00-6 5.4l-.3 4.8a41.2 41.2 0 00-11.6 4.1l-3.2-3.6a5.681 5.681 0 00-8-.4z"/></g><g data-name="Group 904" fill="#ddd"><path data-name="Path 1523" d="M211.2 1299.9a51.9 51.9 0 1151.9-51.9 51.853 51.853 0 01-51.9 51.9zm-8 44.8h16.1a10.926 10.926 0 0010.9-10.9v-9.3a78.976 78.976 0 0021.8-9l6.5 6.5a10.986 10.986 0 0015.4 0l11.4-11.4a10.986 10.986 0 000-15.4l-6.5-6.5a78.976 78.976 0 009-21.8h9.3A10.926 10.926 0 00308 1256v-16.1a10.926 10.926 0 00-10.9-10.9h-9.3a78.975 78.975 0 00-9-21.8l6.5-6.5a10.986 10.986 0 000-15.4l-11.4-11.4a10.986 10.986 0 00-15.4 0l-6.5 6.5a78.976 78.976 0 00-21.8-9v-9.3a10.926 10.926 0 00-10.9-10.9h-16.1a10.926 10.926 0 00-10.9 10.9v9.3a78.976 78.976 0 00-21.8 9l-6.5-6.5a10.986 10.986 0 00-15.4 0l-11.4 11.4a10.986 10.986 0 000 15.4l6.5 6.5a78.976 78.976 0 00-9 21.8h-9.3a10.926 10.926 0 00-10.9 10.9v16.1a10.926 10.926 0 0010.9 10.9h9.3a78.976 78.976 0 009 21.8l-6.5 6.5a10.986 10.986 0 000 15.4l11.4 11.4a10.986 10.986 0 0015.4 0l6.5-6.5a78.976 78.976 0 0021.8 9v9.3a10.926 10.926 0 0010.9 10.9z"/><path data-name="Path 1524" d="M120.2 1376.7a35.97 35.97 0 1119.7 46.9 35.965 35.965 0 01-19.7-46.9zm-26.6-16.9l-4.2 10.3a7.51 7.51 0 004.1 9.8l5.9 2.4a52.377 52.377 0 00.1 16.3l-5.9 2.5a7.611 7.611 0 00-4 9.9l4.3 10.3a7.611 7.611 0 009.9 4l5.9-2.5a55.016 55.016 0 0011.6 11.5l-2.4 5.9a7.51 7.51 0 004.1 9.8l10.3 4.2a7.51 7.51 0 009.8-4.1l2.4-5.9a52.377 52.377 0 0016.3-.1l2.5 5.9a7.611 7.611 0 009.9 4l10.3-4.3a7.611 7.611 0 004-9.9l-2.5-5.9a55.016 55.016 0 0011.5-11.6l5.9 2.4a7.51 7.51 0 009.8-4.1l4.2-10.3a7.51 7.51 0 00-4.1-9.8l-5.9-2.4a52.376 52.376 0 00-.1-16.3l5.9-2.5a7.611 7.611 0 004-9.9l-4.3-10.3a7.611 7.611 0 00-9.9-4l-5.9 2.5a55.016 55.016 0 00-11.6-11.5l2.4-5.9a7.51 7.51 0 00-4.1-9.8l-10.3-4.2a7.51 7.51 0 00-9.8 4.1l-2.4 5.9a52.376 52.376 0 00-16.3.1l-2.5-5.9a7.611 7.611 0 00-9.9-4l-10.3 4.3a7.611 7.611 0 00-4 9.9l2.5 5.9a55.016 55.016 0 00-11.5 11.6l-5.9-2.4a7.509 7.509 0 00-9.8 4.1z"/><path data-name="Path 1525" d="M212.2 1450.3a27.048 27.048 0 11-2 38.2 27.046 27.046 0 012-38.2zm-12.5-20.2l-6.3 5.6a5.681 5.681 0 00-.4 8l3.2 3.6a43.507 43.507 0 00-5.3 11.1l-4.8-.3a5.768 5.768 0 00-6 5.4l-.4 8.4a5.768 5.768 0 005.4 6l4.8.3a41.2 41.2 0 004.1 11.6l-3.6 3.2a5.681 5.681 0 00-.4 8l5.6 6.3a5.681 5.681 0 008 .4l3.6-3.2a43.506 43.506 0 0011.1 5.3l-.3 4.8a5.768 5.768 0 005.4 6l8.4.4a5.768 5.768 0 006-5.4l.3-4.8a41.2 41.2 0 0011.6-4.1l3.2 3.6a5.681 5.681 0 008 .4l6.3-5.6a5.681 5.681 0 00.4-8l-3.2-3.6a43.507 43.507 0 005.3-11.1l4.8.3a5.768 5.768 0 006-5.4l.4-8.4a5.768 5.768 0 00-5.4-6l-4.8-.3a41.2 41.2 0 00-4.1-11.6l3.6-3.2a5.681 5.681 0 00.4-8l-5.6-6.3a5.681 5.681 0 00-8-.4l-3.6 3.2a43.506 43.506 0 00-11.1-5.3l.3-4.8a5.768 5.768 0 00-5.4-6l-8.4-.4a5.768 5.768 0 00-6 5.4l-.3 4.8a41.2 41.2 0 00-11.6 4.1l-3.2-3.6a5.671 5.671 0 00-8-.4z"/></g><g data-name="Group 905" fill="#dbdbdb"><path data-name="Path 1526" d="M210.9 1299.6a51.9 51.9 0 1151.9-51.9 51.853 51.853 0 01-51.9 51.9zm-8 44.8H219a10.926 10.926 0 0010.9-10.9v-9.3a78.976 78.976 0 0021.8-9l6.5 6.5a10.986 10.986 0 0015.4 0l11.4-11.4a10.986 10.986 0 000-15.4l-6.5-6.5a78.976 78.976 0 009-21.8h9.3a10.926 10.926 0 0010.9-10.9v-16.1a10.926 10.926 0 00-10.9-10.9h-9.3a78.976 78.976 0 00-9-21.8l6.5-6.5a10.986 10.986 0 000-15.4l-11.4-11.4a10.986 10.986 0 00-15.4 0l-6.5 6.5a78.976 78.976 0 00-21.8-9v-9.2A10.926 10.926 0 00219 1151h-16.1a10.926 10.926 0 00-10.9 10.9v9.3a78.976 78.976 0 00-21.8 9l-6.5-6.5a10.986 10.986 0 00-15.4 0l-11.5 11.3a10.986 10.986 0 000 15.4l6.5 6.5a78.976 78.976 0 00-9 21.8H125a10.926 10.926 0 00-10.9 10.9v16.1a10.926 10.926 0 0010.9 10.9h9.3a78.976 78.976 0 009 21.8l-6.5 6.5a10.986 10.986 0 000 15.4l11.4 11.4a10.986 10.986 0 0015.4 0l6.5-6.5a78.976 78.976 0 0021.8 9v9.3a11.077 11.077 0 0011 10.9z"/><path data-name="Path 1527" d="M119.8 1376.4a35.97 35.97 0 1119.7 46.9 35.965 35.965 0 01-19.7-46.9zm-26.6-16.9l-4.2 10.3a7.51 7.51 0 004.1 9.8l5.9 2.4a52.377 52.377 0 00.1 16.3l-5.9 2.5a7.611 7.611 0 00-4 9.9l4.3 10.3a7.611 7.611 0 009.9 4l5.9-2.5a55.016 55.016 0 0011.6 11.5l-2.4 5.9a7.51 7.51 0 004.1 9.8l10.3 4.2a7.51 7.51 0 009.8-4.1l2.4-5.9a52.377 52.377 0 0016.3-.1l2.5 5.9a7.611 7.611 0 009.9 4l10.3-4.3a7.611 7.611 0 004-9.9l-2.5-5.9a55.016 55.016 0 0011.5-11.6l5.9 2.4a7.51 7.51 0 009.8-4.1l4.2-10.3a7.51 7.51 0 00-4.1-9.8l-5.9-2.4a52.376 52.376 0 00-.1-16.3l5.9-2.5a7.611 7.611 0 004-9.9l-4.3-10.3a7.611 7.611 0 00-9.9-4l-5.9 2.5a55.016 55.016 0 00-11.6-11.5l2.4-5.9a7.51 7.51 0 00-4.1-9.8l-10.3-4.2a7.51 7.51 0 00-9.8 4.1l-2.3 5.9a52.376 52.376 0 00-16.3.1l-2.5-5.9a7.611 7.611 0 00-9.9-4l-10.3 4.3a7.611 7.611 0 00-4 9.9l2.5 5.9a55.016 55.016 0 00-11.5 11.6l-5.9-2.4a7.538 7.538 0 00-9.9 4.1z"/><path data-name="Path 1528" d="M211.9 1450a27.048 27.048 0 11-2 38.2 27.046 27.046 0 012-38.2zm-12.5-20.2l-6.3 5.6a5.681 5.681 0 00-.4 8l3.2 3.6a43.507 43.507 0 00-5.3 11.1l-4.8-.3a5.768 5.768 0 00-6 5.4l-.4 8.4a5.768 5.768 0 005.4 6l4.8.3a41.2 41.2 0 004.1 11.6l-3.6 3.2a5.681 5.681 0 00-.4 8l5.6 6.3a5.681 5.681 0 008 .4l3.6-3.2a43.506 43.506 0 0011.1 5.3l-.3 4.8a5.768 5.768 0 005.4 6l8.4.4a5.768 5.768 0 006-5.4l.3-4.8a41.2 41.2 0 0011.6-4.1l3.2 3.6a5.681 5.681 0 008 .4l6.3-5.6a5.681 5.681 0 00.4-8l-3.2-3.6a43.507 43.507 0 005.3-11.1l4.8.3a5.768 5.768 0 006-5.4l.4-8.4a5.768 5.768 0 00-5.4-6l-4.8-.3a41.2 41.2 0 00-4.1-11.6l3.6-3.2a5.681 5.681 0 00.4-8l-5.6-6.3a5.681 5.681 0 00-8-.4l-3.6 3.2a43.506 43.506 0 00-11.1-5.3l.3-4.8a5.768 5.768 0 00-5.4-6l-8.4-.4a5.768 5.768 0 00-6 5.4l-.3 4.8a41.2 41.2 0 00-11.6 4.1l-3.2-3.6a5.681 5.681 0 00-8-.4z"/></g><g data-name="Group 906" fill="#d8d8d8"><path data-name="Path 1529" d="M210.6 1299.2a51.9 51.9 0 1151.9-51.9 51.853 51.853 0 01-51.9 51.9zm-8.1 44.8h16.1a10.926 10.926 0 0010.9-10.9v-9.2a78.976 78.976 0 0021.8-9l6.5 6.5a10.986 10.986 0 0015.4 0l11.4-11.4a10.986 10.986 0 000-15.4l-6.5-6.5a78.976 78.976 0 009-21.8h9.3a10.926 10.926 0 0010.9-10.9v-16.1a10.926 10.926 0 00-10.9-10.9h-9.3a78.976 78.976 0 00-9-21.8l6.5-6.5a10.986 10.986 0 000-15.4l-11.4-11.4a10.986 10.986 0 00-15.4 0l-6.5 6.5a78.976 78.976 0 00-21.8-9v-9.3a10.926 10.926 0 00-10.9-10.9h-16.1a10.926 10.926 0 00-10.9 10.9v9.3a78.976 78.976 0 00-21.8 9l-6.5-6.5a10.986 10.986 0 00-15.4 0l-11.4 11.4a10.986 10.986 0 000 15.4l6.5 6.5a78.976 78.976 0 00-9 21.8h-9.3a10.926 10.926 0 00-10.9 10.9v16.1a10.926 10.926 0 0010.9 10.9h9.3a78.976 78.976 0 009 21.8l-6.5 6.5a10.986 10.986 0 000 15.4l11.4 11.4a10.986 10.986 0 0015.4 0l6.5-6.5a78.976 78.976 0 0021.8 9v9.3a10.905 10.905 0 0010.9 10.8z"/><path data-name="Path 1530" d="M119.5 1376.1a35.97 35.97 0 1119.7 46.9 35.965 35.965 0 01-19.7-46.9zm-26.6-16.9l-4.2 10.3a7.51 7.51 0 004.1 9.8l5.9 2.4a52.377 52.377 0 00.1 16.3l-5.9 2.5a7.611 7.611 0 00-4 9.9l4.3 10.3a7.611 7.611 0 009.9 4l5.9-2.5a55.016 55.016 0 0011.6 11.5l-2.4 5.9a7.51 7.51 0 004.1 9.8l10.3 4.2a7.51 7.51 0 009.8-4.1l2.4-5.9a52.377 52.377 0 0016.3-.1l2.5 5.9a7.611 7.611 0 009.9 4l10.3-4.3a7.611 7.611 0 004-9.9l-2.5-5.9a55.016 55.016 0 0011.5-11.6l5.9 2.4a7.51 7.51 0 009.8-4.1l4.2-10.3a7.51 7.51 0 00-4.1-9.8l-5.9-2.4a52.376 52.376 0 00-.1-16.3l5.9-2.5a7.611 7.611 0 004-9.9l-4.3-10.3a7.611 7.611 0 00-9.9-4l-5.9 2.5a55.016 55.016 0 00-11.6-11.5l2.4-5.9a7.51 7.51 0 00-4.1-9.8l-10.3-4.2a7.51 7.51 0 00-9.8 4.1l-2.4 5.9a52.376 52.376 0 00-16.3.1l-2.5-5.9a7.611 7.611 0 00-9.9-4l-10.3 4.3a7.611 7.611 0 00-4 9.9l2.5 5.9a55.016 55.016 0 00-11.5 11.6l-5.9-2.4a7.381 7.381 0 00-9.8 4.1z"/><path data-name="Path 1531" d="M211.6 1449.7a27.048 27.048 0 11-2 38.2 27.046 27.046 0 012-38.2zm-12.5-20.2l-6.3 5.6a5.681 5.681 0 00-.4 8l3.2 3.6a43.507 43.507 0 00-5.3 11.1l-4.8-.3a5.768 5.768 0 00-6 5.4l-.4 8.4a5.768 5.768 0 005.4 6l4.8.3a41.2 41.2 0 004.1 11.6l-3.6 3.2a5.681 5.681 0 00-.4 8l5.6 6.3a5.681 5.681 0 008 .4l3.6-3.2a43.506 43.506 0 0011.1 5.3l-.3 4.8a5.768 5.768 0 005.4 6l8.4.4a5.768 5.768 0 006-5.4l.3-4.8a41.2 41.2 0 0011.6-4.1l3.2 3.6a5.681 5.681 0 008 .4l6.3-5.6a5.681 5.681 0 00.4-8l-3.2-3.6a43.507 43.507 0 005.3-11.1l4.8.3a5.768 5.768 0 006-5.4l.4-8.4a5.768 5.768 0 00-5.4-6l-4.8-.3a41.2 41.2 0 00-4.1-11.6l3.6-3.2a5.681 5.681 0 00.4-8l-5.6-6.3a5.681 5.681 0 00-8-.4l-3.6 3.2a43.506 43.506 0 00-11.1-5.3l.3-4.8a5.768 5.768 0 00-5.4-6l-8.4-.4a5.768 5.768 0 00-6 5.4l-.3 4.8a41.2 41.2 0 00-11.6 4.1l-3.2-3.6a5.681 5.681 0 00-8-.4z"/></g><g data-name="Group 907" fill="#d6d6d6"><path data-name="Path 1532" d="M210.3 1298.9a51.9 51.9 0 1151.9-51.9 51.853 51.853 0 01-51.9 51.9zm-8.1 44.8h16.1a10.926 10.926 0 0010.9-10.9v-9.3a78.976 78.976 0 0021.8-9l6.5 6.5a10.986 10.986 0 0015.4 0l11.4-11.4a10.986 10.986 0 000-15.4l-6.5-6.5a78.976 78.976 0 009-21.8h9.3A10.926 10.926 0 00307 1255v-16.1a10.926 10.926 0 00-10.9-10.9h-9.3a78.976 78.976 0 00-9-21.8l6.5-6.5a10.986 10.986 0 000-15.4l-11.3-11.4a10.986 10.986 0 00-15.4 0l-6.5 6.5a78.976 78.976 0 00-21.8-9v-9.3a10.926 10.926 0 00-10.9-10.9h-16.1a10.926 10.926 0 00-10.9 10.9v9.3a78.976 78.976 0 00-21.8 9l-6.6-6.5a10.986 10.986 0 00-15.4 0l-11.4 11.4a10.986 10.986 0 000 15.4l6.5 6.5a78.976 78.976 0 00-9 21.8h-9.3a10.926 10.926 0 00-10.9 10.9v16.1a10.926 10.926 0 0010.9 10.9h9.3a78.976 78.976 0 009 21.8l-6.5 6.5a10.986 10.986 0 000 15.4l11.4 11.4a10.986 10.986 0 0015.4 0l6.5-6.5a78.976 78.976 0 0021.8 9v9.3a10.926 10.926 0 0010.9 10.9z"/><path data-name="Path 1533" d="M119.2 1375.7a35.97 35.97 0 1119.7 46.9 35.965 35.965 0 01-19.7-46.9zm-26.6-16.9l-4.2 10.3a7.51 7.51 0 004.1 9.8l5.9 2.4a52.377 52.377 0 00.1 16.3l-5.9 2.5a7.611 7.611 0 00-4 9.9l4.3 10.3a7.611 7.611 0 009.9 4l5.9-2.5a55.016 55.016 0 0011.6 11.5l-2.4 5.9a7.51 7.51 0 004.1 9.8l10.3 4.2a7.51 7.51 0 009.8-4.1l2.4-5.9a52.377 52.377 0 0016.3-.1l2.5 5.9a7.611 7.611 0 009.9 4l10.3-4.3a7.611 7.611 0 004-9.9l-2.5-5.9a55.016 55.016 0 0011.5-11.6l5.9 2.4a7.51 7.51 0 009.8-4.1l4.2-10.3a7.51 7.51 0 00-4.1-9.8l-5.9-2.4a52.376 52.376 0 00-.1-16.3l5.9-2.5a7.611 7.611 0 004-9.9l-4.3-10.3a7.611 7.611 0 00-9.9-4l-5.9 2.5a55.016 55.016 0 00-11.6-11.5l2.4-5.9a7.51 7.51 0 00-4.1-9.8l-10.3-4.2a7.51 7.51 0 00-9.8 4.1l-2.4 5.9a52.376 52.376 0 00-16.3.1l-2.5-5.9a7.611 7.611 0 00-9.9-4l-10.3 4.3a7.611 7.611 0 00-4 9.9l2.5 5.9a55.016 55.016 0 00-11.5 11.6l-5.9-2.4a7.509 7.509 0 00-9.8 4.1z"/><path data-name="Path 1534" d="M211.3 1449.3a27.048 27.048 0 11-2 38.2 27.046 27.046 0 012-38.2zm-12.5-20.2l-6.3 5.6a5.681 5.681 0 00-.4 8l3.2 3.6a43.507 43.507 0 00-5.3 11.1l-4.8-.3a5.768 5.768 0 00-6 5.4l-.4 8.4a5.768 5.768 0 005.4 6l4.8.3a41.2 41.2 0 004.1 11.6l-3.6 3.2a5.681 5.681 0 00-.4 8l5.6 6.3a5.681 5.681 0 008 .4l3.6-3.2a43.506 43.506 0 0011.1 5.3l-.3 4.8a5.768 5.768 0 005.4 6l8.4.4a5.768 5.768 0 006-5.4l.3-4.8a41.2 41.2 0 0011.6-4.1l3.2 3.6a5.681 5.681 0 008 .4l6.3-5.6a5.681 5.681 0 00.4-8l-3.2-3.6a43.507 43.507 0 005.3-11.1l4.8.3a5.768 5.768 0 006-5.4l.4-8.4a5.768 5.768 0 00-5.4-6l-4.8-.3a41.2 41.2 0 00-4.1-11.6l3.6-3.2a5.681 5.681 0 00.4-8l-5.6-6.3a5.681 5.681 0 00-8-.4l-3.6 3.2a43.506 43.506 0 00-11.1-5.3l.3-4.8a5.768 5.768 0 00-5.4-6l-8.4-.4a5.768 5.768 0 00-6 5.4l-.3 4.8a41.2 41.2 0 00-11.6 4.1l-3.2-3.6a5.681 5.681 0 00-8-.4z"/></g><g data-name="Group 908" fill="#d3d3d3"><path data-name="Path 1535" d="M209.9 1298.6a51.9 51.9 0 1151.9-51.9 51.853 51.853 0 01-51.9 51.9zm-8 44.8H218a10.926 10.926 0 0010.9-10.9v-9.3a78.976 78.976 0 0021.8-9l6.5 6.5a10.986 10.986 0 0015.4 0l11.4-11.4a10.986 10.986 0 000-15.4l-6.5-6.5a78.976 78.976 0 009-21.8h9.3a10.926 10.926 0 0010.9-10.9v-16.1a10.926 10.926 0 00-10.9-10.9h-9.3a78.976 78.976 0 00-9-21.8l6.5-6.5a10.986 10.986 0 000-15.4l-11.4-11.4a10.986 10.986 0 00-15.4 0l-6.5 6.5a78.976 78.976 0 00-21.8-9v-9.2A10.926 10.926 0 00218 1150h-16.1a10.926 10.926 0 00-10.9 10.9v9.3a78.976 78.976 0 00-21.8 9l-6.5-6.5a10.986 10.986 0 00-15.4 0l-11.4 11.3a10.986 10.986 0 000 15.4l6.5 6.5a78.976 78.976 0 00-9 21.8h-9.3a10.926 10.926 0 00-10.9 10.9v16.1a10.926 10.926 0 0010.9 10.9h9.3a78.976 78.976 0 009 21.8l-6.5 6.5a10.986 10.986 0 000 15.4l11.4 11.4a10.986 10.986 0 0015.4 0l6.5-6.5a78.976 78.976 0 0021.8 9v9.3a10.926 10.926 0 0010.9 10.9z"/><path data-name="Path 1536" d="M118.9 1375.4a35.97 35.97 0 1119.7 46.9 35.965 35.965 0 01-19.7-46.9zm-26.6-16.9l-4.3 10.3a7.51 7.51 0 004.1 9.8l5.9 2.4a52.377 52.377 0 00.1 16.3l-5.9 2.5a7.611 7.611 0 00-4 9.9l4.3 10.3a7.611 7.611 0 009.9 4l5.9-2.5a55.016 55.016 0 0011.6 11.5l-2.4 5.9a7.51 7.51 0 004.1 9.8l10.3 4.2a7.51 7.51 0 009.8-4.1l2.4-5.9a52.377 52.377 0 0016.3-.1l2.5 5.9a7.611 7.611 0 009.9 4l10.3-4.3a7.611 7.611 0 004-9.9l-2.5-5.9a55.016 55.016 0 0011.5-11.6l5.9 2.4a7.51 7.51 0 009.8-4.1l4.2-10.3a7.51 7.51 0 00-4.1-9.8l-5.9-2.4a52.376 52.376 0 00-.1-16.3l5.9-2.5a7.611 7.611 0 004-9.9l-4.3-10.3a7.611 7.611 0 00-9.9-4l-5.9 2.5a55.016 55.016 0 00-11.6-11.5l2.4-5.9a7.51 7.51 0 00-4.1-9.8l-10.3-4.2a7.51 7.51 0 00-9.8 4.1l-2.3 5.9a52.376 52.376 0 00-16.3.1l-2.5-5.9a7.611 7.611 0 00-9.9-4l-10.3 4.3a7.611 7.611 0 00-4 9.9l2.5 5.9a55.016 55.016 0 00-11.5 11.6l-5.9-2.4a7.509 7.509 0 00-9.8 4.1z"/><path data-name="Path 1537" d="M210.9 1449a27.048 27.048 0 11-2 38.2 27.046 27.046 0 012-38.2zm-12.5-20.2l-6.3 5.6a5.681 5.681 0 00-.4 8l3.2 3.6a43.507 43.507 0 00-5.3 11.1l-4.8-.3a5.768 5.768 0 00-6 5.4l-.4 8.4a5.768 5.768 0 005.4 6l4.8.3a41.2 41.2 0 004.1 11.6l-3.6 3.2a5.681 5.681 0 00-.4 8l5.6 6.3a5.681 5.681 0 008 .4l3.6-3.2a43.506 43.506 0 0011.1 5.3l-.3 4.8a5.768 5.768 0 005.4 6l8.4.4a5.768 5.768 0 006-5.4l.3-4.8a41.2 41.2 0 0011.6-4.1l3.2 3.6a5.681 5.681 0 008 .4l6.3-5.6a5.681 5.681 0 00.4-8l-3.2-3.6a43.507 43.507 0 005.3-11.1l4.8.3a5.768 5.768 0 006-5.4l.4-8.4a5.768 5.768 0 00-5.4-6l-4.8-.3a41.2 41.2 0 00-4.1-11.6l3.6-3.2a5.681 5.681 0 00.4-8l-5.6-6.3a5.681 5.681 0 00-8-.4l-3.6 3.2a43.506 43.506 0 00-11.1-5.3l.3-4.8a5.768 5.768 0 00-5.4-6l-8.4-.4a5.768 5.768 0 00-6 5.4l-.3 4.8a41.2 41.2 0 00-11.6 4.1l-3.2-3.6a5.671 5.671 0 00-8-.4z"/></g><g data-name="Group 909" fill="#d1d1d1"><path data-name="Path 1538" d="M209.6 1298.3a51.9 51.9 0 1151.9-51.9 51.853 51.853 0 01-51.9 51.9zm-8 44.8h16.1a10.926 10.926 0 0010.9-10.9v-9.3a78.976 78.976 0 0021.8-9l6.5 6.5a10.986 10.986 0 0015.4 0l11.4-11.4a10.986 10.986 0 000-15.4l-6.5-6.5a78.976 78.976 0 009-21.8h9.3a10.926 10.926 0 0010.9-10.9v-16.1a10.926 10.926 0 00-10.9-10.9h-9.3a78.976 78.976 0 00-9-21.8l6.5-6.5a10.986 10.986 0 000-15.4l-11.4-11.4a10.986 10.986 0 00-15.4 0l-6.5 6.5a78.976 78.976 0 00-21.8-9v-9.3a10.926 10.926 0 00-10.9-10.9h-16.1a10.926 10.926 0 00-10.9 10.9v9.3a78.976 78.976 0 00-21.8 9l-6.5-6.5a10.986 10.986 0 00-15.4 0l-11.5 11.4a10.986 10.986 0 000 15.4l6.5 6.5a78.976 78.976 0 00-9 21.8h-9.3a10.926 10.926 0 00-10.9 10.9v16.1a10.926 10.926 0 0010.9 10.9h9.3a78.976 78.976 0 009 21.8l-6.5 6.5a10.986 10.986 0 000 15.4l11.4 11.4a10.986 10.986 0 0015.4 0l6.5-6.5a78.976 78.976 0 0021.8 9v9.3a11.077 11.077 0 0011 10.9z"/><path data-name="Path 1539" d="M118.5 1375.1a35.97 35.97 0 1119.7 46.9 35.965 35.965 0 01-19.7-46.9zm-26.6-16.9l-4.2 10.3a7.51 7.51 0 004.1 9.8l5.9 2.4a52.377 52.377 0 00.1 16.3l-5.9 2.5a7.611 7.611 0 00-4 9.9l4.3 10.3a7.611 7.611 0 009.9 4l5.9-2.5a55.016 55.016 0 0011.6 11.5l-2.4 5.9a7.51 7.51 0 004.1 9.8l10.3 4.2a7.51 7.51 0 009.8-4.1l2.4-5.9a52.377 52.377 0 0016.3-.1l2.5 5.9a7.611 7.611 0 009.9 4l10.3-4.3a7.611 7.611 0 004-9.9l-2.5-5.9a55.016 55.016 0 0011.5-11.6l5.9 2.4a7.51 7.51 0 009.8-4.1l4.2-10.3a7.51 7.51 0 00-4.1-9.8l-5.9-2.4a52.376 52.376 0 00-.1-16.3l5.9-2.5a7.611 7.611 0 004-9.9l-4.3-10.3a7.611 7.611 0 00-9.9-4l-5.9 2.5a55.016 55.016 0 00-11.6-11.5l2.4-5.9a7.51 7.51 0 00-4.1-9.8l-10.3-4.2a7.51 7.51 0 00-9.8 4.1l-2.4 5.9a52.376 52.376 0 00-16.3.1l-2.5-5.9a7.611 7.611 0 00-9.9-4l-10.3 4.3a7.611 7.611 0 00-4 9.9l2.5 5.9a55.016 55.016 0 00-11.5 11.6l-5.9-2.4a7.461 7.461 0 00-9.8 4.1z"/><path data-name="Path 1540" d="M210.6 1448.7a27.048 27.048 0 11-2 38.2 27.046 27.046 0 012-38.2zm-12.5-20.2l-6.3 5.6a5.681 5.681 0 00-.4 8l3.2 3.6a43.507 43.507 0 00-5.3 11.1l-4.8-.3a5.768 5.768 0 00-6 5.4l-.4 8.4a5.768 5.768 0 005.4 6l4.8.3a41.2 41.2 0 004.1 11.6l-3.6 3.2a5.681 5.681 0 00-.4 8l5.6 6.3a5.681 5.681 0 008 .4l3.6-3.2a43.506 43.506 0 0011.1 5.3l-.3 4.8a5.768 5.768 0 005.4 6l8.4.4a5.768 5.768 0 006-5.4l.3-4.8a41.2 41.2 0 0011.6-4.1l3.2 3.6a5.681 5.681 0 008 .4l6.3-5.6a5.681 5.681 0 00.4-8l-3.2-3.6a43.507 43.507 0 005.3-11.1l4.8.3a5.768 5.768 0 006-5.4l.4-8.4a5.768 5.768 0 00-5.4-6l-4.8-.3a41.2 41.2 0 00-4.1-11.6l3.6-3.2a5.681 5.681 0 00.4-8l-5.6-6.3a5.681 5.681 0 00-8-.4l-3.6 3.2a43.506 43.506 0 00-11.1-5.3l.3-4.8a5.768 5.768 0 00-5.4-6l-8.4-.4a5.768 5.768 0 00-6 5.4l-.3 4.8a41.2 41.2 0 00-11.6 4.1l-3.2-3.6a5.681 5.681 0 00-8-.4z"/></g><g data-name="Group 910" fill="#cecece"><path data-name="Path 1541" d="M209.3 1297.9a51.9 51.9 0 1151.9-51.9 51.853 51.853 0 01-51.9 51.9zm-8.1 44.8h16.1a10.926 10.926 0 0010.9-10.9v-9.3a78.976 78.976 0 0021.8-9l6.5 6.5a10.986 10.986 0 0015.4 0l11.4-11.4a10.986 10.986 0 000-15.4l-6.5-6.5a78.976 78.976 0 009-21.8h9.3A10.926 10.926 0 00306 1254v-16.1a10.926 10.926 0 00-10.9-10.9h-9.3a78.976 78.976 0 00-9-21.8l6.5-6.5a10.986 10.986 0 000-15.4L272 1172a10.986 10.986 0 00-15.4 0l-6.5 6.5a78.976 78.976 0 00-21.8-9v-9.3a10.926 10.926 0 00-10.9-10.9h-16.1a10.926 10.926 0 00-10.9 10.9v9.3a78.976 78.976 0 00-21.8 9l-6.5-6.5a10.986 10.986 0 00-15.4 0l-11.5 11.4a10.986 10.986 0 000 15.4l6.5 6.5a78.976 78.976 0 00-9 21.8h-9.3a10.926 10.926 0 00-10.9 10.9v16.1a10.926 10.926 0 0010.9 10.9h9.3a78.976 78.976 0 009 21.8l-6.5 6.5a10.986 10.986 0 000 15.4l11.4 11.4a10.986 10.986 0 0015.4 0l6.5-6.5a78.976 78.976 0 0021.8 9v9.3a10.905 10.905 0 0010.9 10.8z"/><path data-name="Path 1542" d="M118.2 1374.8a35.97 35.97 0 1119.7 46.9 35.965 35.965 0 01-19.7-46.9zm-26.6-16.9l-4.2 10.3a7.51 7.51 0 004.1 9.8l5.9 2.4a52.377 52.377 0 00.1 16.3l-5.9 2.5a7.611 7.611 0 00-4 9.9l4.3 10.3a7.611 7.611 0 009.9 4l5.9-2.5a55.016 55.016 0 0011.6 11.5l-2.4 5.9a7.51 7.51 0 004.1 9.8l10.3 4.2a7.51 7.51 0 009.8-4.1l2.4-5.9a52.377 52.377 0 0016.3-.1l2.5 5.9a7.611 7.611 0 009.9 4l10.3-4.3a7.611 7.611 0 004-9.9l-2.5-5.9a55.016 55.016 0 0011.5-11.6l5.9 2.4a7.51 7.51 0 009.8-4.1l4.2-10.3a7.51 7.51 0 00-4.1-9.8l-5.9-2.4a52.376 52.376 0 00-.1-16.3l5.9-2.5a7.611 7.611 0 004-9.9l-4.3-10.3a7.611 7.611 0 00-9.9-4l-5.9 2.5a55.016 55.016 0 00-11.6-11.5l2.4-5.9a7.51 7.51 0 00-4.1-9.8l-10.3-4.2a7.51 7.51 0 00-9.8 4.1l-2.4 5.9a52.376 52.376 0 00-16.3.1l-2.5-5.9a7.611 7.611 0 00-9.9-4l-10.3 4.3a7.611 7.611 0 00-4 9.9l2.5 5.9a55.016 55.016 0 00-11.5 11.6l-5.9-2.4a7.381 7.381 0 00-9.8 4.1z"/><path data-name="Path 1543" d="M210.3 1448.4a27.048 27.048 0 11-2 38.2 27.046 27.046 0 012-38.2zm-12.5-20.2l-6.3 5.6a5.681 5.681 0 00-.4 8l3.2 3.6a43.507 43.507 0 00-5.3 11.1l-4.8-.3a5.768 5.768 0 00-6 5.4l-.4 8.4a5.768 5.768 0 005.4 6l4.8.3a41.2 41.2 0 004.1 11.6l-3.6 3.2a5.681 5.681 0 00-.4 8l5.6 6.3a5.681 5.681 0 008 .4l3.6-3.2a43.506 43.506 0 0011.1 5.3l-.3 4.8a5.768 5.768 0 005.4 6l8.4.4a5.768 5.768 0 006-5.4l.3-4.8a41.2 41.2 0 0011.6-4.1l3.2 3.6a5.681 5.681 0 008 .4l6.3-5.6a5.681 5.681 0 00.4-8l-3.2-3.6a43.507 43.507 0 005.3-11.1l4.8.3a5.768 5.768 0 006-5.4l.4-8.4a5.768 5.768 0 00-5.4-6l-4.8-.3a41.2 41.2 0 00-4.1-11.6l3.6-3.2a5.681 5.681 0 00.4-8l-5.6-6.3a5.681 5.681 0 00-8-.4l-3.6 3.2a43.506 43.506 0 00-11.1-5.3l.3-4.8a5.768 5.768 0 00-5.4-6l-8.4-.4a5.768 5.768 0 00-6 5.4l-.3 4.8a41.2 41.2 0 00-11.6 4.1l-3.2-3.6a5.682 5.682 0 00-8-.4z"/></g><g data-name="Group 911" fill="#ccc"><path data-name="Path 1544" d="M209 1297.6a51.9 51.9 0 1151.9-51.9 51.853 51.853 0 01-51.9 51.9zm-8.1 44.8H217a10.926 10.926 0 0010.9-10.9v-9.3a78.976 78.976 0 0021.8-9l6.5 6.5a10.986 10.986 0 0015.4 0l11.4-11.4a10.986 10.986 0 000-15.4l-6.5-6.5a78.976 78.976 0 009-21.8h9.3a10.926 10.926 0 0010.9-10.9v-16.1a10.926 10.926 0 00-10.9-10.9h-9.3a78.976 78.976 0 00-9-21.8l6.5-6.5a10.986 10.986 0 000-15.4l-11.4-11.4a10.986 10.986 0 00-15.4 0l-6.5 6.5a78.976 78.976 0 00-21.8-9v-9.2A10.926 10.926 0 00217 1149h-16.1a10.926 10.926 0 00-10.9 10.9v9.3a78.976 78.976 0 00-21.8 9l-6.5-6.5a10.986 10.986 0 00-15.4 0l-11.4 11.3a10.986 10.986 0 000 15.4l6.5 6.5a78.976 78.976 0 00-9 21.8h-9.3a10.926 10.926 0 00-10.9 10.9v16.1a10.926 10.926 0 0010.9 10.9h9.3a78.976 78.976 0 009 21.8l-6.5 6.5a10.986 10.986 0 000 15.4l11.4 11.4a10.986 10.986 0 0015.4 0l6.5-6.5a78.976 78.976 0 0021.8 9v9.3a10.926 10.926 0 0010.9 10.9z"/><path data-name="Path 1545" d="M117.9 1374.4a35.97 35.97 0 1119.7 46.9 35.965 35.965 0 01-19.7-46.9zm-26.6-16.9l-4.2 10.4a7.51 7.51 0 004.1 9.8l5.9 2.4a52.377 52.377 0 00.1 16.3l-5.9 2.5a7.611 7.611 0 00-4 9.9l4.3 10.3a7.611 7.611 0 009.9 4l5.9-2.5a55.016 55.016 0 0011.6 11.5l-2.4 5.9a7.51 7.51 0 004.1 9.8l10.3 4.2a7.51 7.51 0 009.8-4.1l2.4-5.9a52.377 52.377 0 0016.3-.1l2.5 5.9a7.611 7.611 0 009.9 4l10.3-4.3a7.611 7.611 0 004-9.9l-2.5-5.9a55.016 55.016 0 0011.5-11.6l5.9 2.4a7.51 7.51 0 009.8-4.1l4.2-10.3a7.51 7.51 0 00-4.1-9.8l-5.9-2.4a52.376 52.376 0 00-.1-16.3l5.9-2.5a7.611 7.611 0 004-9.9l-4.3-10.3a7.611 7.611 0 00-9.9-4l-5.9 2.5a55.016 55.016 0 00-11.6-11.5l2.4-5.9a7.51 7.51 0 00-4.1-9.8l-10.3-4.2a7.51 7.51 0 00-9.8 4.1l-2.4 5.9a52.376 52.376 0 00-16.3.1l-2.5-5.9a7.611 7.611 0 00-9.9-4l-10.3 4.3a7.611 7.611 0 00-4 9.9l2.5 5.9a55.016 55.016 0 00-11.5 11.6l-5.9-2.4a7.382 7.382 0 00-9.8 4z"/><path data-name="Path 1546" d="M210 1448a27.048 27.048 0 11-2 38.2 27.046 27.046 0 012-38.2zm-12.5-20.2l-6.3 5.6a5.681 5.681 0 00-.4 8l3.2 3.6a43.507 43.507 0 00-5.3 11.1l-4.8-.3a5.768 5.768 0 00-6 5.4l-.4 8.4a5.768 5.768 0 005.4 6l4.8.3a41.2 41.2 0 004.1 11.6l-3.6 3.2a5.681 5.681 0 00-.4 8l5.6 6.3a5.681 5.681 0 008 .4l3.6-3.2a43.506 43.506 0 0011.1 5.3l-.3 4.8a5.768 5.768 0 005.4 6l8.4.4a5.768 5.768 0 006-5.4l.3-4.8a41.2 41.2 0 0011.6-4.1l3.2 3.6a5.681 5.681 0 008 .4l6.3-5.6a5.681 5.681 0 00.4-8l-3.2-3.6a43.507 43.507 0 005.3-11.1l4.8.3a5.768 5.768 0 006-5.4l.4-8.4a5.768 5.768 0 00-5.4-6l-4.8-.3a41.2 41.2 0 00-4.1-11.6l3.6-3.2a5.681 5.681 0 00.4-8l-5.6-6.3a5.681 5.681 0 00-8-.4l-3.6 3.2a43.506 43.506 0 00-11.1-5.3l.3-4.8a5.768 5.768 0 00-5.4-6l-8.4-.4a5.768 5.768 0 00-6 5.4l-.3 4.8a41.2 41.2 0 00-11.6 4.1l-3.2-3.6a5.681 5.681 0 00-8-.4z"/></g></g><g data-name="Group 917"><g data-name="Group 913" transform="translate(51 1116.9)"><circle data-name="Ellipse 253" cx="27.1" cy="27.1" r="27.1" transform="rotate(-74.585 314.91 90.697)" fill="#fff"/><circle data-name="Ellipse 254" cx="22.4" cy="22.4" r="22.4" transform="rotate(-74.538 315.838 85.173)" fill="#b2b2b2"/><path data-name="Path 1547" d="M192.9 367.1a22.45 22.45 0 00-15.8-38.3v44.8a21.759 21.759 0 0015.8-6.5z" fill="#666"/></g><g data-name="Group 914" transform="translate(51 1116.9)"><circle data-name="Ellipse 255" cx="36" cy="36" r="36" transform="rotate(-30.54 498.805 36.015)" fill="#fff"/><circle data-name="Ellipse 256" cx="29.9" cy="29.9" r="29.9" transform="rotate(-81.929 203.941 110.034)" fill="#b2b2b2"/><path data-name="Path 1548" d="M121.3 292.2a29.8 29.8 0 00-21.1-50.9V301a29.523 29.523 0 0021.1-8.8z" fill="#666"/></g><g data-name="Group 915" transform="translate(51 1116.9)"><circle data-name="Ellipse 257" cx="51.9" cy="51.9" r="51.9" transform="rotate(-31.589 240.836 -97.18)" fill="#fff"/><circle data-name="Ellipse 258" cx="43" cy="43" r="43" transform="rotate(-2.99 1744.178 -2117.179)" fill="#b2b2b2"/><path data-name="Path 1549" d="M188.4 159.2A43 43 0 00158 85.8v86a42.857 42.857 0 0030.4-12.6z" fill="#666"/></g><g data-name="Group 916" fill="#f2f2f2"><path data-name="Path 1550" d="M200.9 1342.4H217a10.926 10.926 0 0010.9-10.9v-9.3a78.976 78.976 0 0021.8-9l6.5 6.5a10.986 10.986 0 0015.4 0l11.4-11.4a10.986 10.986 0 000-15.4l-6.5-6.5a78.976 78.976 0 009-21.8h9.3a10.926 10.926 0 0010.9-10.9v-16.1a10.926 10.926 0 00-10.9-10.9h-9.3a78.976 78.976 0 00-9-21.8l6.5-6.5a10.986 10.986 0 000-15.4l-11.4-11.4a10.986 10.986 0 00-15.4 0l-6.5 6.5a78.976 78.976 0 00-21.8-9v-9.2A10.926 10.926 0 00217 1149h-16.1a10.926 10.926 0 00-10.9 10.9v9.3a78.976 78.976 0 00-21.8 9l-6.5-6.5a10.986 10.986 0 00-15.4 0l-11.4 11.3a10.986 10.986 0 000 15.4l6.5 6.5a78.976 78.976 0 00-9 21.8h-9.3a10.926 10.926 0 00-10.9 10.9v16.1a10.926 10.926 0 0010.9 10.9h9.3a78.976 78.976 0 009 21.8l-6.5 6.5a10.986 10.986 0 000 15.4l11.4 11.4a10.986 10.986 0 0015.4 0l6.5-6.5a78.976 78.976 0 0021.8 9v9.3a10.926 10.926 0 0010.9 10.9zm8.1-44.8a51.9 51.9 0 1151.9-51.9 51.853 51.853 0 01-51.9 51.9z"/><path data-name="Path 1551" d="M91.3 1357.5l-4.2 10.4a7.51 7.51 0 004.1 9.8l5.9 2.4a52.377 52.377 0 00.1 16.3l-5.9 2.5a7.611 7.611 0 00-4 9.9l4.3 10.3a7.611 7.611 0 009.9 4l5.9-2.5a55.016 55.016 0 0011.6 11.5l-2.4 5.9a7.51 7.51 0 004.1 9.8l10.3 4.2a7.51 7.51 0 009.8-4.1l2.4-5.9a52.377 52.377 0 0016.3-.1l2.5 5.9a7.611 7.611 0 009.9 4l10.3-4.3a7.611 7.611 0 004-9.9l-2.5-5.9a55.016 55.016 0 0011.5-11.6l5.9 2.4a7.51 7.51 0 009.8-4.1l4.2-10.3a7.51 7.51 0 00-4.1-9.8l-5.9-2.4a52.376 52.376 0 00-.1-16.3l5.9-2.5a7.611 7.611 0 004-9.9l-4.3-10.3a7.611 7.611 0 00-9.9-4l-5.9 2.5a55.016 55.016 0 00-11.6-11.5l2.4-5.9a7.51 7.51 0 00-4.1-9.8l-10.3-4.2a7.51 7.51 0 00-9.8 4.1l-2.4 5.9a52.376 52.376 0 00-16.3.1l-2.5-5.9a7.611 7.611 0 00-9.9-4l-10.3 4.3a7.611 7.611 0 00-4 9.9l2.5 5.9a55.016 55.016 0 00-11.5 11.6l-5.9-2.4a7.382 7.382 0 00-9.8 4zm26.6 16.9a35.97 35.97 0 1119.7 46.9 35.965 35.965 0 01-19.7-46.9z"/><path data-name="Path 1552" d="M197.5 1427.8l-6.3 5.6a5.681 5.681 0 00-.4 8l3.2 3.6a43.507 43.507 0 00-5.3 11.1l-4.8-.3a5.768 5.768 0 00-6 5.4l-.4 8.4a5.768 5.768 0 005.4 6l4.8.3a41.2 41.2 0 004.1 11.6l-3.6 3.2a5.681 5.681 0 00-.4 8l5.6 6.3a5.681 5.681 0 008 .4l3.6-3.2a43.506 43.506 0 0011.1 5.3l-.3 4.8a5.768 5.768 0 005.4 6l8.4.4a5.768 5.768 0 006-5.4l.3-4.8a41.2 41.2 0 0011.6-4.1l3.2 3.6a5.681 5.681 0 008 .4l6.3-5.6a5.681 5.681 0 00.4-8l-3.2-3.6a43.507 43.507 0 005.3-11.1l4.8.3a5.768 5.768 0 006-5.4l.4-8.4a5.768 5.768 0 00-5.4-6l-4.8-.3a41.2 41.2 0 00-4.1-11.6l3.6-3.2a5.681 5.681 0 00.4-8l-5.6-6.3a5.681 5.681 0 00-8-.4l-3.6 3.2a43.506 43.506 0 00-11.1-5.3l.3-4.8a5.768 5.768 0 00-5.4-6l-8.4-.4a5.768 5.768 0 00-6 5.4l-.3 4.8a41.2 41.2 0 00-11.6 4.1l-3.2-3.6a5.681 5.681 0 00-8-.4zM210 1448a27.048 27.048 0 11-2 38.2 27.046 27.046 0 012-38.2z"/></g></g></g><g data-name="Group 919" fill="#fff" transform="translate(51 1116.9)"><circle data-name="Ellipse 259" cx="5.8" cy="5.8" r="5.8" transform="rotate(-10.451 710.65 -769.938)"/><path data-name="Path 1553" d="M164.6 125.1a7.741 7.741 0 01-6.5 3.4 8 8 0 01-6.5-3.4 8.213 8.213 0 00-7.7 8.2v4.1h28.4v-4.1a8.141 8.141 0 00-7.7-8.2z"/></g><g data-name="Group 920" fill="#fff"><path data-name="Path 1554" d="M160.2 1378.2a9.829 9.829 0 100 13.9 9.9 9.9 0 000-13.9zm-11.9 11.8a6.93 6.93 0 119.8 0 6.941 6.941 0 01-9.8 0z"/><path data-name="Path 1555" d="M139.9 1398.5a1.933 1.933 0 010-2.8l5.6-5.6a1.933 1.933 0 012.8 0 1.933 1.933 0 010 2.8l-5.6 5.6a2.129 2.129 0 01-2.8 0z"/></g><g data-name="Group 921" fill="#fff"><path data-name="Rectangle 558" d="M218.2 1466h5.4v9.3h-5.4z"/><path data-name="Rectangle 559" d="M225.4 1462.4h5.4v12.9h-5.4z"/><path data-name="Rectangle 560" d="M232.5 1458.8h5.4v16.5h-5.4z"/></g></g><g data-name="Group 923" fill="#b2b2b2"><path data-name="Rectangle 561" d="M268.4 1718.4h64.4v4.5h-64.4z"/><path data-name="Rectangle 562" d="M223 1711.4h27.9v11.5H223z"/><path data-name="Path 1556" d="M311.6 1620.5a2.342 2.342 0 01.8 1.8 2.285 2.285 0 01-2 2.3l.3 1.1.8-.4-.4 1.8.3 6 .6 1.3-.4.7s.5.2 1 1.9a2.921 2.921 0 01-.1 2.5l1 1.2.7.2v3h.6v-.8a.864.864 0 01.3-.6v-.4c0-.2.1-.4.3-.4v-.6l.1-1.2.1 1.2v.6c.2.1.3.2.3.4v.4a2.184 2.184 0 01.3.5l.5.9v10.1h1.6v2l-.8 1.5v.9l-.8.8v2.4h1.5v1.8l-.8 1.4v19.1h1.2v-2.4l-.6-1.5h.5v-.6h-.3l-.5-.9 1-1-.8-.7c1.4-.2 3.8-1.3 4.6-3.1a6.871 6.871 0 004.6 3.1l-.8.7 1 1-.5.9h-.3v.6h.5l-.6 1.5v2.4h1.6v-8.1h-.5l-.4-1.5h.6l-.4-1.4h16.5l-.4 1.4h.6l-.4 1.5h-.5v30.3h.8v2.8h4.4v14h-76.6v-14h4.4v-2.8h.8v-30.3h-.5l-.4-1.5h.6l-.4-1.4h16.5l-.4 1.4h.6l-.4 1.5h-.5v8.1h1.6v-2.4l-.6-1.5h.5v-.6h-.3l-.5-.9 1-1-.8-.7c1.4-.2 3.8-1.3 4.6-3.1a6.871 6.871 0 004.6 3.1l-.8.7 1 1-.5.9h-.3v.6h.5l-.6 1.5v2.4h1.2v-19.1l-.8-1.4v-1.8h1.5v-2.4l-.8-.8v-.9l-.8-1.5v-2h1.6v-10.1l.5-.9a.55.55 0 01.3-.5v-.4c0-.2.1-.4.3-.4v-.6l.1-1.2.1 1.2v.6c.2.1.3.2.3.4v.4a.6.6 0 01.3.6v.8h.6v-3l.7-.2 1-1.2a2.542 2.542 0 01-.1-2.5c.5-1.7 1-1.9 1-1.9l-.4-.7.6-1.3.3-6-.4-1.8.8.4.3-1.1a2.285 2.285 0 01-2-2.3 2.342 2.342 0 01.8-1.8 2.1 2.1 0 00-.4 1.1 1.8 1.8 0 003.6 0 .782.782 0 000-1.1zm-26.4 66H284v2.4h1.2v-2.4zm0 4.8H284v2.4h1.2v-2.4zm5.4 0h-1.2v2.4h1.2v-2.4zm-10.7-4.8h-1.2v2.4h1.2v-2.4zm2.6-4.9h-1.2v2.4h1.2v-2.4zm2.7 0H284v2.4h1.2v-2.4zm5.4 0h-1.2v2.4h1.2v-2.4zm-10.7-4.9h-1.2v2.4h1.2v-2.4zm5.3 0H284v2.4h1.2v-2.4zm2.7 0h-1.2v2.4h1.2v-2.4zm9.1 5.5h-1.2v2.4h1.2v-2.4zm0 9.7h-1.2v2.4h1.2v-2.4zm2.7-4.9h-1.2v2.4h1.2v-2.4zm30-10.3v2.4h1.2v-2.4zm5.4 9.8v2.4h1.2v-2.4zm5.3 4.8v2.4h1.2v-2.4zm-5.3 0v2.4h1.2v-2.4zm-5.4 0v2.4h1.2v-2.4zm10.7-4.8v2.4h1.2v-2.4zm-10.7 0v2.4h1.2v-2.4zm10.7-4.9v2.4h1.2v-2.4zm-2.7 0v2.4h1.2v-2.4zm-2.6 0v2.4h1.2v-2.4zm-5.4 0v2.4h1.2v-2.4zm10.7-4.9v2.4h1.2v-2.4zm-5.3 0v2.4h1.2v-2.4zm-2.7 0v2.4h1.2v-2.4zm-9.2 5.5v2.4h1.2v-2.4zm-2.7 0v2.4h1.2v-2.4zm2.7 9.7v2.4h1.2v-2.4zm-2.7-4.9v2.4h1.2v-2.4zm-16.3-21.6v2.4h1.2v-2.4zm10.7 14.6v2.4h1.2v-2.4zm-2.7 0v2.4h1.2v-2.4zm-2.7 0v2.4h1.2v-2.4zm5.4-4.8v2.4h1.2v-2.4zm-2.7 0v2.4h1.2v-2.4zm-8 0v2.4h1.2v-2.4zm10.7-4.9v2.4h1.2v-2.4zm-2.7 0v2.4h1.2v-2.4zm-2.7 0v2.4h1.2v-2.4zm-2.6 0v2.4h1.2v-2.4zm-2.7 0v2.4h1.2v-2.4zm10.7-4.9v2.4h1.2v-2.4zm-5.4 0v2.4h1.2v-2.4zm-2.6 0v2.4h1.2v-2.4zm3.4-17.1l-.1-2.2-.1-.6-.1.6-.1 2.1a.52.52 0 00-.2.4.43.43 0 00.4.4c.2 0 .3-.1.4-.3l1.1-.1.3-.1-.3-.1-1.2-.1c0 .1 0 0-.1 0zm-.2-3.2a3.3 3.3 0 103.4 3.3 3.329 3.329 0 00-3.4-3.3z" fill-rule="evenodd"/><path data-name="Path 1557" d="M221.6 1702.3a251.636 251.636 0 013.6-39.2 256.882 256.882 0 019.3-37.5l.3-4.3.4-5.5.4 5.5.3 4.3a260.108 260.108 0 019.3 37.5 253.908 253.908 0 013.6 39.2v.9a27.109 27.109 0 01-4.9 2.2h5.7v17.5h-28.9v-17.5h5.7a30.618 30.618 0 01-4.9-2.2l.1-.9zm15.3-58.4a4.5 4.5 0 011.2.6h2.2c-.1-.5-.3-1.1-.4-1.6h-3v1zm2.4 1.7a3.465 3.465 0 01.8 1.6h.8c-.1-.5-.3-1.1-.4-1.6zm1.1 2.8v.3a6.753 6.753 0 01-.2 1.4h1.4a9.363 9.363 0 00-.4-1.6h-.8zm-.7 2.8a5.724 5.724 0 01-1.5 1.6h4a9.363 9.363 0 00-.4-1.6zm-7.4 1.6a5.725 5.725 0 01-1.5-1.6h-2.2a9.363 9.363 0 01-.4 1.6zm-1.9-2.8a5.9 5.9 0 01-.2-1.4v-.3h-.9c-.1.5-.3 1.1-.4 1.6h1.5zm0-2.8a5.977 5.977 0 01.8-1.6H230c-.1.5-.3 1.1-.4 1.6zm2-2.7a3.379 3.379 0 011.2-.6v-1h-3c-.1.5-.3 1.1-.4 1.6zm4.5 12.6a23.662 23.662 0 016 1.2h.5c-.1-.5-.2-1.1-.3-1.6H237v.4zm6.9 4a23.134 23.134 0 00-6.9-1.6v1.6zm-10.1-1.6a23.138 23.138 0 00-6.9 1.6h6.9v-1.6zm-6-1.2a20 20 0 016-1.2v-.4h-6.1c-.1.5-.2 1.1-.3 1.6h.4zm6 40.6v-.6h-10.8c0 1-.1 2.1-.1 3.1a27.046 27.046 0 015.7-1.8 28.365 28.365 0 015.2-.7zm0-1.7v-1.6H223a8.6 8.6 0 01-.1 1.6zm0-2.8v-1.6h-10.6c0 .5-.1 1.1-.1 1.6zm0-2.8v-1.6h-10.4c0 .5-.1 1.1-.1 1.6zm0-2.7v-1.6h-10.2c0 .5-.1 1.1-.1 1.6zm0-2.8v-1.6h-10c0 .5-.1 1.1-.1 1.6zm0-2.8v-1.6h-9.8c-.1.5-.1 1.1-.2 1.6zm0-2.8v-.7a40.659 40.659 0 00-6.1.7zm0-5.5v-1.6h-8.8c-.1.5-.1 1.1-.2 1.6zm0-2.8v-1.6h-8.5a8.752 8.752 0 00-.2 1.6zm0-2.8v-1.6h-8.1a8.752 8.752 0 00-.2 1.6zm0-2.7v-1.6H226c-.1.5-.2 1.1-.3 1.6zm0-2.8v-1.6h-7.2c-.1.3-.1.6-.2 1l-.1.7h7.5zm0-8.3v-1.7h-5.6c-.1.5-.2 1.1-.3 1.6h5.9zm0-13.9v-1.6h-2.3c-.1.5-.3 1.1-.4 1.6zm0-2.8v-1.6h-1.5c-.2.5-.3 1.1-.5 1.6zm0-2.8v-1.4a1.95 1.95 0 00-.8.1 6.467 6.467 0 01-.4 1.3h1.2zm3.2-1.3v1.4h1.2a6.467 6.467 0 00-.4-1.3 1.949 1.949 0 00-.8-.1zm0 2.5v1.6h2a9.83 9.83 0 00-.5-1.6zm0 2.8v1.6h2.7c-.1-.5-.3-1.1-.4-1.6zm0 13.8v1.6h5.9c-.1-.5-.2-1.1-.3-1.6zm0 8.3v1.6h7.4l-.1-.7c-.1-.3-.1-.6-.2-1h-7.1zm0 2.8v1.6h7.9c-.1-.5-.2-1.1-.3-1.6zm0 2.8v1.6h8.3a8.752 8.752 0 01-.2-1.6zm0 2.8v1.6h8.7c-.1-.5-.1-1.1-.2-1.6zm0 2.7v1.6h9c-.1-.5-.1-1.1-.2-1.6zm0 6.5v.7h6.1a40.659 40.659 0 00-6.1-.7zm0 1.9v1.6h9.9a8.753 8.753 0 00-.2-1.6zm0 2.7v1.6H247c0-.5-.1-1.1-.1-1.6zm0 2.8v1.6h10.3c0-.5-.1-1.1-.1-1.6zm0 2.8v1.6h10.5c0-.5-.1-1.1-.1-1.6zm0 2.8v1.6h10.7c0-.5-.1-1.1-.1-1.6zm0 2.7v1.6h10.8a8.6 8.6 0 00-.1-1.6zm0 2.8v.6a29.591 29.591 0 015.2.7 27.049 27.049 0 015.7 1.8c0-1 0-2.1-.1-3.1zm9.2-22.2h-4.9a40.332 40.332 0 015 1.1c0-.3-.1-.7-.1-1.1zm-16.7 0h-4.9c0 .4-.1.7-.1 1.1 1.6-.4 3.3-.8 5-1.1z" fill-rule="evenodd"/><path data-name="Rectangle 563" d="M120.3 1711.4h180.2v11.5H120.3z"/><path data-name="Path 1558" d="M150.8 1695.7h4.7v27.2H113V1701h6.8v-29.8h1.7c.6-9.8 5.3-17.9 11.5-20.6l1.7-10.9v31.4h1.2v-16a16.187 16.187 0 0113.3 15.8v.1h1.7v24.7zm-24.9-21.5h-4.6v1.7h4.6v-1.7zm0 5.6h-4.6v1.7h4.6v-1.7zm0 5.6h-4.6v1.7h4.6v-1.7zm0 5.6h-4.6v1.7h4.6v-1.7zm23.4-16.8h-4.6v1.7h4.6v-1.7zm0 5.6h-4.6v1.7h4.6v-1.7zm0 5.6h-4.6v1.7h4.6v-1.7zm0 5.6h-4.6v1.7h4.6v-1.7zm-19.6-33.1a2 2 0 102 2 2.006 2.006 0 00-2-2z" fill-rule="evenodd"/><path data-name="Path 1559" d="M81 1722.9h33.3v-9.8H81z" fill-rule="evenodd"/><path data-name="Rectangle 564" d="M62.4 1718.7h15.9v4.2H62.4z"/><path data-name="Path 1560" d="M62.5 1609.9a182.923 182.923 0 0131.4 0 .472.472 0 01.5.5v112a.472.472 0 01-.5.5H62.5a.472.472 0 01-.5-.5v-112a.472.472 0 01.5-.5zm27.5 4.6c-3.9-.3-7.8-.5-11.8-.5s-7.9.2-11.8.5c1.6 21.4 6.3 37 11.8 37 5.6-.1 10.2-15.6 11.8-37zm3.4-2.9c-1.4-.1-3.6 45.2-15.2 45.2-11.5 0-13.8-45.3-15.2-45.2 2.1 29.5 8.1 48.7 15.2 48.7s13.2-19.1 15.2-48.7z" fill-rule="evenodd"/><path data-name="Path 1561" d="M113.1 1721.4h-11.2v-1.2a1.216 1.216 0 011.2-1.2h1.4v-54.7h-2v-1.4h2v-7.6h-2v-1.2c-8.2-2-7.5-8.8 2-9.9v-2.5h.8v-4.8h.5v4.7h.6l.5-7.1.5-7.4.5 7.4.5 7.1h.6v-4.7h.5v4.7h.8v2.5c9.5 1.2 10.2 8 2 9.9v1.2h-2v7.6h2v1.4h-2v54.7h1.4a1.216 1.216 0 011.2 1.2v1.3zm-7.3-66h-.5v7.4h.5v-7.4zm0 8.7h-.5v36.7h.5v-36.7zm3.9-8.7h-.5v7.4h.5v-7.4zm0 8.7h-.5v36.7h.5v-36.7zm6-13l-1-1.7h2.4a.2.2 0 000-.4h-2.4l1-1.7a.224.224 0 00-.4-.2l-1 1.7-2-3.4c-.1-.1-.2-.2-.3-.1l-.1.1-2 3.4-2.4-4.2c-.1-.1-.2-.2-.3-.1l-.1.1-2.4 4.2-1.8-3.2c-.1-.1-.2-.2-.3-.1l-.1.1-1.8 3.2-.8-1.3c-.1-.1-.2-.2-.3-.1s-.2.2-.1.3l.8 1.4H98a.2.2 0 000 .4h2.2l-.8 1.4a.224.224 0 00.4.2l.8-1.3 1.8 3.2a.1.1 0 00.1.1.192.192 0 00.3-.1l1.8-3.2 2.4 4.2h.4l2.4-4.2 2 3.4a.1.1 0 00.1.1.192.192 0 00.3-.1l2-3.4 1 1.7c.1.1.2.2.3.1a.551.551 0 00.2-.5zm-1.8-2.1l-1.8-3.1-1.8 3.1zm-3.6.4l1.8 3.1 1.8-3.1zm-6-.4l-1.7-2.9-1.7 2.9zm-3.4.4l1.7 2.9 1.7-2.9zm4.2 0l2.2 3.9 2.2-3.9zm4.5-.4l-2.2-3.9-2.2 3.9z" fill-rule="evenodd"/><path data-name="Path 1562" d="M282 1722.9h-47.6v-1.2a1.216 1.216 0 011.2-1.2h45.1a1.216 1.216 0 011.2 1.2v1.2z" fill-rule="evenodd"/><path data-name="Path 1563" d="M210.3 1715.9h-44.2v-.9a.9.9 0 01.9-.9h.9v-1.4a3.116 3.116 0 013.1-3.1h1v-2.2h-1.3l-8.8-10.2h15.2a18.5 18.5 0 017.9-3.3 3.465 3.465 0 013.2-2.3 3.332 3.332 0 013.2 2.3 18.5 18.5 0 017.9 3.3h15.2l-8.8 10.2h-1.4v2.2h1a3.116 3.116 0 013.1 3.1v1.4h.9a.9.9 0 01.9.9v.9zm-21-23.1c-.2 0-.4.1-.4.3v.8h.7v-.8c.1-.2-.1-.3-.3-.3zm-2.3 0c-.2 0-.4.1-.4.3v.8h.7v-.8c.1-.2-.1-.3-.3-.3zm1.2 0c-.2 0-.4.1-.4.3v.8h.7v-.8a.265.265 0 00-.3-.3zm-6.6 2.8a.5.5 0 10.5.5.536.536 0 00-.5-.5zm13.2 0a.5.5 0 10.5.5.472.472 0 00-.5-.5zm-2.2 0a.5.5 0 10.5.5.472.472 0 00-.5-.5zm-2.2 0a.5.5 0 10.5.5.472.472 0 00-.5-.5zm-2.2 0a.5.5 0 10.5.5.472.472 0 00-.5-.5zm-2.2 0a.5.5 0 10.5.5.472.472 0 00-.5-.5zm-2.2 0a.5.5 0 10.5.5.536.536 0 00-.5-.5zm-13 9.5h34.8a.3.3 0 100-.6h-34.8a.3.3 0 100 .6zm-3-4.9h40.7a.3.3 0 100-.6h-40.7a.265.265 0 00-.3.3q.15.3.3.3zm1.5 2.5h37.8a.3.3 0 100-.6h-37.8a.265.265 0 00-.3.3.319.319 0 00.3.3z" fill-rule="evenodd"/><path data-name="Path 1564" d="M207.8 1722.9h-39.2v-1.2a1.216 1.216 0 011.2-1.2h36.7a1.216 1.216 0 011.2 1.2v1.2z" fill-rule="evenodd"/><path data-name="Path 1565" d="M58 1722.9l-.4-2.4c-.6-3 .3-1.8 0-3.4-.6-3 .3-1.8 0-3.4-.6-3 .3-1.8 0-3.4l-.1-.6c-.2-1.1-.3-1.1-1 0a10.194 10.194 0 00-.8 1.5c-.7 1.8-.9 2.8-.3-.1a8.709 8.709 0 01.5-1.9c.3-1 .6-1.3-.5-.3a8.589 8.589 0 00-1.7 2.3c-.8 1.5-1 2.1-.3-.1a11 11 0 011.2-2.9c.6-1.1 1.5-1.9-.5-.5a17.387 17.387 0 00-1.5 1.3c-.9 1-1.5 2.1-.5-.2a8.518 8.518 0 011.7-2.5c.7-.8 1.9-1.5-.1-.5a13.024 13.024 0 00-1.5 1c-1.2.9-1.5 1.3-.3-.4a8.826 8.826 0 012.2-2.1c1-.6 2.5-1.1-.1-.6a5.227 5.227 0 00-1.6.6c-1 .5-1.6 1-.2-.4a4.879 4.879 0 013.6-1.3c.6 0 1.3.2.1-.2l-.9-.3c-1.1-.2-3.2-.4.1-.5a4.6 4.6 0 012.7.9c.6.5.8.5 1.3 0a4.388 4.388 0 012.7-.9c3.3.1 1.1.3.1.5l-.9.3c-1.2.5-.5.3.1.2a4.6 4.6 0 013.6 1.3c1.5 1.3.9.9-.2.4a7.577 7.577 0 00-1.6-.6c-2.6-.5-1 0-.1.6a7.349 7.349 0 012.2 2.1c1.2 1.7.9 1.3-.3.4a13.024 13.024 0 00-1.5-1c-2-1.1-.8-.3-.1.5a12.14 12.14 0 011.7 2.5c1.1 2.3.5 1.2-.5.2a9.335 9.335 0 00-1.5-1.3c-2-1.4-1.1-.6-.5.5a10.993 10.993 0 011.2 2.9c.6 2.3.5 1.6-.3.1a10.562 10.562 0 00-1.7-2.3c-1.1-1-.8-.7-.5.3.2.6.3 1.2.5 1.9.6 2.9.4 1.9-.3.1a5.3 5.3 0 00-.8-1.5c-.7-1.1-.8-1.1-1 0l-.1.6c-.3 1.6.6.3 0 3.4-.3 1.6.6.3 0 3.4-.3 1.6.6.3 0 3.4l-.7 2.4z" fill-rule="evenodd"/><path data-name="Path 1566" d="M327.6 1722.9l-.4-2c-.5-2.5.2-1.5 0-2.8-.5-2.5.2-1.5 0-2.8-.5-2.5.2-1.5 0-2.8l-.1-.5c-.2-.9-.3-.9-.9 0a13.387 13.387 0 00-.6 1.2c-.6 1.5-.7 2.3-.3-.1.1-.6.3-1.1.4-1.6.3-.8.5-1.1-.4-.3a7.207 7.207 0 00-1.4 1.9c-.7 1.2-.8 1.8-.3-.1a13.323 13.323 0 011-2.4c.5-.9 1.2-1.6-.4-.4a11.991 11.991 0 00-1.2 1.1c-.8.9-1.3 1.7-.4-.1a5.968 5.968 0 011.4-2c.6-.6 1.6-1.3-.1-.4a9.131 9.131 0 00-1.3.8c-1 .8-1.3 1.1-.3-.3a5.814 5.814 0 011.8-1.7c.8-.5 2.1-.9-.1-.5a2.947 2.947 0 00-1.3.5c-.8.4-1.3.8-.1-.3a4.617 4.617 0 013-1.1c.5 0 1.1.2.1-.2a2.354 2.354 0 00-.8-.2c-.9-.2-2.6-.3 0-.4a3.163 3.163 0 012.2.8c.5.4.6.4 1.1 0a3.5 3.5 0 012.2-.8c2.7.1.9.2 0 .4-.3.1-.5.1-.8.2-1 .4-.4.2.1.2a4.144 4.144 0 013 1.1c1.2 1.1.7.7-.1.3a5.022 5.022 0 00-1.3-.5c-2.1-.4-.9 0-.1.5a5.814 5.814 0 011.8 1.7c1 1.4.7 1.1-.3.3a5.67 5.67 0 00-1.3-.8c-1.6-.9-.7-.3-.1.4a14.288 14.288 0 011.4 2c.9 1.9.4 1-.4.1a11.977 11.977 0 00-1.2-1.1c-1.6-1.1-.9-.5-.4.4a13.323 13.323 0 011 2.4c.5 1.9.4 1.3-.3.1a7.208 7.208 0 00-1.4-1.9c-.9-.8-.7-.5-.4.3a7.491 7.491 0 01.4 1.6c.5 2.3.3 1.5-.3.1a6.658 6.658 0 00-.6-1.2c-.6-.9-.7-.9-.9 0l-.1.5c-.2 1.3.5.3 0 2.8-.2 1.3.5.3 0 2.8-.2 1.3.5.3 0 2.8l-.4 2z" fill-rule="evenodd"/><path data-name="Path 1567" d="M334.5 1722.9l-.2-1.3c-.3-1.6.2-1 0-1.8-.3-1.6.2-1 0-1.8-.3-1.6.2-1 0-1.8l-.1-.3c-.1-.6-.2-.6-.6 0a5.939 5.939 0 00-.4.8c-.4 1-.5 1.5-.2 0 .1-.4.2-.7.3-1 .2-.5.3-.7-.3-.2a6.233 6.233 0 00-.9 1.2c-.4.8-.5 1.2-.2-.1.2-.6.4-1.1.6-1.6.3-.6.8-1-.3-.3a5.01 5.01 0 00-.8.7c-.5.6-.8 1.1-.2-.1a3.045 3.045 0 01.9-1.3c.4-.4 1-.8 0-.2a5.582 5.582 0 00-.8.5c-.6.5-.8.7-.2-.2a4.262 4.262 0 011.2-1.1c.5-.3 1.4-.6 0-.3a6.889 6.889 0 00-.8.3c-.5.3-.9.5-.1-.2a2.724 2.724 0 012-.7c.3 0 .7.1 0-.1-.2-.1-.3-.1-.5-.2-.6-.1-1.7-.2 0-.3a1.871 1.871 0 011.4.5c.3.3.4.3.7 0a2.389 2.389 0 011.4-.5c1.8 0 .6.2 0 .3-.2 0-.3.1-.5.2-.6.3-.3.1 0 .1a3.057 3.057 0 012 .7c.8.7.5.5-.1.2a6.889 6.889 0 01-.8-.3c-1.4-.3-.6 0 0 .3a4.263 4.263 0 011.2 1.1c.7.9.5.7-.2.2a3.507 3.507 0 00-.8-.5c-1.1-.6-.4-.2 0 .2a6.015 6.015 0 01.9 1.3c.6 1.2.3.6-.2.1a2.7 2.7 0 00-.8-.7c-1.1-.8-.6-.3-.3.3a7.579 7.579 0 01.6 1.6c.3 1.2.3.8-.2.1a6.233 6.233 0 00-.9-1.2c-.6-.5-.4-.4-.3.2.1.3.2.7.3 1 .3 1.5.2 1-.2 0a5.939 5.939 0 00-.4-.8c-.4-.6-.5-.6-.6 0l-.1.3c-.2.8.3.2 0 1.8-.2.8.3.2 0 1.8-.2.8.3.2 0 1.8l-.2 1.3z" fill-rule="evenodd"/><path data-name="Path 1568" d="M240.1 1678.1h4.5v2.1h-11.2l21.5 17.3v23h-2a1.216 1.216 0 00-1.2 1.2v1.2h18.8v-1.2a1.216 1.216 0 00-1.2-1.2h-2v-23l21.5-17.3h-11.2v-2.1h4.5c-25.1-16.5-17-16.5-42 0zm13 15.9l-7.4-9.2h.7l7.4 9.2zm2.7 0l-4.5-9.2h.6l4.5 9.2zm2.5 0l-2.1-9.2h.6l2.1 9.2zm2.6 0v-9.2h.6v9.2zm2.3 0l2.1-9.2h.6l-2.1 9.2zm2.5 0l4.5-9.2h.6l-4.5 9.2zm2.6 0l7.4-9.2h.7l-7.4 9.2z" fill-rule="evenodd"/><path data-name="Path 1569" d="M157.3 1715.9l-.4-2c-.5-2.5.2-1.5 0-2.8-.5-2.5.2-1.5 0-2.8-.5-2.5.2-1.5 0-2.8l-.1-.5c-.2-.9-.3-.9-.9 0a13.387 13.387 0 00-.6 1.2c-.6 1.5-.7 2.3-.3-.1.1-.6.3-1.1.4-1.6.3-.8.5-1.1-.4-.3a7.208 7.208 0 00-1.4 1.9c-.7 1.2-.8 1.8-.3-.1a13.323 13.323 0 011-2.4c.5-.9 1.2-1.6-.4-.4a11.987 11.987 0 00-1.2 1.1c-.8.9-1.3 1.7-.4-.1a5.968 5.968 0 011.4-2c.6-.6 1.6-1.3-.1-.4a9.132 9.132 0 00-1.3.8c-1 .8-1.3 1.1-.3-.3a5.814 5.814 0 011.8-1.7c.8-.5 2.1-.9-.1-.5a2.947 2.947 0 00-1.3.5c-.8.4-1.3.8-.1-.3a4.617 4.617 0 013-1.1c.5 0 1.1.2.1-.2a2.354 2.354 0 00-.8-.2c-.9-.2-2.6-.3 0-.4a3.163 3.163 0 012.2.8c.5.4.6.4 1.1 0a3.5 3.5 0 012.2-.8c2.7.1.9.2 0 .4-.3.1-.5.1-.8.2-1 .4-.4.2.1.2a4.144 4.144 0 013 1.1c1.2 1.1.7.7-.1.3a5.022 5.022 0 00-1.3-.5c-2.1-.4-.9 0-.1.5a5.814 5.814 0 011.8 1.7c1 1.4.7 1.1-.3.3a5.671 5.671 0 00-1.3-.8c-1.6-.9-.7-.3-.1.4a14.288 14.288 0 011.4 2c.9 1.9.4 1-.4.1a11.981 11.981 0 00-1.2-1.1c-1.6-1.1-.9-.5-.4.4a13.323 13.323 0 011 2.4c.5 1.9.4 1.3-.3.1a7.209 7.209 0 00-1.4-1.9c-.9-.8-.7-.5-.4.3a7.491 7.491 0 01.4 1.6c.5 2.3.3 1.5-.3.1a6.658 6.658 0 00-.6-1.2c-.6-.9-.7-.9-.9 0l-.1.5c-.2 1.3.5.3 0 2.8-.2 1.3.5.3 0 2.8-.2 1.3.5.3 0 2.8l-.4 2z" fill-rule="evenodd"/><path data-name="Path 1570" d="M289.9 1722.9l-.4-2c-.5-2.5.2-1.5 0-2.8-.5-2.5.2-1.5 0-2.8-.5-2.5.2-1.5 0-2.8l-.1-.5c-.2-.9-.3-.9-.9 0a13.391 13.391 0 00-.6 1.2c-.6 1.5-.7 2.3-.3-.1.1-.6.3-1.1.4-1.6.3-.8.5-1.1-.4-.3a7.207 7.207 0 00-1.4 1.9c-.7 1.2-.8 1.8-.3-.1a13.324 13.324 0 011-2.4c.5-.9 1.2-1.6-.4-.4a11.988 11.988 0 00-1.2 1.1c-.8.9-1.3 1.7-.4-.1a5.968 5.968 0 011.4-2c.6-.6 1.6-1.3-.1-.4a9.132 9.132 0 00-1.3.8c-1 .8-1.3 1.1-.3-.3a5.814 5.814 0 011.8-1.7c.8-.5 2.1-.9-.1-.5a2.947 2.947 0 00-1.3.5c-.8.4-1.3.8-.1-.3a4.617 4.617 0 013-1.1c.5 0 1.1.2.1-.2a2.354 2.354 0 00-.8-.2c-.9-.2-2.6-.3 0-.4a3.163 3.163 0 012.2.8c.5.4.6.4 1.1 0a3.5 3.5 0 012.2-.8c2.7.1.9.2 0 .4-.3.1-.5.1-.8.2-1 .4-.4.2.1.2a4.144 4.144 0 013 1.1c1.2 1.1.7.7-.1.3a5.022 5.022 0 00-1.3-.5c-2.1-.4-.9 0-.1.5a5.814 5.814 0 011.8 1.7c1 1.4.7 1.1-.3.3a5.67 5.67 0 00-1.3-.8c-1.6-.9-.6-.3-.1.4a14.288 14.288 0 011.4 2c.9 1.9.4 1-.4.1a11.98 11.98 0 00-1.2-1.1c-1.6-1.1-.9-.5-.4.4a13.324 13.324 0 011 2.4c.5 1.9.4 1.3-.3.1a7.208 7.208 0 00-1.4-1.9c-.9-.8-.7-.5-.4.3a7.491 7.491 0 01.4 1.6c.5 2.3.3 1.5-.3.1a6.657 6.657 0 00-.6-1.2c-.6-.9-.7-.9-.9 0l-.1.5c-.2 1.3.5.3 0 2.8-.2 1.3.5.3 0 2.8-.2 1.3.5.3 0 2.8l-.4 2z" fill-rule="evenodd"/><path data-name="Path 1571" d="M348 1722.9h-47.6v-1.2a1.216 1.216 0 011.2-1.2h45.1a1.216 1.216 0 011.2 1.2v1.2z" fill-rule="evenodd"/><path data-name="Path 1572" d="M107.3 1722.9H51v-1.2a1.367 1.367 0 011.5-1.2h53.4a1.443 1.443 0 011.5 1.2v1.2z" fill-rule="evenodd"/></g></g></g></svg>