<svg xmlns="http://www.w3.org/2000/svg" width="1607" height="542"><defs><clipPath id="a"><path d="M0 0h1607v542H0z"/></clipPath></defs><g data-name="the logo" clip-path="url(#a)"><path fill="#fff" d="M0 0h1607v542H0z"/><g data-name="Group 1002"><g data-name="Group 1000" fill="#df6727"><path data-name="Path 1029" d="M97.316 236.237a44.24 44.24 0 0 0 1.867 7.461 19.855 19.855 0 0 0 3.665 6.464 17.37 17.37 0 0 0 6.341 4.6 24.079 24.079 0 0 0 9.758 1.739h14.791l-3.731-6.574c-.579-.829-1.179-1.778-1.8-2.86s-1.2-2.161-1.738-3.231-1-2.093-1.367-3.04a6.943 6.943 0 0 1-.562-2.431 8.235 8.235 0 0 1 1.246-4.473 12.327 12.327 0 0 1 3.168-3.421 14.531 14.531 0 0 1 4.273-2.177 15.272 15.272 0 0 1 4.6-.744 10.8 10.8 0 0 1 4.784 1.119 9.8 9.8 0 0 1 3.92 3.611l-.125-.128 13.427 24.375h.986v7.954h-4.079l-14.916-25.861a9.1 9.1 0 0 0-2.613-3.613 4.732 4.732 0 0 0-2.859-1.115 4.467 4.467 0 0 0-3.287 1.312 4.172 4.172 0 0 0-1.315 3.049 4.993 4.993 0 0 0 .746 2.625v-.126q3.474 6.092 6.836 11.936t6.837 11.811h-23.741a32.773 32.773 0 0 1-11.994-1.932 22.953 22.953 0 0 1-7.957-4.97 18.465 18.465 0 0 1-4.414-6.834 22.11 22.11 0 0 1-1.367-7.525 36.038 36.038 0 0 1 .187-3.848c.125-1.166.269-2.32.434-3.485zm16.658 40.655a4.176 4.176 0 0 1 1.184-2.987 3.859 3.859 0 0 1 2.922-1.242 4.027 4.027 0 0 1 3.044 1.242 4.358 4.358 0 0 1 0 5.972 4.053 4.053 0 0 1-3.044 1.24 3.879 3.879 0 0 1-2.922-1.24 4.194 4.194 0 0 1-1.184-2.985zm11.688 0a4.246 4.246 0 0 1 4.227-4.229 3.852 3.852 0 0 1 2.919 1.242 4.359 4.359 0 0 1 0 5.972 3.89 3.89 0 0 1-2.919 1.24 4.239 4.239 0 0 1-4.227-4.225z"/><path data-name="Path 1030" d="M159.1 264.457v-7.961h18.15q.375-3.968.683-8.386t.684-8.392l6.961-3.619-1.368 20.376h1.864v7.96zm18.647-43.017a4.221 4.221 0 0 1 1.37-3.171 4.392 4.392 0 0 1 3.107-1.311 4.486 4.486 0 0 1 3.286 1.311 4.317 4.317 0 0 1 1.315 3.171 4.463 4.463 0 0 1-4.6 4.6 4.57 4.57 0 0 1-4.478-4.599z"/><path data-name="Path 1031" d="M206.215 240.096h56.935a14.955 14.955 0 0 1 4.786.811 16.582 16.582 0 0 1 4.414 2.231 12.169 12.169 0 0 1 3.231 3.423 8.071 8.071 0 0 1 1.245 4.353v13.549h-92.489v-7.959h14.544l1.864-60.659 6.962-3.624zm63.65 16.407a9.219 9.219 0 0 0-.986-4.655 6.5 6.5 0 0 0-2.485-2.49 9.71 9.71 0 0 0-3.359-1.053 28.671 28.671 0 0 0-3.727-.256h-53.327l-.246 8.454z"/><path data-name="Path 1032" d="M297.957 263.225a16.172 16.172 0 0 1-5.033-3.424 15.963 15.963 0 0 1-3.42-17.459 16.219 16.219 0 0 1 8.453-8.461 15.464 15.464 0 0 1 6.215-1.247 14.36 14.36 0 0 1 10.942 4.481 19.08 19.08 0 0 1 4.972 11.437 24.423 24.423 0 0 1 .249 3.1 14.994 14.994 0 0 0 .125 2.115 8.38 8.38 0 0 0 .124 1.622v1.114h.987v7.956h-1.864a51.684 51.684 0 0 1-2.486 9.265 30.328 30.328 0 0 1-4.042 7.523 23.443 23.443 0 0 1-5.531 5.342 15.65 15.65 0 0 1-6.836 2.609 19.438 19.438 0 0 0 3.543-3.854 41.781 41.781 0 0 0 3.418-5.716 45.243 45.243 0 0 0 2.8-7.149 40.526 40.526 0 0 0 1.554-8.021h-7.956a15.562 15.562 0 0 1-6.214-1.233zm-2.246-14.43a6.954 6.954 0 0 0 2.488 5.591 8.855 8.855 0 0 0 5.968 2.108h8.452v-7.7a8.481 8.481 0 0 0-14.42-6.028 8.092 8.092 0 0 0-2.488 6.03z"/><path data-name="Path 1033" d="M335.129 188.25q1.972-.984 3.354-1.8c.925-.548 1.96-1.146 3.11-1.808l2.609 79.815h-24.365v-7.96h17.53z"/><path data-name="Path 1034" d="M357.876 188.378c1.243-.653 2.421-1.282 3.542-1.859s2.256-1.206 3.418-1.872q-.621 17.9-1.246 35.369t-1.239 35.242v2.612a19.665 19.665 0 0 0 .248 3.483 4.587 4.587 0 0 0 .986 2.231 13.079 13.079 0 0 1-4.848 1.375q-1.742 0-2.424-2.677a37.215 37.215 0 0 1-.807-7.771z"/><path data-name="Path 1035" d="M431.59 232.638l7.337-3.613 2.36 35.424h-34.559a17.432 17.432 0 0 1-7.953-1.74 23.212 23.212 0 0 1-6.094-4.35 29.283 29.283 0 0 1-4.41-5.592 35.083 35.083 0 0 1-2.8-5.586 36.672 36.672 0 0 0 9.076 6.464 25.549 25.549 0 0 0 12.057 2.857h26.979zm-28.963-7.834a4.245 4.245 0 1 1 1.241 2.984 4.088 4.088 0 0 1-1.241-2.984zm5.964-9.2a4.047 4.047 0 0 1 4.106-4.1 4.194 4.194 0 0 1 2.98 1.186 3.838 3.838 0 0 1 1.244 2.917 4.26 4.26 0 0 1-1.238 3.051 4.015 4.015 0 0 1-2.981 1.322 3.805 3.805 0 0 1-2.924-1.322 4.407 4.407 0 0 1-1.187-3.042zm5.721 9.2a4.243 4.243 0 0 1 4.228-4.223 3.886 3.886 0 0 1 2.921 1.242 4.36 4.36 0 0 1 0 5.965 3.853 3.853 0 0 1-2.921 1.247 4.248 4.248 0 0 1-4.228-4.231z"/><path data-name="Path 1036" d="M455.335 188.378c1.243-.653 2.421-1.282 3.545-1.859s2.254-1.206 3.414-1.872q-.623 17.9-1.242 35.369t-1.241 35.242v2.612a19.9 19.9 0 0 0 .246 3.483 4.528 4.528 0 0 0 .988 2.231 13.136 13.136 0 0 1-4.851 1.375q-1.739 0-2.426-2.677a36.845 36.845 0 0 1-.807-7.771z"/><path data-name="Path 1037" d="M501.833 238.348l6.833-3.617 2.861 21.754h.988v7.958h-25.241a57.983 57.983 0 0 1-.743 7.715 20.3 20.3 0 0 1-2.424 6.831 17.4 17.4 0 0 1-4.851 5.345 17.883 17.883 0 0 1-8.017 2.989 32.637 32.637 0 0 0 5.659-8.222 28.58 28.58 0 0 0 2.67-13.051 61.06 61.06 0 0 0-.437-6.656q-.437-3.916-.929-7.885t-.935-7.328q-.435-3.359-.558-4.856c1.572-.9 2.981-1.738 4.227-2.483s2.571-1.531 3.975-2.365l1.744 22.009h17.777zm-9.7-14.414a4.247 4.247 0 1 1 1.243 2.975 4.066 4.066 0 0 1-1.243-2.975zm11.688 0a4.245 4.245 0 1 1 1.241 2.975 4.039 4.039 0 0 1-1.243-2.975z"/><path data-name="Path 1038" d="M525.941 188.25q1.97-.984 3.355-1.8c.925-.548 1.958-1.146 3.11-1.808l2.613 79.815h-24.368v-7.96h17.53z"/><path data-name="Path 1039" d="M548.69 188.378c1.245-.653 2.423-1.282 3.543-1.859s2.259-1.206 3.419-1.872q-.625 17.9-1.243 35.369t-1.245 35.242v2.612a19.713 19.713 0 0 0 .25 3.483 4.548 4.548 0 0 0 .984 2.231 13.1 13.1 0 0 1-4.847 1.375q-1.74 0-2.426-2.677a36.726 36.726 0 0 1-.806-7.771z"/><path data-name="Path 1040" d="M599.417 255.377v1.863a13.38 13.38 0 0 1-.246 2.361 53.745 53.745 0 0 1-2.054 11 37.631 37.631 0 0 1-3.977 9.072 22.357 22.357 0 0 1-5.84 6.408 17.086 17.086 0 0 1-7.647 3.106 21.176 21.176 0 0 0 3.792-4.166 39.067 39.067 0 0 0 3.617-6.28 46.272 46.272 0 0 0 2.8-7.89 44.654 44.654 0 0 0 1.369-8.759 14.986 14.986 0 0 1-8.219 2.361 15.486 15.486 0 0 1-6.214-1.24 15.935 15.935 0 0 1 0-29.34 15.459 15.459 0 0 1 6.214-1.247 14.37 14.37 0 0 1 10.941 4.477 19.089 19.089 0 0 1 4.977 11.433 24.594 24.594 0 0 1 .245 3.11 15.8 15.8 0 0 0 .124 2.115 8.682 8.682 0 0 0 .118 1.616zm-24.856-6.594a7.9 7.9 0 0 0 2.482 5.918 8.632 8.632 0 0 0 12 0 8.062 8.062 0 0 0 2.42-5.918 8.478 8.478 0 0 0-14.419-6.024 8.08 8.08 0 0 0-2.491 6.024z"/><path data-name="Path 1041" d="M632.168 263.903a19.6 19.6 0 0 1-5.915-1.933 11.059 11.059 0 0 1-4.228-3.852 11.4 11.4 0 0 1-1.619-6.339 17.405 17.405 0 0 1 1.558-7.21 18.213 18.213 0 0 1 4.722-6.275 25.3 25.3 0 0 1 7.957-4.6 38.462 38.462 0 0 1 11.373-2.183q-.25-2.489-.434-5.654a771.98 771.98 0 0 1-.33-5.914 65.715 65.715 0 0 0 7.583-4.1c1-.652 1.913-1.282 2.738-1.863l-3.617 42.516h2.736v7.954h-16.035a39.669 39.669 0 0 1-6.489-.547zm12.867-7.526l1.118-17.15h-3.231a23.389 23.389 0 0 0-4.847.555 17.341 17.341 0 0 0-4.913 1.865 11.869 11.869 0 0 0-3.791 3.361 8.125 8.125 0 0 0-1.5 4.9 6.457 6.457 0 0 0 2.179 4.974q2.17 1.992 7.149 2zm-5.968-53.948a3.78 3.78 0 0 1 1.313-2.924 4.409 4.409 0 0 1 3.048-1.178 4.028 4.028 0 0 1 4.1 4.1 4.38 4.38 0 0 1-1.181 3.042 3.792 3.792 0 0 1-2.922 1.318 4.466 4.466 0 0 1-4.351-4.355zm11.809 0a4.035 4.035 0 0 1 4.1-4.1 4.166 4.166 0 0 1 2.985 1.178 3.877 3.877 0 0 1 1.241 2.924 4.286 4.286 0 0 1-1.241 3.042 3.981 3.981 0 0 1-2.985 1.318 3.79 3.79 0 0 1-2.919-1.318 4.391 4.391 0 0 1-1.18-3.044z"/><path data-name="Path 1042" d="M708.543 256.495a60.1 60.1 0 0 1-11-4.406 74.991 74.991 0 0 1-10.127-6.282 71.682 71.682 0 0 1-8.646-7.459 52.321 52.321 0 0 1-6.524-7.952q2.361-2.735 3.729-4.163c.913-.96 1.992-2.135 3.232-3.547l.5-.5a58.775 58.775 0 0 0 7.15 12.123 53.406 53.406 0 0 0 11.249 10.937 58.7 58.7 0 0 0 15.6 8.018 63.972 63.972 0 0 0 20.324 3.229q-.624 2-1.367 3.984t-1.364 3.974h-77.936v-7.958z"/><path data-name="Path 1043" d="M744.854 264.462q-.63-19.529-1.24-38.111t-1.122-38.1l3.614-1.794a76.335 76.335 0 0 0 3.357-1.808l2.362 71.848h.986v7.968z"/><path data-name="Path 1044" d="M751.814 264.463v-7.958h20.016q-1.116-5.6-2.364-11.934-1.242-6.356-2.359-11.939 1.74-.987 3.361-1.859a86.31 86.31 0 0 0 3.225-1.872l4.6 27.615h1.123v7.96zm5.1 12.929a4.025 4.025 0 0 1 1.247-3.05 4.165 4.165 0 0 1 2.98-1.174 3.948 3.948 0 0 1 2.919 1.174 4.13 4.13 0 0 1 1.183 3.05 4.022 4.022 0 0 1-4.1 4.1 4.184 4.184 0 0 1-2.98-1.172 3.892 3.892 0 0 1-1.253-2.928zm11.688 0a4.007 4.007 0 0 1 1.243-3.05 4.371 4.371 0 0 1 5.968 0 4.018 4.018 0 0 1 1.239 3.05 3.878 3.878 0 0 1-1.239 2.927 4.377 4.377 0 0 1-5.968 0 3.889 3.889 0 0 1-1.247-2.927z"/><path data-name="Path 1045" d="M778.046 256.496h18.894q-.246-4.838-.618-10.378t-.751-10.516l3.175-1.806c.951-.541 1.973-1.095 3.05-1.679q.242 6.713.555 12.487t.688 11.879h9.32l1.972-25.965q1.743-.992 3.418-1.806a64.864 64.864 0 0 0 3.424-1.8l-1.869 29.581h9.576q.488-7.465 1.116-15.544t1.244-15.538c1.242-.652 2.4-1.262 3.479-1.8s2.2-1.139 3.354-1.8l-2.322 34.684h.618v7.955h-58.321z"/><path data-name="Path 1046" d="M834.979 264.464v-7.967h17.9l2.483-68.246 6.842-3.614-2.365 71.856h1.869v7.96z"/><path data-name="Path 1047" d="M875.258 188.25c1.31-.656 2.433-1.255 3.354-1.8s1.959-1.146 3.113-1.808l2.606 79.815h-24.365v-7.96h17.521z"/><path data-name="Path 1048" d="M916.962 263.903a19.648 19.648 0 0 1-5.911-1.933 11.112 11.112 0 0 1-4.231-3.852 11.347 11.347 0 0 1-1.609-6.339 17.585 17.585 0 0 1 1.546-7.213 18.328 18.328 0 0 1 4.729-6.272 25.262 25.262 0 0 1 7.955-4.6 38.466 38.466 0 0 1 11.375-2.183q-.25-2.489-.436-5.654c-.124-2.11-.228-4.088-.309-5.914a65.851 65.851 0 0 0 7.581-4.1c.994-.652 1.906-1.282 2.733-1.863l-3.61 42.516h2.728v7.954h-15.994a39.5 39.5 0 0 1-6.547-.547zm12.863-7.526l1.122-17.15h-3.229a23.36 23.36 0 0 0-4.85.555 17.347 17.347 0 0 0-4.913 1.865 11.857 11.857 0 0 0-3.786 3.361 8.034 8.034 0 0 0-1.494 4.9 6.424 6.424 0 0 0 2.176 4.974q2.174 1.992 7.145 2zm-5.968-53.948a3.8 3.8 0 0 1 1.32-2.924 4.4 4.4 0 0 1 3.044-1.178 4.043 4.043 0 0 1 4.105 4.1 4.358 4.358 0 0 1-1.187 3.042 3.776 3.776 0 0 1-2.919 1.318 4.466 4.466 0 0 1-4.347-4.355zm11.815 0a4.046 4.046 0 0 1 1.179-2.924 4 4 0 0 1 2.921-1.178 4.16 4.16 0 0 1 2.984 1.178 3.9 3.9 0 0 1 1.247 2.924 4.3 4.3 0 0 1-1.247 3.042 3.969 3.969 0 0 1-2.984 1.318 3.8 3.8 0 0 1-2.921-1.318 4.381 4.381 0 0 1-1.184-3.042z"/><path data-name="Path 1049" d="M938.156 256.502h17.655a12.045 12.045 0 0 1-.376-1.975 36.689 36.689 0 0 0-.307-2.236 20.607 20.607 0 0 1-.25-2.05c-.044-.625-.063-1.1-.063-1.43a15.493 15.493 0 0 1 1.246-6.221 16.708 16.708 0 0 1 3.358-5.034 15.367 15.367 0 0 1 5.028-3.411 16 16 0 0 1 12.371 0 16.215 16.215 0 0 1 8.454 8.445 15.468 15.468 0 0 1 1.244 6.216 15.037 15.037 0 0 1-1.244 6.092 15.4 15.4 0 0 1-3.42 4.979 16.745 16.745 0 0 1-5.034 3.353 15.281 15.281 0 0 1-6.215 1.241h-32.447zm24.133-7.94a7.662 7.662 0 0 0 2.36 5.584 7.769 7.769 0 0 0 5.722 2.365 8.067 8.067 0 0 0 7.955-7.955 7.954 7.954 0 0 0-2.364-5.847 7.633 7.633 0 0 0-5.586-2.36 7.783 7.783 0 0 0-5.72 2.36 7.949 7.949 0 0 0-2.367 5.853z"/><path data-name="Path 1050" d="M998.439 264.462q-.612-19.529-1.239-38.111t-1.113-38.1l3.614-1.794a81.155 81.155 0 0 0 3.355-1.808l2.355 71.848h.985v7.968z"/><path data-name="Path 1051" d="M1005.043 264.459v-7.957h27.609q-2.981-5.462-4.854-9.823-1.856-4.351-2.916-7.526a49.845 49.845 0 0 1-1.49-5.212c-.289-1.372-.479-2.39-.559-3.051l8.324-4.476c.083 1.168.229 2.7.438 4.606a48.253 48.253 0 0 0 1.369 6.9q1.059 4.04 2.921 9.136t4.722 11.178q3.233-6.086 5.226-10.945c1.326-3.229 2.357-6.092 3.105-8.567a43.82 43.82 0 0 0 1.491-6.468 34.777 34.777 0 0 0 .372-4.605v-1.742l7.831 4.1a1.52 1.52 0 0 1 .133.627 1.324 1.324 0 0 1 .12.555v.808a18.488 18.488 0 0 1-.374 3.229 36.959 36.959 0 0 1-1.435 5.036 64.725 64.725 0 0 1-2.98 7.023q-1.931 3.984-5.034 9.205h13.148v7.958z"/><path data-name="Path 1052" d="M1075.644 188.25q1.975-.984 3.355-1.8c.925-.548 1.963-1.146 3.11-1.808l2.614 79.815h-24.369v-7.96h17.532z"/><path data-name="Path 1053" d="M1098.391 188.378c1.247-.653 2.433-1.282 3.548-1.859s2.256-1.206 3.417-1.872q-.612 17.9-1.238 35.369t-1.245 35.242v2.612a20.086 20.086 0 0 0 .245 3.483 4.616 4.616 0 0 0 .984 2.231 13.082 13.082 0 0 1-4.846 1.375q-1.748 0-2.424-2.677a36.847 36.847 0 0 1-.81-7.771z"/><path data-name="Path 1054" d="M1138.111 263.903a19.619 19.619 0 0 1-5.91-1.935 11.045 11.045 0 0 1-4.228-3.852 11.413 11.413 0 0 1-1.624-6.339 17.566 17.566 0 0 1 1.556-7.21 18.323 18.323 0 0 1 4.729-6.275 25.289 25.289 0 0 1 7.956-4.6 38.485 38.485 0 0 1 11.375-2.183q-.252-2.489-.435-5.654c-.121-2.11-.229-4.088-.313-5.914a65.793 65.793 0 0 0 7.589-4.1c.989-.652 1.9-1.282 2.727-1.863l-3.611 42.516h2.735v7.954h-16.031a39.564 39.564 0 0 1-6.515-.545zm12.87-7.526l1.117-17.15h-3.229a23.487 23.487 0 0 0-4.853.555 17.539 17.539 0 0 0-4.892 1.877 11.8 11.8 0 0 0-3.79 3.36 8.055 8.055 0 0 0-1.488 4.911 6.419 6.419 0 0 0 2.17 4.97q2.172 1.992 7.146 1.989zm-5.967-53.948a3.8 3.8 0 0 1 1.313-2.924 4.409 4.409 0 0 1 3.046-1.178 4.025 4.025 0 0 1 4.1 4.1 4.363 4.363 0 0 1-1.179 3.042 3.8 3.8 0 0 1-2.923 1.318 4.463 4.463 0 0 1-4.349-4.355zm11.813 0a4.022 4.022 0 0 1 4.1-4.1 4.166 4.166 0 0 1 2.985 1.178 3.886 3.886 0 0 1 1.24 2.924 4.25 4.25 0 0 1-1.24 3.042 3.989 3.989 0 0 1-2.985 1.318 3.806 3.806 0 0 1-2.922-1.318 4.344 4.344 0 0 1-1.178-3.044z"/><path data-name="Path 1055" d="M1159.306 264.454v-7.959h18.03q.494-4.219.989-9.073.473-4.85.982-9.077l6.71-3.61-1.743 21.756h1.121v7.955zm4.969-37.17h20.021a19.362 19.362 0 0 1-.126-2.483v-2.613h-2.974q-3.612 0-5.28-1.743a5.592 5.592 0 0 1-1.678-3.975q0-4.978 10.189-4.974l-4.852-2.98h-1.369a12.889 12.889 0 0 0-6.772 1.679q-2.795 1.677-2.8 4.163a8.639 8.639 0 0 0 1.431 4.473 8.128 8.128 0 0 0 5.159 3.357h-9.077z"/><path data-name="Path 1056" d="M1183.794 264.463v-7.958h20.009q-1.116-5.6-2.359-11.934-1.245-6.356-2.366-11.939c1.165-.658 2.282-1.279 3.361-1.859s2.15-1.214 3.228-1.872l4.607 27.615h1.119v7.96zm5.1 12.929a4.021 4.021 0 0 1 1.242-3.05 4.158 4.158 0 0 1 2.984-1.174 3.974 3.974 0 0 1 2.921 1.174 4.161 4.161 0 0 1 1.179 3.05 4.016 4.016 0 0 1-4.1 4.1 4.177 4.177 0 0 1-2.984-1.172 3.863 3.863 0 0 1-1.246-2.928zm11.68 0a4.007 4.007 0 0 1 1.251-3.05 4.37 4.37 0 0 1 5.967 0 4.023 4.023 0 0 1 1.236 3.05 3.9 3.9 0 0 1-1.236 2.927 4.376 4.376 0 0 1-5.967 0 3.842 3.842 0 0 1-1.233-2.927z"/><path data-name="Path 1057" d="M1241.846 282.613a14.047 14.047 0 0 1-6.34-1.5 16.785 16.785 0 0 1-5.156-3.973 18.805 18.805 0 0 1-3.419-5.781 19.319 19.319 0 0 1-1.239-6.905h-15.666V256.5h15.168a17.293 17.293 0 0 1-.254-2.927v-2.792a25.459 25.459 0 0 1 .5-5.1 10.145 10.145 0 0 1 1.8-4.094 9 9 0 0 1 3.73-2.8 15.447 15.447 0 0 1 6.154-1.058h11.06c-.238-1.658-.49-3.568-.743-5.721s-.5-4.111-.744-5.842c1.24-.658 2.424-1.279 3.541-1.871a24.488 24.488 0 0 0 2.92-1.739 26.886 26.886 0 0 0 2.6-1.863l1.129 35.809h2.734v7.951h-2.238c0 .244-.081 1.332-.254 3.231a19.455 19.455 0 0 1-1.739 6.215 16.742 16.742 0 0 1-4.662 6.026q-3.162 2.686-8.882 2.688zm-9.694-26.108h17.9l-1.247-11.071h-11.3q-3.617 0-4.6 1.682a7.521 7.521 0 0 0-.987 3.922zm9.694 19.384a9 9 0 0 0 4.851-1.106 7.614 7.614 0 0 0 3.613-5.787c.089-1.037.124-1.842.124-2.426v-2.113h-17.772a14.926 14.926 0 0 0 .494 3.62 12.488 12.488 0 0 0 1.618 3.731 10.216 10.216 0 0 0 2.85 2.915 7.376 7.376 0 0 0 4.222 1.166z"/><path data-name="Path 1058" d="M1273.055 188.25c1.3-.656 2.43-1.255 3.348-1.8s1.963-1.146 3.113-1.808l2.611 79.815h-24.371v-7.96h17.535z"/><path data-name="Path 1059" d="M1295.792 188.378c1.246-.653 2.43-1.282 3.547-1.859s2.262-1.206 3.42-1.872q-.627 17.9-1.244 35.369-.633 17.464-1.24 35.242v2.612a19.8 19.8 0 0 0 .248 3.483 4.478 4.478 0 0 0 .992 2.231 13.228 13.228 0 0 1-4.857 1.375q-1.743 0-2.424-2.677a36.9 36.9 0 0 1-.811-7.771z"/><path data-name="Path 1060" d="M117.504 313.76q-.562.927-1.545 2.806a25.949 25.949 0 0 1-1.095 2.466.5.5 0 0 1-.45.249c.02 0-.883-.324-2.708-.984a14.059 14.059 0 0 0-4.506-.986c-3.445 0-5.166 1.522-5.163 4.547 0 1.685 1.205 3.159 3.615 4.406q6.093 3.176 6.738 3.649a9.49 9.49 0 0 1 3.616 7.806 11.607 11.607 0 0 1-4.97 9.911 18.13 18.13 0 0 1-10.975 3.259c-2.021 0-3.109-.224-3.257-.676q-.115-1.063-.506-3.117-.227-.841-.7-2.525a1.529 1.529 0 0 1-.085-.479c0-.256.141-.389.421-.389q.677 0 2.064.135t2.091.144q8.7 0 8.7-5.616 0-2.748-3.51-4.772-6.4-3.643-6.541-3.788a9.4 9.4 0 0 1-3.537-7.691 10.8 10.8 0 0 1 3.425-8.366 12.382 12.382 0 0 1 8.648-3.028 21.5 21.5 0 0 1 5.164.724 14.362 14.362 0 0 1 4.773 1.977 1.082 1.082 0 0 1 .293.338z"/><path data-name="Path 1061" d="M149.085 324.908a3.035 3.035 0 0 1-.082.5 67.525 67.525 0 0 0-1.095 11.1q0 .277.7 12.6l.029.395c0 .539-.23.813-.746.813a22.964 22.964 0 0 0-2.33.184c-.763.1-1.531.156-2.3.186-.355 0-.627-.665-.815-1.974s-.366-1.978-.533-1.978a7.231 7.231 0 0 0-1.514 1.1 16.726 16.726 0 0 1-3.09 2.047 9.733 9.733 0 0 1-4.434 1.119 11.629 11.629 0 0 1-9.181-4.352 14.447 14.447 0 0 1-3.55-9.662 15.05 15.05 0 0 1 3.563-10.3 12.461 12.461 0 0 1 9.828-4.243 10.681 10.681 0 0 1 7.494 2.978q.48.557 1.489 1.641a.271.271 0 0 0 .167.09c.112 0 .271-.6.477-1.768s.467-1.771.786-1.771a18.041 18.041 0 0 1 2.837.415q2.3.488 2.3.88zm-7.159 11.742a9 9 0 0 0-2.047-5.914 6.8 6.8 0 0 0-5.532-2.664 7.08 7.08 0 0 0-5.614 2.627 8.862 8.862 0 0 0-2.163 5.951 8.713 8.713 0 0 0 2.169 5.887 7.09 7.09 0 0 0 5.614 2.616 6.88 6.88 0 0 0 5.5-2.676 8.823 8.823 0 0 0 2.073-5.827z"/><path data-name="Path 1062" d="M179.659 324.848c0 1.373-.057 3.43-.171 6.194s-.17 4.841-.167 6.216.042 3.408.128 6.142.127 4.764.125 6.125a.7.7 0 0 1-.533.731q-.226.059-5.7.06c-.223 0-.361-.7-.407-2.1s-.154-2.112-.328-2.112a.838.838 0 0 0-.422.254q-4.686 4.069-9.265 4.07-6.2 0-8.2-4.487c-.824-1.861-1.236-5.181-1.236-10a50.028 50.028 0 0 1 1.039-11.031c.171-.73.48-1.1.927-1.1.542 0 1.357 0 2.441.033s1.9.029 2.443.029c.375 0 .562.2.562.613a29.716 29.716 0 0 1-.364 3.649 37.947 37.947 0 0 0-.421 3.845 75.866 75.866 0 0 0-.086 3.7q0 4.938.7 6.6c.805 2.024 2.592 3.029 5.362 3.029a7.613 7.613 0 0 0 4.184-1.737c1.7-1.224 2.579-2.385 2.629-3.508q.138-2.109.137-14.826c0-.92.385-1.37 1.155-1.37h4.631c.565.003.837.322.837.981z"/><path data-name="Path 1063" d="M212.364 311.144c0 2.419-.11 6.026-.328 10.848s-.329 8.428-.329 10.816q0 11.1.477 16.795l.027.362c.02.188-.234.309-.757.366a9.849 9.849 0 0 1-1.518 0c-.786-.058-1.151-.091-1.095-.091-.28 0-.69.033-1.232.091a11.97 11.97 0 0 1-1.237.084c-.279 0-.417-.66-.463-1.947a5.532 5.532 0 0 0-.21-1.972 1.519 1.519 0 0 0-.421.364 11.784 11.784 0 0 1-8.845 4.154 11.659 11.659 0 0 1-9.318-4.324 14.682 14.682 0 0 1-3.455-9.827 14.9 14.9 0 0 1 3.481-10.049 11.9 11.9 0 0 1 9.516-4.28 9.752 9.752 0 0 1 6.178 2.082c.8.687 1.6 1.395 2.387 2.11a.381.381 0 0 0 .223-.4v-9.072c0-.623-.029-1.557-.085-2.811s-.083-2.2-.083-2.836c0-.448.148-.669.447-.669.694 0 1.725-.064 3.09-.186s2.386-.182 3.06-.182c.332-.018.49.179.49.574zm-7.017 25.55a9.153 9.153 0 0 0-2.078-5.923 6.845 6.845 0 0 0-5.5-2.718 7.081 7.081 0 0 0-5.7 2.691 9.11 9.11 0 0 0-2.134 6.07 8.563 8.563 0 0 0 2.215 5.86 7.159 7.159 0 0 0 5.617 2.634 6.9 6.9 0 0 0 5.559-2.669 9.18 9.18 0 0 0 2.021-5.945z"/><path data-name="Path 1064" d="M224.66 316.738q0 3.453-3.846 3.448-3.9 0-3.9-3.448a3.194 3.194 0 0 1 1.206-2.563 4.275 4.275 0 0 1 5.4.033 3.178 3.178 0 0 1 1.14 2.53zm-.2 7.6q0 2.167-.268 6.532c-.177 2.909-.266 5.1-.266 6.552q0 2.057.085 6.135t.082 6.11c0 .387-.167.581-.506.581h-5.473c-.394 0-.588-.378-.588-1.148q0-1.934.1-5.823t.1-5.854c0-1.454-.109-3.651-.329-6.571s-.331-5.117-.331-6.576c0-.329.2-.477.59-.477a13.462 13.462 0 0 1 1.558.144 9.148 9.148 0 0 0 3.171 0 13.951 13.951 0 0 1 1.588-.144c.331.009.491.19.491.538z"/><path data-name="Path 1065" d="M275.416 343.813a1.8 1.8 0 0 1-.532.961 17.2 17.2 0 0 1-13.559 6.331 16.541 16.541 0 0 1-13.476-6.152q-4.726-5.716-4.727-14.3a21.733 21.733 0 0 1 4.8-14.37 16.584 16.584 0 0 1 13.5-6.243q8.506 0 13.168 5.75a1.779 1.779 0 0 1 .445.987 9.967 9.967 0 0 1-1.484 2.825c-.99 1.567-1.591 2.343-1.8 2.343-.241 0-.814-.46-1.711-1.378a15.076 15.076 0 0 0-3.115-2.529 10.643 10.643 0 0 0-5.336-1.371 10.093 10.093 0 0 0-8.648 4.24 15.806 15.806 0 0 0-2.75 9.527 16.377 16.377 0 0 0 2.725 9.634 9.968 9.968 0 0 0 8.618 4.351 11.013 11.013 0 0 0 5.3-1.379 15.328 15.328 0 0 0 3.424-2.555 10.867 10.867 0 0 1 1.6-1.375 14.315 14.315 0 0 1 1.853 2.231 14.559 14.559 0 0 1 1.705 2.472z"/><path data-name="Path 1066" d="M303.909 336.645a14.243 14.243 0 0 1-3.846 10.026 13.252 13.252 0 0 1-19.511.026 14.919 14.919 0 0 1 0-20 13.383 13.383 0 0 1 19.484 0 13.844 13.844 0 0 1 3.873 9.948zm-5.916.057a8.563 8.563 0 0 0-2.1-5.836 7.015 7.015 0 0 0-5.558-2.557 7.109 7.109 0 0 0-5.588 2.53 9.13 9.13 0 0 0 .027 11.7 7.23 7.23 0 0 0 11.119 0 8.707 8.707 0 0 0 2.1-5.85z"/><path data-name="Path 1067" d="M350.541 349.265c0 .733-.214 1.1-.658 1.1-.282 0-.707-.022-1.279-.079s-1.006-.091-1.315-.091-.8.02-1.432.058-1.113.055-1.431.055c-.394 0-.591-.435-.591-1.313s.033-2.147.1-3.863.1-2.993.1-3.856q0-7.1-.056-7.916a7.017 7.017 0 0 0-1.18-3.986c-.729-.784-2.029-1.172-3.9-1.184a6.915 6.915 0 0 0-3.987 1.688c-1.532 1.175-2.329 2.341-2.385 3.481-.072 1.464-.11 4.137-.112 8q0 1.378.112 4.126t.114 4.128c0 .506-.17.751-.5.751s-.829-.022-1.476-.077-1.138-.086-1.472-.086-.74.02-1.316.06-1.022.046-1.313.046c-.375 0-.563-.265-.563-.808q0-1.345.086-4.056t.086-4.06v-6.762a9.794 9.794 0 0 0-.76-4.519c-.712-1.271-2.067-1.916-4.068-1.916a8.5 8.5 0 0 0-4.215 1.5q-2.69 1.642-2.694 3.276v8.207q0 1.4.029 4.179t.027 4.159c0 .534-.213.808-.657.808h-5.2c-.376 0-.559-.254-.559-.753q0-2.284.026-6.836t.031-6.839a48.809 48.809 0 0 0-1.094-10.243 2.581 2.581 0 0 1-.086-.589c0-.252.086-.387.253-.427.69-.068 1.7-.212 3.031-.417a26.1 26.1 0 0 1 2.781-.618l.224-.028c.223 0 .437.657.631 1.974s.369 1.971.519 1.971l1.4-1.238a16.9 16.9 0 0 1 3.313-2.271 10.24 10.24 0 0 1 4.771-1.233q6.46 0 8.217 5.275a14.279 14.279 0 0 1 4.323-3.7 10.793 10.793 0 0 1 5.447-1.573q5.192 0 7.189 3.032c.953 1.49 1.429 3.863 1.429 7.1 0 .622-.018 1.574-.055 2.869s-.056 2.236-.056 2.863q0 1.765.085 5.315c.049 2.366.081 4.142.086 5.316z"/><path data-name="Path 1068" d="M398.773 349.265c0 .733-.218 1.1-.658 1.1-.28 0-.708-.022-1.276-.079s-1.005-.091-1.313-.091-.8.02-1.433.058-1.116.055-1.436.055c-.39 0-.586-.435-.586-1.313s.033-2.147.1-3.863.1-2.993.1-3.856q0-7.1-.055-7.916a7.1 7.1 0 0 0-1.18-3.986c-.73-.784-2.03-1.172-3.9-1.184a6.9 6.9 0 0 0-3.987 1.688c-1.534 1.175-2.329 2.341-2.387 3.481-.076 1.464-.113 4.137-.113 8q0 1.378.113 4.126t.112 4.128c0 .506-.167.751-.506.751s-.829-.022-1.472-.077-1.136-.086-1.473-.086-.739.02-1.315.06-1.018.046-1.313.046c-.375 0-.562-.265-.562-.808q0-1.345.085-4.056t.081-4.06v-6.762a9.844 9.844 0 0 0-.754-4.519c-.712-1.271-2.069-1.916-4.074-1.916a8.472 8.472 0 0 0-4.209 1.5q-2.7 1.642-2.7 3.276v8.207q0 1.4.03 4.179t.027 4.159c0 .534-.213.808-.658.808h-5.209c-.375 0-.562-.254-.562-.753q0-2.284.028-6.836t.028-6.839a48.663 48.663 0 0 0-1.094-10.243 2.779 2.779 0 0 1-.083-.589c0-.252.083-.387.251-.427.694-.068 1.7-.212 3.032-.417a26.078 26.078 0 0 1 2.779-.618l.225-.028q.337 0 .632 1.974c.2 1.309.369 1.971.519 1.971l1.4-1.238a16.953 16.953 0 0 1 3.314-2.271 10.238 10.238 0 0 1 4.771-1.233q6.455 0 8.217 5.275a14.3 14.3 0 0 1 4.325-3.7 10.794 10.794 0 0 1 5.446-1.573q5.192 0 7.186 3.032c.958 1.49 1.436 3.863 1.436 7.1 0 .622-.021 1.574-.057 2.869s-.057 2.236-.057 2.863q0 1.765.082 5.315c.056 2.366.088 4.142.103 5.316z"/><path data-name="Path 1069" d="M411.631 316.727q0 3.464-3.846 3.459-3.909 0-3.9-3.459a3.207 3.207 0 0 1 1.209-2.552 4.279 4.279 0 0 1 5.4.028 3.205 3.205 0 0 1 1.137 2.524zm-.2 7.611q0 2.162-.268 6.53t-.266 6.556q0 2.046.082 6.135c.058 2.72.086 4.76.088 6.106 0 .393-.17.589-.506.589h-5.47c-.4 0-.59-.389-.59-1.15 0-1.3.032-3.229.095-5.827s.1-4.546.1-5.853q0-2.181-.328-6.576c-.221-2.923-.329-5.119-.329-6.571 0-.327.194-.479.586-.479a12.847 12.847 0 0 1 1.56.144 8.885 8.885 0 0 0 3.173 0 12.153 12.153 0 0 1 1.586-.144c.327.011.489.19.489.54z"/><path data-name="Path 1070" d="M430.144 341.668a8.014 8.014 0 0 1-3.339 6.71 11.867 11.867 0 0 1-7.386 2.3 10.84 10.84 0 0 1-1.908-.084c-.328-.15-.475-.609-.475-1.375a17.138 17.138 0 0 0-.156-1.856 15.957 15.957 0 0 1-.156-1.824c0-.242.17-.4.505-.477a3.145 3.145 0 0 1 1.039 0l.842.084q5.3 0 5.3-3.256 0-1.54-2.328-2.835a42.514 42.514 0 0 1-4.353-2.556 6.534 6.534 0 0 1-2.329-5.221 7.726 7.726 0 0 1 3.171-6.572 11.889 11.889 0 0 1 7.231-2.11.593.593 0 0 1 .573.364 18.534 18.534 0 0 1 .7 2.278 14.121 14.121 0 0 1 .52 2.3c0 .208-.18.329-.534.4-1.2.164-2.4.325-3.615.475-1.438.391-2.159 1.186-2.159 2.36q0 1.261 2.273 2.554a27.21 27.21 0 0 1 4.273 2.72 7.441 7.441 0 0 1 2.311 5.621z"/><path data-name="Path 1071" d="M447.307 341.668a8 8 0 0 1-3.339 6.71 11.852 11.852 0 0 1-7.383 2.3 10.841 10.841 0 0 1-1.908-.084c-.328-.15-.479-.609-.479-1.375a16.653 16.653 0 0 0-.152-1.856 15.738 15.738 0 0 1-.156-1.824q0-.363.5-.477a3.151 3.151 0 0 1 1.04 0l.845.084q5.306 0 5.3-3.256 0-1.54-2.332-2.835a42.394 42.394 0 0 1-4.351-2.556 6.546 6.546 0 0 1-2.33-5.221 7.728 7.728 0 0 1 3.171-6.572 11.884 11.884 0 0 1 7.229-2.11.607.607 0 0 1 .579.364 19.138 19.138 0 0 1 .7 2.278 14.544 14.544 0 0 1 .52 2.3c0 .208-.18.329-.535.4-1.2.164-2.4.325-3.617.475-1.441.391-2.167 1.186-2.161 2.36q0 1.261 2.274 2.554a27.132 27.132 0 0 1 4.271 2.72 7.423 7.423 0 0 1 2.314 5.621z"/><path data-name="Path 1072" d="M458.649 316.738q0 3.453-3.844 3.448-3.906 0-3.9-3.448a3.187 3.187 0 0 1 1.207-2.563 4.274 4.274 0 0 1 5.4.033 3.174 3.174 0 0 1 1.137 2.53zm-.2 7.6q0 2.167-.265 6.532c-.178 2.909-.265 5.1-.265 6.552q0 2.057.082 6.135t.084 6.11c0 .387-.166.581-.5.581h-5.472c-.4 0-.6-.378-.6-1.148q0-1.934.1-5.823t.1-5.854c0-1.454-.107-3.651-.326-6.571s-.327-5.117-.327-6.576c0-.329.2-.477.586-.477a13.519 13.519 0 0 1 1.558.144 9.154 9.154 0 0 0 3.172 0 13.92 13.92 0 0 1 1.588-.144c.33.009.487.19.487.538z"/><path data-name="Path 1073" d="M489.447 336.645a14.231 14.231 0 0 1-3.847 10.026 13.254 13.254 0 0 1-19.513.026 14.922 14.922 0 0 1 0-20 13.385 13.385 0 0 1 19.486 0 13.956 13.956 0 0 1 3.874 9.948zm-5.914.057a8.588 8.588 0 0 0-2.1-5.836 7.025 7.025 0 0 0-5.561-2.557 7.108 7.108 0 0 0-5.585 2.53 9.129 9.129 0 0 0 .027 11.7 7.23 7.23 0 0 0 11.119 0 8.719 8.719 0 0 0 2.093-5.85z"/><path data-name="Path 1074" d="M518.14 349.756c0 .4-.188.6-.563.6-.617 0-1.538 0-2.767-.02s-2.147-.031-2.763-.033c-.329 0-.507-.271-.507-.806 0-.921.03-2.313.086-4.186s.086-3.278.086-4.205c0-.756-.011-1.872-.03-3.364s-.026-2.605-.026-3.35a8.206 8.206 0 0 0-.927-4.524c-.747-1.045-2.135-1.572-4.154-1.572a8.272 8.272 0 0 0-3.906 1.572c-1.75 1.092-2.629 2.083-2.629 2.958v16.845c0 .466-.182.7-.535.7-.6 0-1.5-.007-2.7-.029s-2.1-.026-2.7-.028c-.388 0-.586-.214-.586-.658q0-2.221.067-6.653t.075-6.678a45.322 45.322 0 0 0-1.267-11.037 1.415 1.415 0 0 1-.082-.364c0-.189.124-.324.365-.389l3.216-.523q3.016-.489 3.159-.487c.108 0 .183.15.22.448a18.021 18.021 0 0 0 .659 3.5q1.458-1.143 3.851-2.863a11.036 11.036 0 0 1 5.695-1.792q5.278 0 7.23 3.063 1.436 2.243 1.432 7.268c0 .576 0 1.47-.042 2.669s-.041 2.095-.041 2.7c0 1.254.015 3.123.056 5.615s.047 4.35.028 5.623z"/><path data-name="Path 1075" d="M552.334 314.319c0 .224-.169.354-.509.394-.915.095-1.824.179-2.721.256a4 4 0 0 0-2.445 1.121q-1.373 1.484-1.374 7.563c.621 0 1.591.015 2.919.055s2.333.049 3.006.049c.449 0 .672.177.672.512 0 .523.021 1.312.055 2.347s.058 1.8.058 2.312c0 .355-.186.536-.562.536-.657 0-1.642-.037-2.958-.1s-2.3-.1-2.957-.1v8.38q0 1.957.143 5.951c.092 2.646.139 4.636.139 5.949 0 .5-.185.757-.562.757H540.1c-.486 0-.729-.293-.729-.874V330.12c0-.512-.569-.753-1.713-.737a4.9 4.9 0 0 1-1.969-.137 2.812 2.812 0 0 1-.086-1.037c0-.418-.021-1.029-.056-1.844s-.056-1.426-.056-1.837 1.186-.653 3.566-.788a70.42 70.42 0 0 1-.086-2.918c0-3.309.589-5.744 1.768-7.273a10.279 10.279 0 0 1 4.6-3.254 15.478 15.478 0 0 1 5.644-1.066.412.412 0 0 1 .394.315c.018.036.183.824.49 2.367s.467 2.355.467 2.408z"/><path data-name="Path 1076" d="M580.182 336.645a14.255 14.255 0 0 1-3.845 10.026 13.251 13.251 0 0 1-19.51.026 14.914 14.914 0 0 1 0-20 13.38 13.38 0 0 1 19.481 0 13.956 13.956 0 0 1 3.874 9.948zm-5.919.057a8.548 8.548 0 0 0-2.1-5.836 7.018 7.018 0 0 0-5.559-2.557 7.112 7.112 0 0 0-5.589 2.53 9.139 9.139 0 0 0 .022 11.7 7.233 7.233 0 0 0 11.121 0 8.7 8.7 0 0 0 2.1-5.85z"/><path data-name="Path 1077" d="M600.191 323.95a34.261 34.261 0 0 1-.419 5.617c-.054.429-.243.654-.562.654-.389 0-.988-.045-1.779-.124s-1.405-.128-1.815-.128q-3.54 0-4.513 2-.6 1.2-.6 5.026v3.089c0 1.044.043 2.638.129 4.768s.125 3.72.123 4.775c0 .508-.211.753-.658.753-.581 0-1.456 0-2.628-.021s-2.057-.03-2.629-.03c-.433 0-.657-.241-.657-.7q0-2.275.068-6.846c.046-3.06.067-5.351.067-6.885a39.323 39.323 0 0 0-1.286-11.14 1.267 1.267 0 0 1-.061-.333.482.482 0 0 1 .366-.475c.691-.075 1.668-.189 2.919-.329a27.6 27.6 0 0 0 2.806-.569c.3 0 .5.55.591 1.649s.26 1.638.508 1.638a.314.314 0 0 0 .142-.047l2.3-1.468a10.761 10.761 0 0 1 2.582-1.121 9.794 9.794 0 0 1 2.807-.322c1.471-.012 2.199.183 2.199.569z"/><path data-name="Path 1078" d="M643.824 316.232c0 .481-.171.727-.509.727q-.778 0-9.933-.331-.263 8.559-.257 13.729 0 3.224.237 9.687t.242 9.688c0 .391-.275.589-.817.589-.329 0-.85-.032-1.544-.088s-1.215-.084-1.572-.084-.85.026-1.54.084-1.212.088-1.544.088a.638.638 0 0 1-.529-.181.618.618 0 0 1-.176-.521q0-3.212.266-9.618.267-6.425.271-9.645 0-5-.312-13.729-7.227.45-10.61.452c-.223 0-.33-.1-.33-.284a6.253 6.253 0 0 1 .25-1.462c.208-.821.329-1.3.365-1.457a23.211 23.211 0 0 1 .393-2.722.5.5 0 0 1 .478-.366l.329.026q9.93.6 13.1.592 2.816 0 9.185-.424a32.786 32.786 0 0 0 3.614-.276c.487 0 .757.164.813.506a18.431 18.431 0 0 0-.056 2.72c0 .243.029.62.082 1.135s.104.892.104 1.165z"/><path data-name="Path 1079" d="M672.599 336.645a14.23 14.23 0 0 1-3.851 10.026 13.248 13.248 0 0 1-19.507.026 14.916 14.916 0 0 1 0-20 13.377 13.377 0 0 1 19.479 0 13.938 13.938 0 0 1 3.879 9.948zm-5.919.057a8.552 8.552 0 0 0-2.1-5.836 7.013 7.013 0 0 0-5.56-2.557 7.117 7.117 0 0 0-5.588 2.53 9.129 9.129 0 0 0 .03 11.7 7.241 7.241 0 0 0 11.117 0 8.732 8.732 0 0 0 2.1-5.85z"/><path data-name="Path 1080" d="M702.557 324.848c0 1.373-.057 3.43-.166 6.194s-.172 4.841-.172 6.216.041 3.408.126 6.142.129 4.764.128 6.125a.7.7 0 0 1-.534.731c-.152.039-2.049.06-5.7.06-.224 0-.362-.7-.41-2.1s-.15-2.112-.328-2.112a.834.834 0 0 0-.421.254q-4.686 4.069-9.266 4.07-6.2 0-8.193-4.487c-.825-1.861-1.236-5.181-1.236-10a50.351 50.351 0 0 1 1.037-11.031c.172-.73.479-1.1.929-1.1.542 0 1.354 0 2.443.033s1.9.029 2.441.029c.377 0 .563.2.563.613a29.276 29.276 0 0 1-.369 3.649c-.257 1.81-.4 3.1-.42 3.845a76.013 76.013 0 0 0-.084 3.7q0 4.938.7 6.6c.806 2.024 2.6 3.029 5.363 3.029a7.6 7.6 0 0 0 4.181-1.737c1.7-1.224 2.578-2.385 2.629-3.508q.141-2.109.143-14.826c0-.92.378-1.37 1.15-1.37h4.633c.576.003.833.322.833.981z"/><path data-name="Path 1081" d="M724.335 323.95a34.1 34.1 0 0 1-.422 5.617c-.056.429-.239.654-.561.654-.4 0-.988-.045-1.785-.124s-1.395-.128-1.81-.128q-3.533 0-4.522 2a13.655 13.655 0 0 0-.588 5.026v3.089c0 1.044.044 2.638.131 4.768s.127 3.72.123 4.775c0 .508-.219.753-.657.753q-.867 0-2.628-.021t-2.632-.03c-.43 0-.655-.241-.655-.7q0-2.275.07-6.846c.047-3.06.073-5.351.072-6.885a39.119 39.119 0 0 0-1.292-11.14 1.65 1.65 0 0 1-.057-.333.477.477 0 0 1 .363-.475c.692-.075 1.668-.189 2.919-.329 2.02-.375 2.955-.569 2.809-.569.3 0 .5.557.589 1.649s.263 1.638.507 1.638a.286.286 0 0 0 .138-.047l2.3-1.468a10.762 10.762 0 0 1 2.578-1.121 9.818 9.818 0 0 1 2.81-.322c1.472-.012 2.2.183 2.2.569z"/><path data-name="Path 1082" d="M734.723 316.738q0 3.453-3.845 3.448-3.9 0-3.9-3.448a3.194 3.194 0 0 1 1.205-2.563 4.277 4.277 0 0 1 5.406.033 3.17 3.17 0 0 1 1.134 2.53zm-.193 7.6q0 2.167-.265 6.532c-.184 2.909-.269 5.1-.269 6.552q0 2.057.085 6.135c.057 2.722.079 4.757.079 6.11 0 .387-.164.581-.5.581h-5.474c-.4 0-.585-.378-.585-1.148q0-1.934.092-5.823t.1-5.854c0-1.454-.108-3.651-.325-6.571s-.329-5.117-.329-6.576c0-.329.2-.477.59-.477a13.31 13.31 0 0 1 1.555.144 9.171 9.171 0 0 0 3.175 0 13.847 13.847 0 0 1 1.586-.144c.324.009.485.19.485.538z"/><path data-name="Path 1083" d="M753.242 341.668a8.019 8.019 0 0 1-3.349 6.71 11.834 11.834 0 0 1-7.376 2.3 10.875 10.875 0 0 1-1.912-.084c-.33-.15-.478-.609-.478-1.375a16.208 16.208 0 0 0-.157-1.856 17.67 17.67 0 0 1-.153-1.824c0-.242.172-.4.5-.477a3.18 3.18 0 0 1 1.045 0l.839.084q5.312 0 5.3-3.256 0-1.54-2.332-2.835a43.193 43.193 0 0 1-4.349-2.556 6.533 6.533 0 0 1-2.326-5.221 7.73 7.73 0 0 1 3.169-6.572 11.882 11.882 0 0 1 7.228-2.11.6.6 0 0 1 .576.364 19.361 19.361 0 0 1 .711 2.278 14.53 14.53 0 0 1 .515 2.3c0 .208-.175.34-.536.4-1.193.164-2.4.325-3.614.475-1.44.391-2.161 1.186-2.161 2.36q0 1.261 2.271 2.554a27.317 27.317 0 0 1 4.279 2.72 7.55 7.55 0 0 1 2.31 5.621z"/><path data-name="Path 1084" d="M799.941 349.265c0 .733-.217 1.1-.656 1.1-.28 0-.707-.022-1.28-.079s-1.008-.091-1.317-.091-.793.02-1.428.058-1.116.055-1.435.055c-.394 0-.591-.435-.591-1.313s.034-2.147.1-3.863.1-2.993.1-3.856q0-7.1-.055-7.916a7.09 7.09 0 0 0-1.179-3.986c-.731-.784-2.03-1.172-3.9-1.184a6.92 6.92 0 0 0-3.99 1.688c-1.531 1.175-2.324 2.341-2.382 3.481-.077 1.464-.11 4.137-.11 8 0 .919.033 2.292.11 4.126s.11 3.212.11 4.128c0 .506-.166.751-.5.751s-.83-.022-1.477-.077-1.138-.086-1.474-.086-.734.02-1.313.06-1.018.046-1.312.046c-.381 0-.565-.265-.565-.808q0-1.345.087-4.056t.081-4.06v-6.762a9.765 9.765 0 0 0-.76-4.519c-.71-1.271-2.069-1.916-4.065-1.916a8.492 8.492 0 0 0-4.214 1.5q-2.7 1.642-2.694 3.276v8.207q0 1.4.027 4.179t.029 4.159c0 .534-.219.808-.66.808h-5.222c-.372 0-.562-.254-.562-.753q0-2.284.029-6.836t.028-6.839a48.827 48.827 0 0 0-1.1-10.243 3.053 3.053 0 0 1-.082-.589c0-.252.082-.387.255-.427.687-.068 1.7-.212 3.027-.417a26.518 26.518 0 0 1 2.781-.618l.223-.028c.227 0 .438.657.631 1.974s.373 1.971.525 1.971l1.4-1.238a17 17 0 0 1 3.313-2.271 10.261 10.261 0 0 1 4.771-1.233q6.458 0 8.22 5.275a14.361 14.361 0 0 1 4.326-3.7 10.784 10.784 0 0 1 5.444-1.573q5.2 0 7.183 3.032c.958 1.49 1.436 3.863 1.436 7.1 0 .622-.016 1.574-.053 2.869s-.059 2.236-.059 2.863q0 1.765.082 5.315c.056 2.366.091 4.142.117 5.316z"/><path data-name="Path 1085" d="M855.445 345.619a9.543 9.543 0 0 1-.072.956c-.044.429-.071.753-.071.984 0 .175.023.433.057.786s.059.629.059.819c0 .764-.439 1.144-1.313 1.144q-.763 0-2.249.057c-.99.042-1.744.063-2.248.063a9.614 9.614 0 0 1-5.105-1.777 17.239 17.239 0 0 1-4.072-3.664 23.1 23.1 0 0 1-5.137 4.6 12.906 12.906 0 0 1-6.709 1.711 8.689 8.689 0 0 1-6.88-2.976 10.4 10.4 0 0 1-2.5-7.161 12.109 12.109 0 0 1 2.611-7.854 23.548 23.548 0 0 1 6.713-5.261 20.6 20.6 0 0 1-1.643-7.229 10.8 10.8 0 0 1 2.5-7.5 9.41 9.41 0 0 1 7.272-2.832 10.555 10.555 0 0 1 6.315 1.853 6.629 6.629 0 0 1 2.894 5.671 9.325 9.325 0 0 1-3.314 7.042 43.017 43.017 0 0 1-6.8 4.527 53.014 53.014 0 0 0 5.17 7.293 29.144 29.144 0 0 1 4.934-5.221 11.632 11.632 0 0 1 6.848-1.907 5.4 5.4 0 0 1 1.566.135 1.188 1.188 0 0 1 .741 1.241 7.7 7.7 0 0 1-1.322 4.435c-.857.082-1.707.142-2.548.192a8.526 8.526 0 0 0-2.478.594 11.783 11.783 0 0 0-4.632 4.046 15.417 15.417 0 0 0 4.019 3.45 11.18 11.18 0 0 0 5.114 1.007h1.368c.607.083.912.348.912.776zm-17.912-4.092a66.041 66.041 0 0 1-6.849-9.155q-5.339 3.394-5.33 8.11a5.444 5.444 0 0 0 1.311 3.762 4.613 4.613 0 0 0 3.616 1.578q3.459 0 7.252-4.295zm3.118-23.362a3.336 3.336 0 0 0-1.071-2.611 3.957 3.957 0 0 0-2.723-.956q-4.661 0-4.654 4.715a20.466 20.466 0 0 0 1.207 6.146 33.2 33.2 0 0 0 4.6-2.886q2.639-2.1 2.64-4.409z"/><path data-name="Path 1086" d="M909.173 311.537c0 2.157-.076 5.4-.218 9.744s-.231 7.6-.239 9.781q0 3.066.052 9.165c.039 4.063.058 7.124.058 9.168 0 .614-.233.919-.7.919-.284 0-.7-.024-1.266-.075a11.971 11.971 0 0 0-1.26-.084c-.279 0-.764.021-1.379.084s-1.074.075-1.374.075-.737-.3-1.211-.919q-6.063-8.175-18.39-24.368c-1.271-1.651-2.01-2.565-2.214-2.753-.187 0-.278.384-.278 1.15q0 4.321.138 12.982t.141 12.988c0 .614-.191.919-.559.919-.333 0-.808-.024-1.465-.075s-1.141-.084-1.459-.084-.838.021-1.5.084-1.164.075-1.5.075c-.468 0-.7-.18-.7-.557q0-3.092.295-9.3t.3-9.335q0-3.4-.254-12.241-.057-2.3-.279-6.9l-.029-.364c-.023-.278.2-.429.672-.448a50.03 50.03 0 0 0 2.867-.115c.256-.018.756-.09 1.484-.225a9.133 9.133 0 0 1 1.462-.17c.163 0 .458.273.871.814q6.456 8.874 19.766 26.393c.383.483.751.905 1.089 1.263a42.276 42.276 0 0 0 .2-5.391q0-3.656-.269-10.954t-.271-10.918c0-.618.19-.925.562-.925.329 0 .85.031 1.533.086s1.193.08 1.524.08.894-.022 1.6-.08 1.244-.086 1.6-.086a.548.548 0 0 1 .6.597z"/><path data-name="Path 1087" d="M942.355 324.908a4.88 4.88 0 0 1-.08.5 66.745 66.745 0 0 0-1.1 11.1q0 .277.7 12.6l.03.395c.023.539-.227.813-.741.813a22.825 22.825 0 0 0-2.328.184c-.768.1-1.535.156-2.3.186-.36 0-.631-.665-.817-1.974s-.365-1.978-.534-1.978a7.124 7.124 0 0 0-1.521 1.1 16.585 16.585 0 0 1-3.082 2.047 9.672 9.672 0 0 1-4.439 1.119 11.624 11.624 0 0 1-9.179-4.352 14.487 14.487 0 0 1-3.551-9.662 15.035 15.035 0 0 1 3.563-10.3 12.466 12.466 0 0 1 9.828-4.243 10.679 10.679 0 0 1 7.493 2.978q.473.557 1.488 1.641a.253.253 0 0 0 .17.09c.115 0 .272-.6.478-1.768s.469-1.771.787-1.771a17.974 17.974 0 0 1 2.835.415c1.527.321 2.3.617 2.3.88zm-7.158 11.74a9.021 9.021 0 0 0-2.05-5.923 6.837 6.837 0 0 0-5.529-2.671 7.079 7.079 0 0 0-5.613 2.636 8.82 8.82 0 0 0-2.159 5.948 8.671 8.671 0 0 0 2.159 5.9 7.088 7.088 0 0 0 5.613 2.612 6.856 6.856 0 0 0 5.5-2.672 8.843 8.843 0 0 0 2.082-5.827z"/><path data-name="Path 1088" d="M962.577 345.145c0 .411-.041.989-.116 1.689a79.244 79.244 0 0 0-.169 1.713 2.808 2.808 0 0 1-.075.618 1.3 1.3 0 0 1-.537.393c-1.538.724-3.953 1.093-7.238 1.093q-6.568 0-6.572-5.954c0-1.587.04-3.981.111-7.17s.113-5.582.113-7.172a1.107 1.107 0 0 0-.285-.885 1.128 1.128 0 0 0-.868-.352c-.687 0-1.374 0-2.043-.03-.395-.091-.6-.856-.6-2.3a14.418 14.418 0 0 1 .118-1.708.941.941 0 0 1 .9-.817c.466 0 .928 0 1.374-.028.865-.04 1.293-.42 1.293-1.152s-.022-1.888-.065-3.424-.077-2.687-.077-3.45c0-1.373.267-2.056.793-2.056.17 0 1.923.294 5.275.875.432.055.655.258.655.615 0 .826-.062 2.062-.181 3.7s-.185 2.888-.185 3.709c0 .549.254.816.759.816h6.735c.328 0 .48.11.48.329a9.41 9.41 0 0 1-.1 1.081 10.221 10.221 0 0 0-.1 1.108c0 .285 0 .707.025 1.294.027.571.029 1.009.029 1.291 0 .355-.259.527-.781.527-.748 0-1.884-.046-3.4-.152s-2.648-.152-3.4-.152q-.23 0-.335 1.6-.129 2-.138 5.587v4.188a8.786 8.786 0 0 0 .451 3.36 2.744 2.744 0 0 0 2.784 1.464 12.722 12.722 0 0 0 2.555-.38 12.363 12.363 0 0 1 2.5-.376c.199.003.315.173.315.508z"/><path data-name="Path 1089" d="M973.884 316.727q0 3.464-3.844 3.459-3.907 0-3.906-3.459a3.221 3.221 0 0 1 1.21-2.552 4.281 4.281 0 0 1 5.405.028 3.189 3.189 0 0 1 1.135 2.524zm-.2 7.611q0 2.162-.269 6.53t-.265 6.556q0 2.046.09 6.135c.047 2.72.076 4.76.082 6.106 0 .393-.172.589-.512.589h-5.47c-.4 0-.59-.389-.59-1.15 0-1.3.027-3.229.1-5.827s.1-4.546.1-5.853c0-1.454-.105-3.648-.329-6.576s-.33-5.119-.33-6.571c0-.327.206-.479.594-.479a12.8 12.8 0 0 1 1.56.144 8.9 8.9 0 0 0 3.177 0 12.055 12.055 0 0 1 1.584-.144c.32.011.481.19.481.54z"/><path data-name="Path 1090" d="M1004.686 336.645a14.25 14.25 0 0 1-3.844 10.026 13.25 13.25 0 0 1-19.509.026 14.919 14.919 0 0 1 0-20 13.379 13.379 0 0 1 19.48 0 13.944 13.944 0 0 1 3.873 9.948zm-5.916.057a8.529 8.529 0 0 0-2.105-5.836 6.978 6.978 0 0 0-5.556-2.557 7.116 7.116 0 0 0-5.592 2.53 9.134 9.134 0 0 0 .028 11.7 7.241 7.241 0 0 0 11.117 0 8.732 8.732 0 0 0 2.107-5.85z"/><path data-name="Path 1091" d="M1033.374 349.756c0 .4-.187.6-.565.6-.62 0-1.536 0-2.762-.02s-2.154-.031-2.766-.033c-.331 0-.506-.271-.506-.806 0-.921.031-2.313.084-4.186s.088-3.278.086-4.205c0-.756-.009-1.872-.026-3.364s-.035-2.605-.035-3.35a8.175 8.175 0 0 0-.925-4.524c-.749-1.045-2.128-1.572-4.152-1.572a8.242 8.242 0 0 0-3.9 1.572c-1.75 1.092-2.624 2.083-2.624 2.958v16.845c0 .466-.182.7-.539.7-.6 0-1.5 0-2.693-.029s-2.095-.028-2.7-.028c-.389 0-.585-.214-.585-.658q0-2.221.072-6.653c.047-2.955.063-5.181.063-6.678a45.221 45.221 0 0 0-1.261-11.037 1.551 1.551 0 0 1-.086-.364c0-.189.126-.324.375-.389l3.21-.523c2.011-.326 3.06-.487 3.156-.487s.186.15.226.448a18.3 18.3 0 0 0 .651 3.5q1.466-1.143 3.848-2.863a11.053 11.053 0 0 1 5.7-1.792c3.51 0 5.927 1.018 7.229 3.063q1.43 2.243 1.435 7.268c0 .576 0 1.47-.042 2.669s-.049 2.095-.049 2.7q0 1.881.058 5.615.054 3.719.023 5.623z"/><path data-name="Path 1092" d="M1065.993 324.904a3.822 3.822 0 0 1-.083.506 66.621 66.621 0 0 0-1.1 11.09q0 .286.71 12.6l.02.4c.015.548-.229.811-.738.811a21.874 21.874 0 0 0-2.334.186 22.218 22.218 0 0 1-2.317.181q-.535 0-.811-1.974c-.192-1.313-.368-1.971-.538-1.971a7.249 7.249 0 0 0-1.518 1.095 16.359 16.359 0 0 1-3.076 2.046 9.834 9.834 0 0 1-4.441 1.128 11.62 11.62 0 0 1-9.182-4.357 14.474 14.474 0 0 1-3.537-9.68 15.019 15.019 0 0 1 3.571-10.3 12.42 12.42 0 0 1 9.819-4.24 10.67 10.67 0 0 1 7.5 2.969c.316.38.814.93 1.486 1.649a.233.233 0 0 0 .17.082c.115 0 .271-.592.477-1.777.208-1.17.463-1.753.788-1.753a16.075 16.075 0 0 1 2.829.415c1.53.335 2.305.631 2.305.894zm-7.161 11.737a8.993 8.993 0 0 0-2.047-5.918 6.839 6.839 0 0 0-5.534-2.667 7.071 7.071 0 0 0-5.611 2.631 8.852 8.852 0 0 0-2.168 5.965 8.73 8.73 0 0 0 2.159 5.892 7.139 7.139 0 0 0 5.614 2.618 6.871 6.871 0 0 0 5.512-2.68 8.84 8.84 0 0 0 2.075-5.83z"/><path data-name="Path 1093" d="M1077.655 311.369l-.032.367q-.612 10.447-.612 17.942 0 3.334.112 10.009t.111 9.976c0 .431-.148.662-.448.662h-5.361c-.334 0-.506-.214-.506-.662q0-3.308.058-9.976t.055-10.009q0-3.04-.3-9.115c-.2-4.051-.292-7.072-.292-9.081 0-.369.2-.561.589-.561.328 0 .837.028 1.518.088s1.176.075 1.515.075.874-.02 1.573-.075 1.2-.088 1.538-.088.513.153.482.448z"/><path data-name="Path 1094" d="M1133.062 349.671c0 .436-.285.658-.846.658-.327 0-.8-.031-1.466-.088s-1.17-.082-1.506-.082-.894.033-1.615.082-1.259.088-1.609.088a.582.582 0 0 1-.5-.163.568.568 0 0 1-.159-.5q0-2.536.155-7.58c.1-3.364.156-5.892.156-7.578 0-.731-.219-1.159-.66-1.271a211.081 211.081 0 0 0-19.428 0c-.406.112-.618.54-.618 1.271 0 1.642.049 4.125.141 7.437s.142 5.79.144 7.438c0 .611-.235.925-.7.925-.353 0-.892-.029-1.6-.082s-1.24-.081-1.6-.081-.836.023-1.5.081-1.168.082-1.5.082c-.475 0-.708-.205-.708-.658q0-3.092.3-9.28t.3-9.275q0-3.252-.3-9.777t-.3-9.792c0-.409.233-.618.708-.618.334 0 .853.035 1.541.09s1.217.08 1.574.08.863-.022 1.567-.08 1.238-.09 1.571-.09c.433 0 .656.17.656.512 0 1.605-.062 4.024-.21 7.256s-.208 5.643-.208 7.259c0 .521.2.836.588.942q.708.262 9.887.263 8.981 0 9.823-.263c.431-.106.656-.5.656-1.2q0-2.354-.157-7.1c-.1-3.161-.152-5.529-.152-7.1 0-.373.217-.562.662-.562.355 0 .875.035 1.563.09s1.2.08 1.552.08.844-.022 1.517-.08 1.184-.09 1.515-.09c.485 0 .732.209.732.618q0 3.264-.278 9.792c-.2 4.347-.284 7.609-.284 9.777q0 3.1.311 9.275t.285 9.294z"/><path data-name="Path 1095" d="M1162.545 335.228a2.7 2.7 0 0 1-1.794 2.774q-1.219.451-17.382 1.647a6.3 6.3 0 0 0 2.726 4.207 7.933 7.933 0 0 0 4.83 1.645 13.02 13.02 0 0 0 8.14-2.86l.9-.73a.625.625 0 0 1 .3.051c.037.044.391.69 1.053 1.955a18.583 18.583 0 0 1 .988 2.033c0 .117-.158.334-.454.658a13.857 13.857 0 0 1-10.587 4.377q-6.514 0-10.385-3.881t-3.881-10.375a14.991 14.991 0 0 1 3.709-10.075 12.248 12.248 0 0 1 9.576-4.466 11.493 11.493 0 0 1 8.816 3.868 13.107 13.107 0 0 1 3.445 9.172zm-6.687-1.713a5.578 5.578 0 0 0-1.841-4.126 5.744 5.744 0 0 0-4.139-1.792 6.212 6.212 0 0 0-4.592 2.074 6.438 6.438 0 0 0-2.013 4.649c0 .406.328.6 1.006.6a71.65 71.65 0 0 0 9.947-.846c1.093-.15 1.633-.333 1.633-.558z"/><path data-name="Path 1096" d="M1182.526 323.95a35.661 35.661 0 0 1-.419 5.617c-.06.429-.243.654-.565.654-.391 0-.98-.045-1.779-.124s-1.4-.128-1.812-.128q-3.539 0-4.517 2c-.4.8-.594 2.475-.594 5.026v3.089c0 1.044.047 2.638.124 4.768s.133 3.72.133 4.775c0 .508-.215.753-.66.753-.583 0-1.466 0-2.634-.021s-2.058-.03-2.627-.03c-.433 0-.658-.241-.658-.7 0-1.517.021-3.795.073-6.846s.063-5.351.063-6.885a39.1 39.1 0 0 0-1.289-11.14 1.585 1.585 0 0 1-.057-.333.482.482 0 0 1 .364-.475c.692-.075 1.666-.189 2.92-.329a28.48 28.48 0 0 0 2.813-.569c.3 0 .492.557.587 1.649s.261 1.638.506 1.638a.286.286 0 0 0 .137-.047l2.294-1.468a10.989 10.989 0 0 1 2.591-1.121 9.812 9.812 0 0 1 2.809-.322c1.461-.012 2.197.183 2.197.569z"/><path data-name="Path 1097" d="M1192.907 316.727q0 3.464-3.846 3.459-3.894 0-3.9-3.459a3.2 3.2 0 0 1 1.205-2.552 4.276 4.276 0 0 1 5.4.028 3.176 3.176 0 0 1 1.141 2.524zm-.194 7.611q0 2.162-.267 6.53t-.268 6.556q0 2.046.086 6.135c.058 2.72.087 4.76.082 6.106 0 .393-.168.589-.5.589h-5.475c-.393 0-.587-.389-.587-1.15 0-1.3.03-3.229.1-5.827s.1-4.546.1-5.853q0-2.181-.334-6.576c-.209-2.923-.324-5.119-.324-6.571 0-.327.192-.479.594-.479a12.991 12.991 0 0 1 1.557.144 8.85 8.85 0 0 0 3.167 0 12.283 12.283 0 0 1 1.588-.144c.325.011.481.19.481.54z"/><path data-name="Path 1098" d="M1213.915 345.145c0 .411-.037.989-.11 1.689-.093.878-.146 1.447-.172 1.713a2.41 2.41 0 0 1-.077.618 1.255 1.255 0 0 1-.539.393c-1.532.724-3.94 1.093-7.229 1.093q-6.573 0-6.571-5.954c0-1.587.035-3.981.112-7.17s.114-5.582.114-7.172a1.105 1.105 0 0 0-1.158-1.236q-1.03 0-2.047-.03c-.391-.091-.589-.856-.589-2.3a11.869 11.869 0 0 1 .121-1.708c.051-.45.354-.722.894-.817.464 0 .928 0 1.376-.028.854-.04 1.289-.42 1.289-1.152s-.021-1.888-.073-3.424-.062-2.687-.062-3.45c0-1.373.258-2.056.777-2.056q.255 0 5.277.875c.431.055.663.258.663.615 0 .826-.064 2.062-.18 3.7s-.185 2.888-.185 3.709c0 .549.251.816.757.816h6.737c.326 0 .477.11.477.329a10.626 10.626 0 0 1-.095 1.081 8.41 8.41 0 0 0-.1 1.108c0 .285.011.707.026 1.294s.028 1.009.028 1.291c0 .355-.258.527-.783.527-.751 0-1.881-.046-3.4-.152s-2.634-.152-3.4-.152c-.152 0-.265.532-.326 1.6q-.139 2-.142 5.587v4.188a8.673 8.673 0 0 0 .446 3.36 2.748 2.748 0 0 0 2.785 1.464 12.728 12.728 0 0 0 2.548-.38 12.431 12.431 0 0 1 2.5-.376c.201.002.311.172.311.507z"/><path data-name="Path 1099" d="M1245.215 324.904a2.954 2.954 0 0 1-.08.506 67.46 67.46 0 0 0-1.1 11.09q0 .278.7 12.6l.031.394c.018.552-.226.814-.746.814a21.864 21.864 0 0 0-2.329.186 21.742 21.742 0 0 1-2.3.181q-.533 0-.819-1.974c-.187-1.317-.368-1.971-.532-1.971a7.167 7.167 0 0 0-1.512 1.095 16.721 16.721 0 0 1-3.088 2.046 9.8 9.8 0 0 1-4.437 1.128 11.629 11.629 0 0 1-9.181-4.357 14.48 14.48 0 0 1-3.539-9.68 15.022 15.022 0 0 1 3.569-10.3 12.428 12.428 0 0 1 9.819-4.24 10.669 10.669 0 0 1 7.5 2.969q.476.57 1.487 1.649a.308.308 0 0 0 .17.079c.11 0 .271-.589.477-1.774.208-1.17.469-1.762.791-1.762a17.049 17.049 0 0 1 2.832.424c1.532.338 2.287.634 2.287.897zm-7.148 11.748a9.018 9.018 0 0 0-2.057-5.918 6.8 6.8 0 0 0-5.53-2.671 7.06 7.06 0 0 0-5.609 2.636 8.856 8.856 0 0 0-2.165 5.944 8.7 8.7 0 0 0 2.165 5.9 7.117 7.117 0 0 0 5.609 2.609 6.867 6.867 0 0 0 5.5-2.671 8.881 8.881 0 0 0 2.086-5.829z"/><path data-name="Path 1100" d="M1274.523 324.161q0 3.374-.055 10.123t-.055 10.119q0 6.683-2.859 9.861-3.015 3.371-9.607 3.364-6.372 0-10.3-2.408c-.41-.259-.621-.492-.621-.665q0 .312.852-4.149c.053-.325.178-.483.387-.483a.828.828 0 0 1 .369.146 16.764 16.764 0 0 0 8.449 2.415 8.045 8.045 0 0 0 4.6-1.232 4.6 4.6 0 0 0 2.1-4.07c0-.4-.033-1.27-.105-2.634a9.8 9.8 0 0 1-7.912 3.788 10.967 10.967 0 0 1-8.547-3.732 12.812 12.812 0 0 1-3.2-8.839 13.749 13.749 0 0 1 3.086-9.068 10.585 10.585 0 0 1 8.551-3.989 8.77 8.77 0 0 1 7.354 3.565c.295.4.521.589.658.589s.225-.165.225-.5c0-.252-.018-.641-.057-1.177s-.057-.93-.057-1.182c0-1.128.107-1.688.332-1.688.182 0 1.2.172 3.029.519a25.663 25.663 0 0 1 3 .63c.256.041.383.294.383.697zm-6.732 11.569a8.412 8.412 0 0 0-1.717-5.333 6.245 6.245 0 0 0-9.861.026 8.991 8.991 0 0 0 .027 10.587 6.153 6.153 0 0 0 9.771 0 8.235 8.235 0 0 0 1.779-5.3z"/><path data-name="Path 1101" d="M1303.457 335.227a2.7 2.7 0 0 1-1.793 2.777q-1.207.444-17.375 1.641a6.292 6.292 0 0 0 2.719 4.209 7.982 7.982 0 0 0 4.832 1.645 13 13 0 0 0 8.143-2.862l.889-.729a.605.605 0 0 1 .3.062q.067.05 1.051 1.942a18.072 18.072 0 0 1 .988 2.044c0 .113-.146.327-.449.656a13.927 13.927 0 0 1-10.588 4.379q-6.519 0-10.387-3.894t-3.869-10.373a14.97 14.97 0 0 1 3.7-10.072 12.242 12.242 0 0 1 9.58-4.462 11.436 11.436 0 0 1 8.809 3.865 13.08 13.08 0 0 1 3.45 9.172zm-6.678-1.71a5.645 5.645 0 0 0-1.838-4.135 5.781 5.781 0 0 0-4.143-1.79 6.272 6.272 0 0 0-4.6 2.074 6.432 6.432 0 0 0-2.006 4.662c0 .394.324.59 1 .59a70.9 70.9 0 0 0 9.939-.848c1.102-.152 1.648-.336 1.648-.553z"/></g><g data-name="Group 1001"><path data-name="Path 1102" d="M1447.413 341.703a39.982 39.982 0 0 0-3.246-6.048 79.009 79.009 0 0 0-11.864-14.4c-10.484-10.162-29.814-23.854-62.358-31.4l.3-1.292a155.277 155.277 0 0 1 39.08 14.418 108.93 108.93 0 0 1 23.962 17.379 79.965 79.965 0 0 1 12.035 14.642 40.2 40.2 0 0 1 3.32 6.21z" fill="#df6727"/><path data-name="Path 1103" d="M1443.294 315.269c-13.034-12.348-32.242-18.593-46.06-21.655a164.231 164.231 0 0 0-27.356-3.733l.234-1.326a164.858 164.858 0 0 1 27.407 3.76 133.252 133.252 0 0 1 24.247 7.7 77.374 77.374 0 0 1 22.436 14.29z" fill="#f1292f"/><path data-name="Path 1104" d="M1443.086 315.331c-.009-.2-.8-20.7-3.484-40.748-1.577-11.75-3.487-21.217-5.679-28.129a40.115 40.115 0 0 0-4.156-9.538c-1.545-2.376-3.177-3.723-4.855-4-2.418-.4-5.132 1.386-8.074 5.32-3.37 4.506-7.032 11.866-10.887 21.854l-1.238-.475c7.661-19.856 14.337-29.021 20.417-28.007 2.061.343 3.994 1.888 5.75 4.589a41.624 41.624 0 0 1 4.311 9.862c2.214 6.989 4.142 16.533 5.726 28.358 2.7 20.107 3.487 40.667 3.5 40.866z" fill="#1aab4b"/><path data-name="Path 1105" d="M1405.853 260.322l-1.225-.675a146.729 146.729 0 0 1 15.628-19.7 76.586 76.586 0 0 1 15.588-12.928c6.306-3.768 12.244-5.363 17.646-4.742 5.024.576 9.637 3.079 13.707 7.441 4.486 4.807 8.417 11.992 11.683 21.358l-1.252.437c-6.059-17.371-14.23-26.764-24.289-27.919-5.105-.588-10.766.948-16.814 4.563a75.234 75.234 0 0 0-15.309 12.706 139.975 139.975 0 0 0-15.363 19.459z" fill="#1966b3"/><path data-name="Path 1106" d="M1477.862 251.902a142.865 142.865 0 0 0-17.571-19.5c-9.377-8.557-23.358-18.42-36.712-16.834-11.366 1.353-20.673 10.739-27.663 27.9l-1.229-.5c3.764-9.243 8.249-16.363 13.333-21.167a26.842 26.842 0 0 1 15.4-7.557c6.141-.729 12.887.762 20.05 4.434a83.393 83.393 0 0 1 17.729 12.755 144.388 144.388 0 0 1 17.736 19.692z" fill="#50a6c6"/><path data-name="Path 1107" d="M1395.675 243.807l-1.068-.828a128.65 128.65 0 0 1 16-17.9 84.988 84.988 0 0 1 16.723-12.305c6.9-3.759 13.613-5.709 19.951-5.8 11.607-.156 22.044 5.892 31.015 17.977l-1.062.794c-8.594-11.576-18.52-17.444-29.512-17.444h-.417c-13.893.188-27.122 9.746-35.775 17.731a127.052 127.052 0 0 0-15.855 17.775z" fill="#df6727"/><path data-name="Path 1108" d="M1477.505 225.951a163.114 163.114 0 0 0-21.842-13.6c-11.16-5.727-26.956-11.785-38.855-8.135-7.112 2.187-12.16 7.638-15 16.211l-1.258-.417c2.985-9 8.321-14.747 15.873-17.061 5.463-1.678 12.13-1.561 19.806.356a95.2 95.2 0 0 1 20.063 7.876 162.189 162.189 0 0 1 22.021 13.764z" fill="#f1292f"/><path data-name="Path 1109" d="M1401.42 220.903l-.941-.937a171.445 171.445 0 0 1 18.695-15.889 88.427 88.427 0 0 1 16.849-9.9c6.446-2.738 12.018-3.618 16.564-2.618 5.584 1.23 9.652 5.277 12.1 12.031l-1.247.451c-2.277-6.293-6.026-10.056-11.136-11.183-4.27-.937-9.573-.084-15.761 2.543a87.064 87.064 0 0 0-16.589 9.756 169.567 169.567 0 0 0-18.534 15.746z" fill="#1966b3"/><path data-name="Path 1110" d="M1464.049 204.588c-11.614-7.993-25.051-9.827-33.971-9.77a69.023 69.023 0 0 0-16.735 2.054l-.367-1.274a70.449 70.449 0 0 1 17.093-2.108 67.4 67.4 0 0 1 16.595 1.892 56.552 56.552 0 0 1 18.139 8.111z" fill="#f8b91b"/><path data-name="Path 1111" d="M1458.126 267.952c-.467-1.068-1.229-4.832-2.383-10.531-2.127-10.521-5.691-28.132-10.5-43.026-5.716-17.717-11.731-27.249-17.881-28.332-4.328-.762-9.206 3.218-13.931 10.956l-1.134-.688c2.563-4.2 5.44-7.706 7.965-9.539a9.508 9.508 0 0 1 7.332-2.034 11.293 11.293 0 0 1 5.675 3.121 29.736 29.736 0 0 1 4.964 6.479c2.818 4.747 5.6 11.351 8.275 19.633 4.827 14.963 8.4 32.62 10.535 43.168 1.056 5.21 1.887 9.324 2.3 10.259z" fill="#8e63a7"/><path data-name="Path 1112" d="M1429.641 353.469c-1.337-6.154-1.694-15.954-1.038-28.34a375.174 375.174 0 0 1 4.054-37.379 309.89 309.89 0 0 1 7.125-34.179c2.9-10.319 5.714-16.667 8.377-18.871a3.027 3.027 0 0 1 3.261-.7c1.879.8 3.428 3.82 4.732 9.229 1.354 5.593 2.442 14.025 3.243 24.623l-1.322.1c-2-26.483-5.353-31.957-7.174-32.73-.208-.089-.853-.363-1.895.5-1.684 1.393-4.428 5.684-7.945 18.206a308.355 308.355 0 0 0-7.095 34.025c-4.374 27.955-5.563 53.559-3.026 65.234z" fill="#1966b3"/><path data-name="Path 1113" d="M1430.689 353.937l-1.236-.485c.016-.038 1.771-4.28 4.9-10.028a134.55 134.55 0 0 1 14.61-21.522 104.5 104.5 0 0 1 25.476-22.357 82.686 82.686 0 0 1 37.288-12.088l.1 1.323c-29.455 2.2-49.876 19.67-61.817 33.945a132.834 132.834 0 0 0-14.465 21.3c-3.108 5.685-4.84 9.875-4.856 9.912z" fill="#50a6c6"/><path data-name="Path 1114" d="M1448.225 342.163l-1.162-.636a103.109 103.109 0 0 1 18.654-24.152 140.888 140.888 0 0 1 21.2-16.794 147.33 147.33 0 0 1 24.845-13.157l.474 1.239a146.856 146.856 0 0 0-24.621 13.046c-12.248 7.995-29.03 21.561-39.39 40.454z" fill="#f8b91b"/></g></g></g></svg>